SplineFontDB: 3.0
FontName: Jost-Heavy
FullName: Jost* 800 Heavy
FamilyName: Jost* Heavy
Weight: Heavy
Copyright: Copyright (c) 2018, Owen Earl,,,
UComments: "2018-6-8: Created with FontForge (http://fontforge.org)"
Version: 003.300
ItalicAngle: 0
UnderlinePosition: -100
UnderlineWidth: 50
Ascent: 800
Descent: 200
InvalidEm: 0
LayerCount: 2
Layer: 0 0 "Back" 1
Layer: 1 0 "Fore" 0
XUID: [1021 69 1495626776 4534362]
FSType: 0
OS2Version: 0
OS2_WeightWidthSlopeOnly: 0
OS2_UseTypoMetrics: 0
CreationTime: 1528479348
ModificationTime: 1536010943
PfmFamily: 17
TTFWeight: 800
TTFWidth: 5
LineGap: 100
VLineGap: 0
OS2TypoAscent: 825
OS2TypoAOffset: 0
OS2TypoDescent: -225
OS2TypoDOffset: 0
OS2TypoLinegap: 100
OS2WinAscent: 900
OS2WinAOffset: 0
OS2WinDescent: 300
OS2WinDOffset: 0
HheadAscent: 1030
HheadAOffset: 0
HheadDescent: -350
HheadDOffset: 0
OS2CapHeight: 700
OS2XHeight: 460
OS2Vendor: 'PfEd'
Lookup: 1 0 0 "alt a" { "alt a"  } ['ss01' ('DFLT' <'dflt' > 'latn' <'dflt' > ) ]
Lookup: 1 0 0 "Tabular Numbers lookup" { "Tabular Numbers lookup"  } ['tnum' ('DFLT' <'dflt' > 'grek' <'dflt' > 'latn' <'dflt' > ) ]
Lookup: 258 0 0 "Lets get our kern on" { "kernin like nobodys business" [150,0,0] } ['kern' ('DFLT' <'dflt' > 'latn' <'dflt' > ) ]
MarkAttachClasses: 1
DEI: 91125
KernClass2: 16 14 "kernin like nobodys business"
 15 slash seven V W
 175 quotedbl quotesingle asterisk grave dieresis ordfeminine macron degree acute ordmasculine circumflex breve dotaccent ring tilde quoteleft quoteright quotedblleft quotedblright
 17 nine question F P
 107 A L backslash Agrave Aacute Acircumflex Atilde Adieresis Aring Amacron Abreve Aogonek Lacute uni013B Lslash
 26 three eight B C germandbls
 5 K X Z
 125 at D G O Ograve Oacute Ocircumflex Otilde Odieresis Oslash Dcaron Dcroat Gcircumflex Gbreve Gdotaccent uni0122 Omacron Obreve
 158 a h m n s agrave aacute acircumflex atilde adieresis aring egrave eacute ecircumflex edieresis ntilde amacron abreve aogonek hcircumflex nacute uni0146 ncaron

StartChar: H
Encoding: 72 72 0
Width: 808
VWidth: 0
Flags: HMW
LayerCount: 2
Fore
SplineSet
118 279 m 257
 118 452 l 257
 664 452 l 257
 664 279 l 257
 118 279 l 257
542 700 m 257
 736 700 l 257
 736 0 l 257
 542 0 l 257
 542 700 l 257
72 700 m 257
 266 700 l 257
 266 0 l 257
 72 0 l 257
 72 700 l 257
EndSplineSet
EndChar

StartChar: O
Encoding: 79 79 1
Width: 830
VWidth: 0
Flags: HMW
LayerCount: 2
Fore
SplineSet
238 350 m 256
 238 236 307 159 415 159 c 256
 523 159 592 236 592 350 c 256
 592 464 527 541 415 541 c 256
 307 541 238 464 238 350 c 256
32 350 m 256
 32 570 199 718 415 718 c 256
 635 718 799 570 799 350 c 256
 799 130 639 -26 415 -26 c 256
 191 -26 32 130 32 350 c 256
EndSplineSet
EndChar

StartChar: I
Encoding: 73 73 2
Width: 342
VWidth: 0
Flags: HMW
LayerCount: 2
Fore
SplineSet
72 700 m 257
 270 700 l 257
 270 0 l 257
 72 0 l 257
 72 700 l 257
EndSplineSet
EndChar

StartChar: C
Encoding: 67 67 3
Width: 705
VWidth: 0
Flags: HMW
LayerCount: 2
Fore
SplineSet
246 350 m 256
 246 232 334 166 440 166 c 256
 539 166 599 210 644 256 c 257
 644 50 l 257
 588 10 528 -18 426 -18 c 256
 192 -18 32 129 32 350 c 256
 32 571 192 718 426 718 c 256
 528 718 588 690 644 650 c 257
 644 444 l 257
 599 490 539 534 440 534 c 256
 334 534 246 468 246 350 c 256
EndSplineSet
EndChar

StartChar: E
Encoding: 69 69 4
Width: 619
VWidth: 0
Flags: HMW
LayerCount: 2
Fore
SplineSet
204 0 m 257
 204 158 l 257
 558 158 l 257
 558 0 l 257
 204 0 l 257
204 542 m 257
 204 700 l 257
 558 700 l 257
 558 542 l 257
 204 542 l 257
204 288 m 257
 204 440 l 257
 538 440 l 257
 538 288 l 257
 204 288 l 257
72 700 m 257
 258 700 l 257
 258 0 l 257
 72 0 l 257
 72 700 l 257
EndSplineSet
EndChar

StartChar: F
Encoding: 70 70 6
Width: 569
VWidth: 0
Flags: HMW
LayerCount: 2
Fore
SplineSet
204 534 m 257
 204 700 l 257
 518 700 l 257
 518 534 l 257
 204 534 l 257
204 262 m 257
 204 416 l 257
 508 416 l 257
 508 262 l 257
 204 262 l 257
72 700 m 257
 258 700 l 257
 258 0 l 257
 72 0 l 257
 72 700 l 257
EndSplineSet
EndChar

StartChar: G
Encoding: 71 71 7
Width: 826
VWidth: 0
Flags: HMW
LayerCount: 2
Fore
SplineSet
425 246 m 257
 425 392 l 257
 788 392 l 257
 804 162 670 -26 424 -26 c 256
 196 -26 32 124 32 350 c 256
 32 576 204 718 432 718 c 256
 586 718 687 644 755 547 c 257
 577 462 l 257
 549 512 506 552 432 552 c 256
 324 552 236 480 236 350 c 256
 236 220 316 140 432 140 c 256
 524.117 140 572.896 182.604 597.033 246 c 257
 425 246 l 257
EndSplineSet
EndChar

StartChar: T
Encoding: 84 84 8
Width: 590
VWidth: 0
Flags: HMW
LayerCount: 2
Fore
SplineSet
2 526 m 257
 2 700 l 257
 589 700 l 257
 589 526 l 257
 393 526 l 257
 393 0 l 257
 198 0 l 257
 198 526 l 257
 2 526 l 257
EndSplineSet
EndChar

StartChar: L
Encoding: 76 76 9
Width: 551
VWidth: 0
Flags: HMW
LayerCount: 2
Fore
SplineSet
72 700 m 257
 266 700 l 257
 266 166 l 257
 550 166 l 257
 550 0 l 257
 72 0 l 257
 72 700 l 257
EndSplineSet
EndChar

StartChar: D
Encoding: 68 68 10
Width: 749
VWidth: 0
Flags: HMW
LayerCount: 2
Fore
SplineSet
72 700 m 257
 274 700 l 257
 274 0 l 257
 72 0 l 257
 72 700 l 257
334 0 m 258
 204 0 l 257
 204 170 l 257
 326 170 l 258
 419 170 514 204 514 350 c 256
 514 496 419 530 326 530 c 258
 204 530 l 257
 204 700 l 257
 334 700 l 258
 570 700 718 568 718 350 c 256
 718 132 570 0 334 0 c 258
EndSplineSet
EndChar

StartChar: Q
Encoding: 81 81 11
Width: 885
VWidth: 0
Flags: HMW
LayerCount: 2
Fore
SplineSet
238 350 m 256
 238 220 328 142 436 142 c 256
 544 142 617 212 617 326 c 256
 617 440 548 541 420 541 c 256
 312 541 238 464 238 350 c 256
32 350 m 256
 32 570 204 718 420 718 c 256
 640 718 799 570 799 350 c 256
 799 130 644 -26 420 -26 c 256
 196 -26 32 130 32 350 c 256
350 300 m 257
 545 300 l 257
 894 -16 l 257
 690 -16 l 257
 350 300 l 257
EndSplineSet
EndChar

StartChar: A
Encoding: 65 65 12
Width: 757
VWidth: 0
Flags: HMW
LayerCount: 2
Fore
SplineSet
196 112 m 257
 202 256 l 257
 560 256 l 257
 566 112 l 257
 196 112 l 257
379 412 m 257
 287 203 l 257
 299 159 l 257
 218 0 l 257
 -4 0 l 257
 379 747 l 257
 760 0 l 257
 540 0 l 257
 460 152 l 257
 471 202 l 257
 379 412 l 257
EndSplineSet
EndChar

StartChar: R
Encoding: 82 82 13
Width: 673
VWidth: 0
Flags: HMW
LayerCount: 2
Fore
SplineSet
262 308 m 257
 462 308 l 257
 672 0 l 257
 445 0 l 257
 262 308 l 257
72 700 m 257
 266 700 l 257
 266 0 l 257
 72 0 l 257
 72 700 l 257
196 536 m 257
 196 700 l 257
 348 700 l 258
 540 700 630 604 630 466 c 256
 630 328 540 231 348 231 c 258
 196 231 l 257
 196 380 l 257
 331 380 l 258
 393 380 427 408 427 458 c 256
 427 508 393 536 331 536 c 258
 196 536 l 257
EndSplineSet
EndChar

StartChar: V
Encoding: 86 86 14
Width: 757
VWidth: 0
Flags: HMW
LayerCount: 2
Fore
SplineSet
379 320 m 257
 532 700 l 257
 760 700 l 257
 379 -47 l 257
 -4 700 l 257
 226 700 l 257
 379 320 l 257
EndSplineSet
EndChar

StartChar: M
Encoding: 77 77 15
Width: 915
VWidth: 0
Flags: HMW
LayerCount: 2
Fore
SplineSet
277.643 317.144 m 257
 238 0 l 257
 32 0 l 257
 154 735 l 257
 458 332 l 257
 762 735 l 257
 884 0 l 257
 676 0 l 257
 637.777 316.332 l 257
 458 65 l 257
 277.643 317.144 l 257
EndSplineSet
EndChar

StartChar: W
Encoding: 87 87 16
Width: 1087
VWidth: 0
Flags: HMW
LayerCount: 2
Fore
SplineSet
739.111 318.816 m 257
 852 700 l 257
 1086 700 l 257
 774 -44 l 257
 544 342 l 257
 314 -44 l 257
 2 700 l 257
 235 700 l 257
 347.668 319.562 l 257
 544 735 l 257
 739.111 318.816 l 257
EndSplineSet
EndChar

StartChar: N
Encoding: 78 78 17
Width: 799
VWidth: 0
Flags: HMW
LayerCount: 2
Fore
SplineSet
541 700 m 257
 728 700 l 257
 728 -35 l 257
 258 350.66 l 257
 258 0 l 257
 72 0 l 257
 72 735 l 257
 541 348.977 l 257
 541 700 l 257
EndSplineSet
EndChar

StartChar: a
Encoding: 97 97 18
Width: 562
VWidth: 0
Flags: HMW
LayerCount: 2
Fore
SplineSet
196 138 m 256
 196 109 220 98 252 98 c 256
 300 98 345 118 345 188 c 257
 361 130 l 257
 361 41 287 -10 192 -10 c 256
 88 -10 22 41 22 129 c 256
 22 219 102 277 222 277 c 256
 286 277 356 255 378 232 c 257
 378 152 l 257
 347 176 316 188 266 188 c 256
 223 188 196 168 196 138 c 256
120 308 m 257
 64 422 l 257
 122 447 201 474 284 474 c 256
 414 474 510 420 510 322 c 258
 510 0 l 257
 345 0 l 257
 345 283 l 258
 345 320 318 346 268 346 c 256
 202 346 142 320 120 308 c 257
EndSplineSet
Substitution2: "alt a" a.alt
EndChar

StartChar: X
Encoding: 88 88 19
Width: 725
VWidth: 0
Flags: HMW
LayerCount: 2
Fore
SplineSet
466 700 m 257
 709 700 l 257
 486 356 l 257
 724 0 l 257
 482 0 l 257
 364 214 l 257
 244 0 l 257
 2 0 l 257
 246 356 l 257
 26 700 l 257
 269 700 l 257
 366 514 l 257
 466 700 l 257
EndSplineSet
EndChar

StartChar: K
Encoding: 75 75 20
Width: 740
VWidth: 0
Flags: HMW
LayerCount: 2
Fore
SplineSet
72 700 m 257
 275 700 l 257
 275 0 l 257
 72 0 l 257
 72 700 l 257
501 700 m 257
 728 700 l 257
 450 372 l 257
 744 0 l 257
 508 0 l 257
 218 366 l 257
 501 700 l 257
EndSplineSet
EndChar

StartChar: Y
Encoding: 89 89 21
Width: 690
VWidth: 0
Flags: HMW
LayerCount: 2
Fore
SplineSet
468 700 m 257
 694 700 l 257
 444 278.08 l 257
 444 0 l 257
 246 0 l 257
 246 278.08 l 257
 -4 700 l 257
 222 700 l 257
 345 456 l 257
 468 700 l 257
EndSplineSet
EndChar

StartChar: B
Encoding: 66 66 22
Width: 696
VWidth: 0
Flags: HMW
LayerCount: 2
Fore
SplineSet
232 342 m 257
 232 424 l 257
 329 424 l 258
 383 424 412 448 412 490 c 256
 412 532 383 552 329 552 c 258
 266 552 l 257
 266 148 l 257
 348 148 l 258
 406 148 452 162 452 224 c 256
 452 278 406 292 348 292 c 258
 232 292 l 257
 232 398 l 257
 372 398 l 258
 507 398 654 340 654 194 c 256
 654 55 548 0 372 0 c 258
 72 0 l 257
 72 700 l 257
 354 700 l 258
 504 700 614 640 614 521 c 256
 614 405 504 342 354 342 c 258
 232 342 l 257
EndSplineSet
EndChar

StartChar: Z
Encoding: 90 90 23
Width: 642
VWidth: 0
Flags: HMW
LayerCount: 2
Fore
SplineSet
64 526 m 257
 64 700 l 257
 630 700 l 257
 310 166 l 257
 590 166 l 257
 590 0 l 257
 6 0 l 257
 321 526 l 257
 64 526 l 257
EndSplineSet
EndChar

StartChar: o
Encoding: 111 111 24
Width: 602
VWidth: 0
Flags: HMW
LayerCount: 2
Fore
SplineSet
31 230 m 256
 31 378 147 470 302 470 c 256
 457 470 572 378 572 230 c 256
 572 82 457 -10 302 -10 c 256
 147 -10 31 82 31 230 c 256
210 230 m 256
 210 166 252 130 302 130 c 256
 352 130 394 166 394 230 c 256
 394 294 352 331 302 331 c 256
 252 331 210 294 210 230 c 256
EndSplineSet
EndChar

StartChar: J
Encoding: 74 74 25
Width: 357
VWidth: 0
Flags: HMW
LayerCount: 2
Fore
SplineSet
-74 -48 m 257
 -52 -64 -20 -80 8 -80 c 256
 38 -80 72 -60 72 -2 c 258
 72 700 l 257
 286 700 l 257
 286 -52 l 258
 286 -194 166 -244 32 -244 c 256
 -54 -244 -132 -214 -180 -186 c 257
 -74 -48 l 257
EndSplineSet
EndChar

StartChar: t
Encoding: 116 116 26
Width: 341
VWidth: 0
Flags: HMW
LayerCount: 2
Fore
SplineSet
5 460 m 257
 336 460 l 257
 336 320 l 257
 5 320 l 257
 5 460 l 257
88 620 m 257
 254 620 l 257
 254 0 l 257
 88 0 l 257
 88 620 l 257
EndSplineSet
EndChar

StartChar: d
Encoding: 100 100 27
Width: 630
VWidth: 0
Flags: HMW
LayerCount: 2
Fore
SplineSet
404 780 m 257
 578 780 l 257
 578 0 l 257
 404 0 l 257
 404 780 l 257
31 230 m 256
 31 388 138 470 246 470 c 256
 361 470 448 379 448 230 c 256
 448 81 361 -10 246 -10 c 256
 138 -10 31 72 31 230 c 256
214 230 m 256
 214 168 258 126 310 126 c 256
 356 126 404 164 404 230 c 256
 404 296 356 334 310 334 c 256
 258 334 214 292 214 230 c 256
EndSplineSet
EndChar

StartChar: l
Encoding: 108 108 28
Width: 282
VWidth: 0
Flags: HMW
LayerCount: 2
Fore
SplineSet
55 780 m 257
 228 780 l 257
 228 0 l 257
 55 0 l 257
 55 780 l 257
EndSplineSet
EndChar

StartChar: i
Encoding: 105 105 29
Width: 281
VWidth: 0
Flags: HMW
LayerCount: 2
Fore
SplineSet
42 627 m 256
 42 681 86 717 140 717 c 256
 194 717 238 681 238 627 c 256
 238 573 194 537 140 537 c 256
 86 537 42 573 42 627 c 256
56 460 m 257
 224 460 l 257
 224 0 l 257
 56 0 l 257
 56 460 l 257
EndSplineSet
EndChar

StartChar: r
Encoding: 114 114 30
Width: 432
VWidth: 0
Flags: HMW
LayerCount: 2
Fore
SplineSet
224 460 m 257
 224 0 l 257
 55 0 l 257
 55 460 l 257
 224 460 l 257
355 282 m 257
 341 298 323 310 297 310 c 256
 257 310 224 277 224 211 c 257
 188 280 l 257
 188 389 264 472 346 472 c 256
 379 472 414 454 428 432 c 257
 355 282 l 257
EndSplineSet
EndChar

StartChar: c
Encoding: 99 99 31
Width: 498
VWidth: 0
Flags: HMW
LayerCount: 2
Fore
SplineSet
208 230 m 256
 208 162 258 124 320 124 c 256
 370 124 418 144 448 188 c 257
 448 26 l 257
 416 4 376 -10 304 -10 c 256
 144 -10 30 82 30 230 c 256
 30 378 144 470 304 470 c 256
 376 470 416 454 448 436 c 257
 448 273 l 257
 418 317 362 336 320 336 c 256
 258 336 208 290 208 230 c 256
EndSplineSet
EndChar

StartChar: b
Encoding: 98 98 32
Width: 630
VWidth: 0
Flags: HMW
LayerCount: 2
Fore
SplineSet
228 780 m 257
 228 0 l 257
 54 0 l 257
 54 780 l 257
 228 780 l 257
600 230 m 256
 600 72 492 -10 384 -10 c 256
 269 -10 183 81 183 230 c 256
 183 379 269 470 384 470 c 256
 492 470 600 388 600 230 c 256
418 230 m 256
 418 292 374 334 322 334 c 256
 276 334 228 296 228 230 c 256
 228 164 276 126 322 126 c 256
 374 126 418 168 418 230 c 256
EndSplineSet
EndChar

StartChar: p
Encoding: 112 112 33
Width: 630
VWidth: 0
Flags: HMW
LayerCount: 2
Fore
SplineSet
228 -220 m 257
 54 -220 l 257
 54 460 l 257
 228 460 l 257
 228 -220 l 257
600 230 m 256
 600 64 492 -18 384 -18 c 256
 260 -18 192 81 192 230 c 256
 192 379 260 478 384 478 c 256
 492 478 600 396 600 230 c 256
418 230 m 256
 418 292 374 326 322 326 c 256
 276 326 228 296 228 230 c 256
 228 164 276 134 322 134 c 256
 374 134 418 168 418 230 c 256
EndSplineSet
EndChar

StartChar: q
Encoding: 113 113 34
Width: 630
VWidth: 0
Flags: HMW
LayerCount: 2
Fore
SplineSet
404 -220 m 257
 404 460 l 257
 578 460 l 257
 578 -220 l 257
 404 -220 l 257
31 230 m 256
 31 396 138 478 246 478 c 256
 370 478 440 379 440 230 c 256
 440 81 370 -18 246 -18 c 256
 138 -18 31 64 31 230 c 256
214 230 m 256
 214 168 258 134 310 134 c 256
 356 134 404 164 404 230 c 256
 404 296 356 326 310 326 c 256
 258 326 214 292 214 230 c 256
EndSplineSet
EndChar

StartChar: h
Encoding: 104 104 35
Width: 581
VWidth: 0
Flags: HMW
LayerCount: 2
Fore
SplineSet
228 780 m 257
 228 0 l 257
 55 0 l 257
 55 780 l 257
 228 780 l 257
354 280 m 258
 354 328 341 355 296 355 c 256
 254 355 228 330 228 280 c 257
 202 280 l 257
 202 389 250 479 370 479 c 256
 490 479 528 416 528 306 c 258
 528 0 l 257
 354 0 l 257
 354 280 l 258
EndSplineSet
EndChar

StartChar: n
Encoding: 110 110 36
Width: 590
VWidth: 0
Flags: HMW
LayerCount: 2
Fore
SplineSet
228 460 m 257
 228 0 l 257
 55 0 l 257
 55 460 l 257
 228 460 l 257
354 280 m 258
 354 328 341 355 296 355 c 256
 254 355 228 330 228 280 c 257
 202 272 l 257
 202 381 250 470 370 470 c 256
 490 470 536 408 536 298 c 258
 536 0 l 257
 354 0 l 257
 354 280 l 258
EndSplineSet
EndChar

StartChar: m
Encoding: 109 109 37
Width: 832
VWidth: 0
Flags: HMW
LayerCount: 2
Fore
SplineSet
326 280 m 258
 326 328 312 355 276 355 c 256
 242 355 220 330 220 280 c 257
 194 272 l 257
 194 381 243 470 355 470 c 256
 467 470 499 416 499 306 c 258
 499 0 l 257
 326 0 l 257
 326 280 l 258
220 460 m 257
 220 0 l 257
 55 0 l 257
 55 460 l 257
 220 460 l 257
778 298 m 258
 778 0 l 257
 605 0 l 257
 605 280 l 258
 605 328 590 355 554 355 c 256
 520 355 499 330 499 280 c 257
 446 272 l 257
 446 381 522 470 634 470 c 256
 746 470 778 408 778 298 c 258
EndSplineSet
EndChar

StartChar: k
Encoding: 107 107 38
Width: 618
VWidth: 0
Flags: HMW
LayerCount: 2
Fore
SplineSet
54 780 m 257
 219 780 l 257
 219 0 l 257
 54 0 l 257
 54 780 l 257
386 460 m 257
 590 460 l 257
 394 270 l 257
 610 0 l 257
 409 0 l 257
 190 270 l 257
 386 460 l 257
EndSplineSet
EndChar

StartChar: u
Encoding: 117 117 39
Width: 590
VWidth: 0
Flags: HMW
LayerCount: 2
Fore
SplineSet
362 0 m 257
 362 460 l 257
 536 460 l 257
 536 0 l 257
 362 0 l 257
236 180 m 258
 236 132 249 105 294 105 c 256
 336 105 362 130 362 180 c 257
 388 188 l 257
 388 79 341 -10 221 -10 c 256
 101 -10 55 52 55 162 c 258
 55 460 l 257
 236 460 l 257
 236 180 l 258
EndSplineSet
EndChar

StartChar: e
Encoding: 101 101 40
Width: 586
VWidth: 0
Flags: HMW
LayerCount: 2
Fore
SplineSet
136 194 m 257
 136 286 l 257
 376 286 l 257
 367 332 343 354 296 354 c 256
 238 354 202 319 202 252 c 257
 200 230 l 257
 200 145 250 112 304 112 c 256
 350 112 381 128 397 162 c 257
 549 126 l 257
 508 45 436 -10 306 -10 c 256
 134 -10 34 91 34 230 c 256
 34 247 35 264 38 280 c 256
 57 393 150 470 300 470 c 256
 456 470 550 383 550 238 c 256
 550 230 550 212 548 194 c 257
 136 194 l 257
EndSplineSet
EndChar

StartChar: g
Encoding: 103 103 41
Width: 622
VWidth: 0
Flags: HMW
LayerCount: 2
Fore
SplineSet
41 -34 m 257
 208 -34 l 257
 214 -88 250 -106 300 -106 c 256
 362 -106 404 -66 404 10 c 258
 404 460 l 257
 569 460 l 257
 569 10 l 258
 569 -174 456 -242 308 -242 c 256
 124 -242 55 -157 41 -34 c 257
31 238 m 256
 31 396 138 470 246 470 c 256
 361 470 448 387 448 238 c 256
 448 89 361 6 246 6 c 256
 138 6 31 80 31 238 c 256
214 238 m 256
 214 176 258 142 310 142 c 256
 356 142 404 172 404 238 c 256
 404 304 356 334 310 334 c 256
 258 334 214 300 214 238 c 256
EndSplineSet
EndChar

StartChar: f
Encoding: 102 102 42
Width: 361
VWidth: 0
Flags: HMW
LayerCount: 2
Fore
SplineSet
12 460 m 257
 351 460 l 257
 351 320 l 257
 12 320 l 257
 12 460 l 257
332 620 m 257
 318 636 304 645 286 645 c 256
 256 645 238 626 238 584 c 258
 238 0 l 257
 73 0 l 257
 73 630 l 258
 73 730 134 798 258 798 c 256
 334 798 374 764 398 744 c 257
 332 620 l 257
EndSplineSet
EndChar

StartChar: s
Encoding: 115 115 43
Width: 469
VWidth: 0
Flags: HMW
LayerCount: 2
Fore
SplineSet
81 178 m 257
 163.5 119.5 218 104 243.5 104 c 256
 266.5 104 278 114.5 278 131 c 256
 278 159 233.5 171 182 189 c 256
 116 212.5 52.5 248 52.5 337 c 256
 52.5 416 125 470 230.5 470 c 256
 311.5 470 378.5 443 435.5 407.5 c 257
 384 294.5 l 257
 339 331 286.5 354 249.5 354 c 256
 219.5 354 209.5 343 209.5 330.5 c 256
 209.5 301.5 261 294 320.5 271.5 c 256
 385.5 247 447.5 217.5 447.5 130 c 256
 447.5 28 382 -22 267.5 -22 c 256
 167 -22 86 11 17 62.5 c 257
 81 178 l 257
EndSplineSet
EndChar

StartChar: y
Encoding: 121 121 44
Width: 545
VWidth: 0
Flags: HMW
LayerCount: 2
Fore
SplineSet
558 460 m 257
 258 -220 l 257
 86 -220 l 257
 194 28 l 257
 -12 460 l 257
 176 460 l 257
 326 88 l 257
 234 88 l 257
 382 460 l 257
 558 460 l 257
EndSplineSet
EndChar

StartChar: w
Encoding: 119 119 45
Width: 785
VWidth: 0
Flags: HMW
LayerCount: 2
Fore
SplineSet
-12 460 m 257
 168 460 l 257
 257.856 243.681 l 257
 392 495 l 257
 527.978 243.279 l 257
 618 460 l 257
 796 460 l 257
 548 -26 l 257
 392.162 228.703 l 257
 238 -26 l 257
 -12 460 l 257
EndSplineSet
EndChar

StartChar: v
Encoding: 118 118 46
Width: 553
VWidth: 0
Flags: HMW
LayerCount: 2
Fore
SplineSet
-4 460 m 257
 180 460 l 257
 277 226 l 257
 374 460 l 257
 558 460 l 257
 277 -60 l 257
 -4 460 l 257
EndSplineSet
EndChar

StartChar: x
Encoding: 120 120 47
Width: 566
VWidth: 0
Flags: HMW
LayerCount: 2
Fore
SplineSet
364 460 m 257
 556 460 l 257
 374 236 l 257
 566 0 l 257
 374 0 l 257
 286 122 l 257
 200 0 l 257
 0 0 l 257
 196 236 l 257
 10 460 l 257
 210 460 l 257
 286 352 l 257
 364 460 l 257
EndSplineSet
EndChar

StartChar: z
Encoding: 122 122 48
Width: 541
VWidth: 0
Flags: HMW
LayerCount: 2
Fore
SplineSet
243 304 m 257
 62 304 l 257
 62 460 l 257
 526 460 l 257
 314 156 l 257
 490 156 l 257
 490 0 l 257
 15 0 l 257
 243 304 l 257
EndSplineSet
EndChar

StartChar: j
Encoding: 106 106 49
Width: 278
VWidth: 0
Flags: HMW
LayerCount: 2
Fore
SplineSet
40 627 m 256
 40 681 84 717 138 717 c 256
 192 717 236 681 236 627 c 256
 236 573 192 537 138 537 c 256
 84 537 40 573 40 627 c 256
-38 -66 m 257
 -24 -82 -10 -91 8 -91 c 256
 38 -91 56 -72 56 -30 c 258
 56 460 l 257
 221 460 l 257
 221 -76 l 258
 221 -176 160 -244 36 -244 c 256
 -40 -244 -80 -210 -104 -190 c 257
 -38 -66 l 257
EndSplineSet
EndChar

StartChar: P
Encoding: 80 80 50
Width: 645
VWidth: 0
Flags: HMW
LayerCount: 2
Fore
SplineSet
72 700 m 257
 266 700 l 257
 266 0 l 257
 72 0 l 257
 72 700 l 257
196 542 m 257
 196 700 l 257
 331 700 l 258
 523 700 614 612 614 466 c 256
 614 320 523 231 331 231 c 258
 196 231 l 257
 196 388 l 257
 331 388 l 258
 393 388 427 416 427 466 c 256
 427 516 393 542 331 542 c 258
 196 542 l 257
EndSplineSet
EndChar

StartChar: U
Encoding: 85 85 51
Width: 723
VWidth: 0
Flags: HMW
LayerCount: 2
Fore
SplineSet
66 700 m 257
 262 700 l 257
 262 246 l 258
 262 182 294 139 362 139 c 256
 430 139 462 182 462 246 c 258
 462 700 l 257
 656 700 l 257
 656 230 l 258
 656 42 524 -34 362 -34 c 256
 200 -34 66 42 66 230 c 258
 66 700 l 257
EndSplineSet
EndChar

StartChar: S
Encoding: 83 83 52
Width: 648
VWidth: 0
Flags: HMW
LayerCount: 2
Fore
SplineSet
166 258 m 257
 216 178 262 142 332 142 c 256
 380 142 406 158 406 196 c 256
 406 246 348 259 268 291 c 256
 200 319 74 373 74 515 c 256
 74 637 180 718 334 718 c 256
 496 718 574 634 602 563 c 257
 457 482 l 257
 427 532 390 556 343 556 c 256
 301 556 273 537 273 509 c 256
 273 467 351 448 433 418 c 256
 538 382 612 316 612 198 c 256
 612 48 500 -26 328 -26 c 256
 196 -26 76 48 32 163 c 257
 166 258 l 257
EndSplineSet
EndChar

StartChar: at
Encoding: 64 64 53
Width: 770
VWidth: 0
Flags: HMW
LayerCount: 2
Fore
SplineSet
331 320 m 256
 331 280 345 258 365 258 c 256
 395 258 426 305 426 362 c 256
 426 406 413 425 391 425 c 256
 356 425 331 374 331 320 c 256
196 311 m 256
 196 450 279 530 355 530 c 256
 423 530 472 460 472 372 c 256
 472 233 406 152 328 152 c 256
 246 152 196 212 196 311 c 256
10 320 m 256
 10 548 183 727 415 727 c 256
 627 727 760 558 760 390 c 256
 760 212 658 137 558 137 c 256
 488 137 430 194 440 260 c 257
 426 302 l 257
 448 520 l 257
 578 520 l 257
 554 312 l 258
 553 305 552 293 552 285 c 256
 552 261 558 248 574 248 c 256
 596 248 632 274 632 390 c 256
 632 514 559 618 415 618 c 256
 243 618 138 494 138 320 c 256
 138 174 213 76 378 76 c 256
 448 76 507 90 563 117 c 257
 608 20 l 257
 548 -13 463 -32 365 -32 c 256
 135 -32 10 121 10 320 c 256
EndSplineSet
EndChar

StartChar: period
Encoding: 46 46 54
Width: 329
VWidth: 0
Flags: HMW
LayerCount: 2
Fore
SplineSet
58 76 m 256
 58 132 102 180 164 180 c 256
 226 180 271 132 271 76 c 256
 271 20 226 -27 164 -27 c 256
 102 -27 58 20 58 76 c 256
EndSplineSet
EndChar

StartChar: comma
Encoding: 44 44 55
Width: 328
VWidth: 0
Flags: HMW
LayerCount: 2
Fore
SplineSet
112 110 m 257
 285 77 l 257
 154 -173 l 257
 24 -149 l 257
 112 110 l 257
EndSplineSet
EndChar

StartChar: colon
Encoding: 58 58 56
Width: 329
VWidth: 0
Flags: HMW
LayerCount: 2
Fore
SplineSet
58 76 m 256
 58 132 102 180 164 180 c 256
 226 180 271 132 271 76 c 256
 271 20 226 -27 164 -27 c 256
 102 -27 58 20 58 76 c 256
58 448 m 256
 58 504 102 552 164 552 c 256
 226 552 271 504 271 448 c 256
 271 392 226 345 164 345 c 256
 102 345 58 392 58 448 c 256
EndSplineSet
EndChar

StartChar: semicolon
Encoding: 59 59 57
Width: 412
VWidth: 0
Flags: HMW
LayerCount: 2
Fore
SplineSet
116 440 m 256
 116 496 161 544 223 544 c 256
 285 544 330 496 330 440 c 256
 330 384 285 336 223 336 c 256
 161 336 116 384 116 440 c 256
140 110 m 257
 314 77 l 257
 183 -173 l 257
 52 -149 l 257
 140 110 l 257
EndSplineSet
EndChar

StartChar: quotedbl
Encoding: 34 34 58
Width: 534
VWidth: 0
Flags: HMW
LayerCount: 2
Fore
SplineSet
98 700 m 257
 278 700 l 257
 168 376 l 257
 56 376 l 257
 98 700 l 257
318 700 m 257
 498 700 l 257
 388 376 l 257
 276 376 l 257
 318 700 l 257
EndSplineSet
EndChar

StartChar: exclam
Encoding: 33 33 59
Width: 356
VWidth: 0
Flags: HMW
LayerCount: 2
Fore
SplineSet
72 700 m 257
 286 700 l 257
 249 240 l 257
 108 240 l 257
 72 700 l 257
72 68 m 256
 72 124 116 164 178 164 c 256
 240 164 284 124 284 68 c 256
 284 12 240 -27 178 -27 c 256
 116 -27 72 12 72 68 c 256
EndSplineSet
EndChar

StartChar: quotesingle
Encoding: 39 39 60
Width: 313
VWidth: 0
Flags: HMW
LayerCount: 2
Fore
SplineSet
98 700 m 257
 278 700 l 257
 168 376 l 257
 56 376 l 257
 98 700 l 257
EndSplineSet
EndChar

StartChar: numbersign
Encoding: 35 35 61
Width: 686
VWidth: 0
Flags: HMW
LayerCount: 2
Fore
SplineSet
75 404 m 257
 75 542 l 257
 651 542 l 257
 651 404 l 257
 492 404 l 256
 458 412 l 256
 250 412 l 256
 220 404 l 256
 75 404 l 257
35 164 m 257
 35 302 l 257
 179 302 l 256
 216 294 l 256
 455 294 l 256
 488 302 l 256
 611 302 l 257
 611 164 l 257
 35 164 l 257
480 700 m 257
 628 700 l 257
 458 0 l 257
 310 0 l 257
 364 223 l 256
 378 251 l 256
 428 454 l 256
 428 490 l 256
 480 700 l 257
228 700 m 257
 377 700 l 257
 326 490 l 256
 308 453 l 256
 260 254 l 256
 262 226 l 256
 207 0 l 257
 58 0 l 257
 228 700 l 257
EndSplineSet
EndChar

StartChar: hyphen
Encoding: 45 45 62
Width: 226
VWidth: 0
Flags: HMW
LayerCount: 2
Fore
SplineSet
5 164 m 257
 5 312 l 257
 222 312 l 257
 222 164 l 257
 5 164 l 257
EndSplineSet
EndChar

StartChar: dollar
Encoding: 36 36 63
Width: 634
VWidth: 0
Flags: HMW
LayerCount: 2
Fore
SplineSet
263 818 m 257
 402 818 l 257
 394 628 l 257
 271 628 l 257
 263 818 l 257
271 66 m 257
 394 66 l 257
 402 -112 l 257
 263 -112 l 257
 271 66 l 257
452 482 m 257
 422 540 380 572 336 572 c 256
 288 572 268 546 268 518 c 256
 268 464 343 451 428 419 c 256
 530 383 606 316 606 198 c 256
 606 62 494 -10 322 -10 c 256
 190 -10 70 73 26 163 c 257
 160 258 l 257
 210 178 256 142 326 142 c 256
 378 142 401 160 401 198 c 256
 401 244 344 260 262 292 c 256
 192 318 69 378 69 516 c 256
 69 620 176 710 330 710 c 256
 484 710 550 640 596 563 c 257
 452 482 l 257
EndSplineSet
EndChar

StartChar: bar
Encoding: 124 124 64
Width: 376
VWidth: 0
Flags: HMW
LayerCount: 2
Fore
SplineSet
100 785 m 257
 276 785 l 257
 276 -215 l 257
 100 -215 l 257
 100 785 l 257
EndSplineSet
EndChar

StartChar: zero
Encoding: 48 48 65
Width: 681
VWidth: 0
Flags: HMW
LayerCount: 2
Fore
SplineSet
226 350 m 256
 226 228 272 151 340 151 c 256
 408 151 455 228 455 350 c 256
 455 472 408 549 340 549 c 256
 272 549 226 472 226 350 c 256
40 350 m 256
 40 584 162 714 340 714 c 256
 526 714 641 584 641 350 c 256
 641 116 526 -14 340 -14 c 256
 162 -14 40 116 40 350 c 256
EndSplineSet
Substitution2: "Tabular Numbers lookup" uniFF10
EndChar

StartChar: one
Encoding: 49 49 66
Width: 527
VWidth: 0
Flags: HMW
LayerCount: 2
Fore
SplineSet
64 478 m 257
 64 644 l 257
 430 714 l 257
 430 0 l 257
 244 0 l 257
 244 520 l 257
 64 478 l 257
EndSplineSet
Substitution2: "Tabular Numbers lookup" uniFF11
EndChar

StartChar: two
Encoding: 50 50 67
Width: 682
VWidth: 0
Flags: HMW
LayerCount: 2
Fore
SplineSet
20 0 m 257
 326 314 l 258
 385 378 422 416 422 472 c 256
 422 512 398 550 340 550 c 256
 282 550 242 502 242 436 c 257
 52 436 l 257
 52 585 152 715 346 715 c 256
 526 715 624 598 624 484 c 256
 624 408 582 348 520 298 c 258
 376 178 l 257
 644 178 l 257
 644 0 l 257
 20 0 l 257
EndSplineSet
Substitution2: "Tabular Numbers lookup" uniFF12
EndChar

StartChar: four
Encoding: 52 52 68
Width: 733
VWidth: 0
Flags: HMW
LayerCount: 2
Fore
SplineSet
12 120 m 257
 424 700 l 257
 577 700 l 257
 577 0 l 257
 374 0 l 257
 374 178 l 257
 398 190 l 257
 398 438 l 257
 261 256 l 257
 510 256 l 257
 527 284 l 257
 687 284 l 257
 687 120 l 257
 12 120 l 257
EndSplineSet
Substitution2: "Tabular Numbers lookup" uniFF14
EndChar

StartChar: slash
Encoding: 47 47 69
Width: 636
VWidth: 0
Flags: HMW
LayerCount: 2
Fore
SplineSet
456 700 m 257
 622 700 l 257
 188 -150 l 257
 15 -150 l 257
 456 700 l 257
EndSplineSet
EndChar

StartChar: backslash
Encoding: 92 92 70
Width: 555
VWidth: 0
Flags: HMW
LayerCount: 2
Fore
SplineSet
15 700 m 257
 181 700 l 257
 540 0 l 257
 374 0 l 257
 15 700 l 257
EndSplineSet
EndChar

StartChar: eight
Encoding: 56 56 71
Width: 651
VWidth: 0
Flags: HMW
LayerCount: 2
Fore
SplineSet
76 531 m 256
 76 655 192 718 326 718 c 256
 460 718 576 655 576 531 c 256
 576 397 441 338 326 338 c 256
 211 338 76 397 76 531 c 256
258 512 m 256
 258 470 286 442 326 442 c 256
 366 442 394 470 394 512 c 256
 394 554 366 582 326 582 c 256
 286 582 258 554 258 512 c 256
51 190 m 256
 51 344 211 398 326 398 c 256
 441 398 601 344 601 190 c 256
 601 56 468 -18 326 -18 c 256
 184 -18 51 56 51 190 c 256
246 220 m 256
 246 166 280 138 326 138 c 256
 372 138 406 166 406 220 c 256
 406 264 372 298 326 298 c 256
 280 298 246 264 246 220 c 256
EndSplineSet
Substitution2: "Tabular Numbers lookup" uniFF18
EndChar

StartChar: nine
Encoding: 57 57 72
Width: 697
VWidth: 0
Flags: HMW
LayerCount: 2
Fore
SplineSet
454 450 m 256
 454 514 409 554 349 554 c 256
 289 554 244 514 244 450 c 256
 244 386 289 344 349 344 c 256
 409 344 454 386 454 450 c 256
364 4 m 257
 117 4 l 257
 346 246 l 257
 390 267 l 257
 349 230 311 227 259 227 c 256
 157 227 50 294 50 450 c 256
 50 630 185 718 349 718 c 256
 513 718 648 630 648 450 c 256
 648 368 607 302 555 240 c 258
 364 4 l 257
EndSplineSet
Substitution2: "Tabular Numbers lookup" uniFF19
EndChar

StartChar: three
Encoding: 51 51 73
Width: 643
VWidth: 0
Flags: HMW
LayerCount: 2
Fore
SplineSet
282 336 m 257
 282 420 l 257
 356 420 407 458 407 504 c 256
 407 538 384 562 336 562 c 256
 288 562 252 530 252 486 c 257
 74 486 l 257
 74 615 176 714 336 714 c 256
 505 714 599 629 599 518 c 256
 599 390 458 336 282 336 c 257
328 -18 m 256
 148 -18 44 105 44 234 c 257
 236 234 l 257
 236 164 284 135 336 135 c 256
 388 135 427 156 427 212 c 256
 427 262 388 300 282 300 c 257
 282 396 l 257
 482 396 619 337 619 194 c 256
 619 71 514 -18 328 -18 c 256
EndSplineSet
Substitution2: "Tabular Numbers lookup" uniFF13
EndChar

StartChar: five
Encoding: 53 53 74
Width: 669
VWidth: 0
Flags: HMW
LayerCount: 2
Fore
SplineSet
630 222 m 256
 630 54 471 -14 336 -14 c 256
 207 -14 116 20 46 60 c 257
 110 226 l 257
 174 182 244 164 288 164 c 256
 368 164 416 186 416 246 c 256
 416 306 350 325 288 325 c 256
 238 325 155 318 84 286 c 257
 184 700 l 257
 612 700 l 257
 612 532 l 257
 326 532 l 257
 287 424 l 257
 326 443 368 449 416 449 c 256
 524 449 630 370 630 222 c 256
EndSplineSet
Substitution2: "Tabular Numbers lookup" uniFF15
EndChar

StartChar: six
Encoding: 54 54 75
Width: 697
VWidth: 0
Flags: HMW
LayerCount: 2
Fore
SplineSet
244 250 m 256
 244 186 289 146 349 146 c 256
 409 146 454 186 454 250 c 256
 454 314 409 356 349 356 c 256
 289 356 244 314 244 250 c 256
334 696 m 257
 581 696 l 257
 352 454 l 257
 308 433 l 257
 349 470 387 473 439 473 c 256
 541 473 648 406 648 250 c 256
 648 70 513 -18 349 -18 c 256
 185 -18 50 70 50 250 c 256
 50 332 91 398 143 460 c 258
 334 696 l 257
EndSplineSet
Substitution2: "Tabular Numbers lookup" uniFF16
EndChar

StartChar: seven
Encoding: 55 55 76
Width: 626
VWidth: 0
Flags: HMW
LayerCount: 2
Fore
SplineSet
30 518 m 257
 30 700 l 257
 626 700 l 257
 286 0 l 257
 76 0 l 257
 341 518 l 257
 30 518 l 257
EndSplineSet
Substitution2: "Tabular Numbers lookup" uniFF17
EndChar

StartChar: plus
Encoding: 43 43 77
Width: 692
VWidth: 0
Flags: HMW
LayerCount: 2
Fore
SplineSet
65 190 m 257
 65 356 l 257
 628 356 l 257
 628 190 l 257
 65 190 l 257
256 552 m 257
 436 552 l 257
 436 -6 l 257
 256 -6 l 257
 256 552 l 257
EndSplineSet
EndChar

StartChar: equal
Encoding: 61 61 78
Width: 629
VWidth: 0
Flags: HMW
LayerCount: 2
Fore
SplineSet
53 67 m 257
 53 215 l 257
 576 215 l 257
 576 67 l 257
 53 67 l 257
53 290 m 257
 53 438 l 257
 576 438 l 257
 576 290 l 257
 53 290 l 257
EndSplineSet
EndChar

StartChar: percent
Encoding: 37 37 79
Width: 970
VWidth: 0
Flags: HMW
LayerCount: 2
Fore
SplineSet
18 530 m 256
 18 636 106 722 218 722 c 256
 330 722 416 636 416 530 c 256
 416 424 330 338 218 338 c 256
 106 338 18 424 18 530 c 256
160 530 m 256
 160 498 185 472 218 472 c 256
 251 472 275 498 275 530 c 256
 275 562 251 587 218 587 c 256
 185 587 160 562 160 530 c 256
554 171 m 256
 554 277 641 364 753 364 c 256
 865 364 952 277 952 171 c 256
 952 65 865 -22 753 -22 c 256
 641 -22 554 65 554 171 c 256
696 171 m 256
 696 139 720 114 753 114 c 256
 786 114 810 139 810 171 c 256
 810 203 786 228 753 228 c 256
 720 228 696 203 696 171 c 256
676 700 m 257
 858 700 l 257
 294 0 l 257
 113 0 l 257
 676 700 l 257
EndSplineSet
EndChar

StartChar: ampersand
Encoding: 38 38 80
Width: 775
VWidth: 0
Flags: HMW
LayerCount: 2
Fore
SplineSet
223 368 m 258
 173 424 129 472 129 540 c 256
 129 626 214 720 358 720 c 256
 496 720 570 630 570 546 c 256
 570 446 508 416 390 336 c 256
 320 289 220 281 220 205 c 256
 220 165 250 130 314 130 c 256
 424 130 534 226 610 348 c 257
 722 260 l 257
 640 136 494 -14 290 -14 c 256
 150 -14 40 61 40 189 c 256
 40 353 232 389 303 421 c 256
 378 455 416 494 416 528 c 256
 416 554 392 583 356 583 c 256
 313 583 294 554 294 528 c 256
 294 490 332 454 390 392 c 258
 760 0 l 257
 563 0 l 257
 223 368 l 258
EndSplineSet
EndChar

StartChar: question
Encoding: 63 63 81
Width: 648
VWidth: 0
Flags: HMW
LayerCount: 2
Fore
SplineSet
422 500 m 256
 422 550 386 578 320 578 c 256
 262 578 198 548 158 490 c 257
 44 588 l 257
 122 674 211 722 330 722 c 256
 464 722 596 644 596 500 c 256
 596 374.485 484.613 306.816 381.082 283.478 c 257
 377 210 l 257
 236 210 l 257
 216 390 l 257
 250 390 l 258
 370 390 422 456 422 500 c 256
201 64 m 256
 201 112 245 156 307 156 c 256
 369 156 413 112 413 64 c 256
 413 16 369 -27 307 -27 c 256
 245 -27 201 16 201 64 c 256
EndSplineSet
EndChar

StartChar: parenleft
Encoding: 40 40 82
Width: 350
VWidth: 0
Flags: HMW
LayerCount: 2
Fore
SplineSet
185 780 m 257
 341 780 l 257
 271 630 229 460 229 290 c 256
 229 120 271 -50 341 -200 c 257
 185 -200 l 257
 105 -50 62 120 62 290 c 256
 62 460 105 630 185 780 c 257
EndSplineSet
EndChar

StartChar: parenright
Encoding: 41 41 83
Width: 350
VWidth: 0
Flags: HMW
LayerCount: 2
Fore
SplineSet
166 -200 m 257
 10 -200 l 257
 80 -50 122 120 122 290 c 256
 122 460 80 630 10 780 c 257
 166 780 l 257
 246 630 289 460 289 290 c 256
 289 120 246 -50 166 -200 c 257
EndSplineSet
EndChar

StartChar: asterisk
Encoding: 42 42 84
Width: 592
VWidth: 0
Flags: HMW
LayerCount: 2
Fore
SplineSet
506 605 m 257
 556 454 l 257
 309 412 l 257
 283 492 l 257
 506 605 l 257
506 299 m 257
 377 206 l 257
 263 428 l 257
 329 476 l 257
 506 299 l 257
215 206 m 257
 86 299 l 257
 263 476 l 257
 329 428 l 257
 215 206 l 257
36 454 m 257
 86 605 l 257
 309 492 l 257
 283 412 l 257
 36 454 l 257
216 700 m 257
 376 700 l 257
 338 452 l 257
 254 452 l 257
 216 700 l 257
EndSplineSet
EndChar

StartChar: less
Encoding: 60 60 85
Width: 640
VWidth: 0
Flags: HMW
LayerCount: 2
Fore
SplineSet
306 270 m 257
 575 164 l 257
 575 -5 l 257
 65 206 l 257
 65 324 l 257
 575 536 l 257
 575 368 l 257
 306 270 l 257
EndSplineSet
EndChar

StartChar: greater
Encoding: 62 62 86
Width: 640
VWidth: 0
Flags: HMW
LayerCount: 2
Fore
SplineSet
334 262 m 257
 65 368 l 257
 65 536 l 257
 575 324 l 257
 575 206 l 257
 65 -5 l 257
 65 164 l 257
 334 262 l 257
EndSplineSet
EndChar

StartChar: bracketleft
Encoding: 91 91 87
Width: 381
VWidth: 0
Flags: HMW
LayerCount: 2
Fore
SplineSet
260 632 m 257
 260 -72 l 257
 361 -72 l 257
 361 -220 l 257
 88 -220 l 257
 88 780 l 257
 361 780 l 257
 361 632 l 257
 260 632 l 257
EndSplineSet
EndChar

StartChar: bracketright
Encoding: 93 93 88
Width: 381
VWidth: 0
Flags: HMW
LayerCount: 2
Fore
SplineSet
121 -72 m 257
 121 632 l 257
 20 632 l 257
 20 780 l 257
 294 780 l 257
 294 -220 l 257
 20 -220 l 257
 20 -72 l 257
 121 -72 l 257
EndSplineSet
EndChar

StartChar: asciicircum
Encoding: 94 94 89
Width: 510
VWidth: 0
Flags: HMW
LayerCount: 2
Fore
SplineSet
255 568 m 257
 186 444 l 257
 32 444 l 257
 202 710 l 257
 308 710 l 257
 478 444 l 257
 324 444 l 257
 255 568 l 257
EndSplineSet
EndChar

StartChar: underscore
Encoding: 95 95 90
Width: 540
VWidth: 0
Flags: HMW
LayerCount: 2
Fore
SplineSet
0 -160 m 257
 0 -52 l 257
 540 -52 l 257
 540 -160 l 257
 0 -160 l 257
EndSplineSet
EndChar

StartChar: grave
Encoding: 96 96 91
Width: 375
VWidth: 0
Flags: HMW
LayerCount: 2
Fore
SplineSet
46 652 m 257
 174 708 l 257
 324 548 l 257
 226 502 l 257
 46 652 l 257
EndSplineSet
EndChar

StartChar: braceleft
Encoding: 123 123 92
Width: 424
VWidth: 0
Flags: HMW
LayerCount: 2
Fore
SplineSet
292 595 m 258
 292 490 l 258
 292 401 288 280 138 280 c 257
 138 300 l 257
 288 300 292 179 292 90 c 258
 292 -15 l 258
 292 -41 310 -65 340 -65 c 258
 374 -65 l 257
 374 -200 l 257
 274 -200 l 258
 181 -200 98 -159 98 -60 c 258
 98 118 l 258
 98 194 80 218 34 228 c 257
 34 352 l 257
 80 362 98 386 98 462 c 258
 98 640 l 258
 98 739 181 780 274 780 c 258
 374 780 l 257
 374 645 l 257
 340 645 l 258
 310 645 292 621 292 595 c 258
EndSplineSet
EndChar

StartChar: braceright
Encoding: 125 125 93
Width: 424
VWidth: 0
Flags: HMW
LayerCount: 2
Fore
SplineSet
134 -15 m 258
 134 90 l 258
 134 179 138 300 288 300 c 257
 288 280 l 257
 138 280 134 401 134 490 c 258
 134 595 l 258
 134 621 116 645 86 645 c 258
 52 645 l 257
 52 780 l 257
 152 780 l 258
 245 780 328 739 328 640 c 258
 328 462 l 258
 328 386 346 362 392 352 c 257
 392 228 l 257
 346 218 328 194 328 118 c 258
 328 -60 l 258
 328 -159 245 -200 152 -200 c 258
 52 -200 l 257
 52 -65 l 257
 86 -65 l 258
 116 -65 134 -41 134 -15 c 258
EndSplineSet
EndChar

StartChar: asciitilde
Encoding: 126 126 94
Width: 575
VWidth: 0
Flags: HMW
LayerCount: 2
Fore
SplineSet
160 160 m 257
 28 164 l 257
 26 171 24 179 24 188 c 256
 24 226 32 260 58 292 c 256
 86 326 120 352 194 352 c 256
 242 352 270 334 320 302 c 256
 352 282 372 267 390 267 c 256
 410 267 420 285 420 304 c 256
 420 316 416 330 412 340 c 257
 546 334 l 257
 548 326 550 316 550 306 c 256
 550 270 546 234 520 202 c 256
 494 168 462 148 402 148 c 256
 360 148 327 166 275 198 c 256
 243 218 218 233 193 233 c 256
 162 233 154 208 154 190 c 256
 154 174 157 168 160 160 c 257
EndSplineSet
EndChar

StartChar: exclamdown
Encoding: 161 161 95
Width: 356
VWidth: 0
Flags: HMW
LayerCount: 2
Fore
SplineSet
285 -225 m 257
 72 -225 l 257
 108 235 l 257
 249 235 l 257
 285 -225 l 257
284 407 m 256
 284 351 240 312 178 312 c 256
 116 312 72 351 72 407 c 256
 72 463 116 502 178 502 c 256
 240 502 284 463 284 407 c 256
EndSplineSet
EndChar

StartChar: cent
Encoding: 162 162 96
Width: 580
VWidth: 0
Flags: HMW
LayerCount: 2
Fore
SplineSet
224 38 m 257
 348 38 l 257
 360 -112 l 257
 211 -112 l 257
 224 38 l 257
218 230 m 256
 218 158 273 124 331 124 c 256
 389 124 430 153 459 190 c 257
 459 24 l 257
 427 2 378 -10 315 -10 c 256
 155 -10 40 83 40 230 c 256
 40 377 155 470 315 470 c 256
 378 470 427 457 459 436 c 257
 459 270 l 257
 430 307 389 336 331 336 c 256
 273 336 218 294 218 230 c 256
211 578 m 257
 360 578 l 257
 348 428 l 257
 224 428 l 257
 211 578 l 257
EndSplineSet
EndChar

StartChar: sterling
Encoding: 163 163 97
Width: 620
VWidth: 0
Flags: HMW
LayerCount: 2
Fore
SplineSet
67 370 m 257
 452 370 l 257
 452 262 l 257
 67 262 l 257
 67 370 l 257
430 463 m 257
 426 511 407 561 337 561 c 256
 293 561 256 540 256 488 c 256
 256 412 346 384 346 272 c 256
 346 166 210 70 136 50 c 257
 202 157 l 257
 546 157 l 257
 546 0 l 257
 48 0 l 257
 146 102 180 194 180 298 c 256
 180 392 76 410 76 522 c 256
 76 641 194 710 329 710 c 256
 487 710 581 608 586 520 c 257
 430 463 l 257
EndSplineSet
EndChar

StartChar: currency
Encoding: 164 164 98
Width: 575
VWidth: 0
Flags: HMW
LayerCount: 2
Fore
SplineSet
19 503 m 257
 86 569 l 257
 186 467 l 257
 122 402 l 257
 19 503 l 257
86 31 m 257
 19 97 l 257
 122 198 l 257
 186 133 l 257
 86 31 l 257
456 402 m 257
 390 467 l 257
 492 569 l 257
 556 503 l 257
 456 402 l 257
390 133 m 257
 456 198 l 257
 556 97 l 257
 492 31 l 257
 390 133 l 257
50 300 m 256
 50 439 153 540 288 540 c 256
 423 540 526 439 526 300 c 256
 526 161 423 60 288 60 c 256
 153 60 50 161 50 300 c 256
204 300 m 256
 204 248 238 216 288 216 c 256
 338 216 372 248 372 300 c 256
 372 352 338 384 288 384 c 256
 238 384 204 352 204 300 c 256
EndSplineSet
EndChar

StartChar: yen
Encoding: 165 165 99
Width: 695
VWidth: 0
Flags: HMW
LayerCount: 2
Fore
SplineSet
45 258 m 257
 45 365 l 257
 648 365 l 257
 648 258 l 257
 45 258 l 257
45 108 m 257
 45 215 l 257
 648 215 l 257
 648 108 l 257
 45 108 l 257
471 700 m 257
 694 700 l 257
 448 282 l 257
 448 0 l 257
 248 0 l 257
 248 278 l 257
 -1 700 l 257
 224 700 l 257
 346 456 l 257
 471 700 l 257
EndSplineSet
EndChar

StartChar: brokenbar
Encoding: 166 166 100
Width: 376
VWidth: 0
Flags: HMW
LayerCount: 2
Fore
SplineSet
100 695 m 257
 276 695 l 257
 276 422 l 257
 100 422 l 257
 100 695 l 257
276 278 m 257
 276 5 l 257
 100 5 l 257
 100 278 l 257
 276 278 l 257
EndSplineSet
EndChar

StartChar: section
Encoding: 167 167 101
Width: 627
VWidth: 0
Flags: HMW
LayerCount: 2
Fore
SplineSet
428 540 m 257
 398 568 349 588 320 588 c 256
 288 588 274 577 274 563 c 256
 274 540 317 537 372 523 c 256
 452 503 511 455 511 380 c 256
 511 276 397 226 286 226 c 257
 286 270 l 257
 320 278 358 297 358 338 c 256
 358 393 282 410 230 430 c 256
 174 452 111 490 111 575 c 256
 111 677 214 728 308 728 c 256
 390 728 470 694 501 656 c 257
 428 540 l 257
138 177 m 257
 198 129 265 114 297 114 c 256
 331 114 344 125 344 141 c 256
 344 167 304 174 248 188 c 256
 169 208 92 249 92 326 c 256
 92 426 212 480 326 480 c 257
 326 438 l 257
 290 426 253 410 253 369 c 256
 253 311 339 303 390 282 c 256
 455 255 516 213 516 130 c 256
 516 23 407 -26 308 -26 c 256
 190 -26 117 12 63 62 c 257
 138 177 l 257
EndSplineSet
EndChar

StartChar: dieresis
Encoding: 168 168 102
Width: 523
VWidth: 0
Flags: HMW
LayerCount: 2
Fore
SplineSet
292 624 m 256
 292 678 336 714 390 714 c 256
 444 714 488 678 488 624 c 256
 488 570 444 534 390 534 c 256
 336 534 292 570 292 624 c 256
36 624 m 256
 36 678 80 714 134 714 c 256
 188 714 232 678 232 624 c 256
 232 570 188 534 134 534 c 256
 80 534 36 570 36 624 c 256
EndSplineSet
EndChar

StartChar: copyright
Encoding: 169 169 103
Width: 800
VWidth: 0
Flags: HMW
LayerCount: 2
Fore
SplineSet
304 350 m 256
 304 278 357 240 421 240 c 256
 480 240 517 265 543 293 c 257
 543 170 l 257
 509 146 474 129 413 129 c 256
 273 129 176 218 176 350 c 256
 176 482 273 571 413 571 c 256
 474 571 509 554 543 530 c 257
 543 407 l 257
 517 435 480 460 421 460 c 256
 357 460 304 422 304 350 c 256
95 350 m 256
 95 172 227 40 400 40 c 256
 573 40 705 172 705 350 c 256
 705 528 573 660 400 660 c 256
 227 660 95 528 95 350 c 256
40 350 m 256
 40 559 196 710 400 710 c 256
 604 710 760 559 760 350 c 256
 760 141 604 -10 400 -10 c 256
 196 -10 40 141 40 350 c 256
EndSplineSet
EndChar

StartChar: registered
Encoding: 174 174 104
Width: 800
VWidth: 0
Flags: HMW
LayerCount: 2
Fore
SplineSet
386 319 m 257
 490 319 l 257
 599 150 l 257
 463 150 l 257
 386 319 l 257
248 570 m 257
 364 570 l 257
 364 150 l 257
 248 150 l 257
 248 570 l 257
322 472 m 257
 322 570 l 257
 412 570 l 258
 527 570 582 512 582 438 c 256
 582 356 527 297 412 297 c 258
 322 297 l 257
 322 386 l 257
 402 386 l 258
 439 386 460 400 460 430 c 256
 460 460 439 472 402 472 c 258
 322 472 l 257
95 350 m 256
 95 172 227 40 400 40 c 256
 573 40 705 172 705 350 c 256
 705 528 573 660 400 660 c 256
 227 660 95 528 95 350 c 256
40 350 m 256
 40 559 196 710 400 710 c 256
 604 710 760 559 760 350 c 256
 760 141 604 -10 400 -10 c 256
 196 -10 40 141 40 350 c 256
EndSplineSet
EndChar

StartChar: ordfeminine
Encoding: 170 170 105
Width: 280
VWidth: 0
Flags: HMW
LayerCount: 2
Fore
SplineSet
104 530 m 256
 104 516 116 509 132 509 c 256
 155 509 178 519 178 554 c 257
 186 525 l 257
 186 481 150 455 102 455 c 256
 52 455 17 481 17 526 c 256
 17 571 58 600 116 600 c 256
 148 600 183 589 194 578 c 257
 194 538 l 257
 178 550 163 556 138 556 c 256
 118 556 104 545 104 530 c 256
65 618 m 257
 37 680 l 257
 66 692 106 705 148 705 c 256
 213 705 260 679 260 630 c 258
 260 460 l 257
 178 460 l 257
 178 604 l 258
 178 623 165 638 140 638 c 256
 107 638 76 624 65 618 c 257
EndSplineSet
EndChar

StartChar: ordmasculine
Encoding: 186 186 106
Width: 278
VWidth: 0
Flags: HMW
LayerCount: 2
Fore
SplineSet
18 580 m 256
 18 653 75 700 153 700 c 256
 231 700 289 653 289 580 c 256
 289 507 231 460 153 460 c 256
 75 460 18 507 18 580 c 256
107 580 m 256
 107 548 128 530 153 530 c 256
 178 530 200 548 200 580 c 256
 200 612 178 630 153 630 c 256
 128 630 107 612 107 580 c 256
EndSplineSet
EndChar

StartChar: guillemotleft
Encoding: 171 171 107
Width: 550
VWidth: 0
Flags: HMW
LayerCount: 2
Fore
SplineSet
371 259 m 257
 521 65 l 257
 414 -4 l 257
 240 255 l 257
 414 514 l 257
 521 445 l 257
 371 259 l 257
154 259 m 257
 304 65 l 257
 198 -4 l 257
 24 255 l 257
 198 514 l 257
 304 445 l 257
 154 259 l 257
EndSplineSet
EndChar

StartChar: guillemotright
Encoding: 187 187 108
Width: 550
VWidth: 0
Flags: HMW
LayerCount: 2
Fore
SplineSet
180 251 m 257
 30 445 l 257
 136 514 l 257
 310 255 l 257
 136 -4 l 257
 30 65 l 257
 180 251 l 257
397 251 m 257
 246 445 l 257
 353 514 l 257
 526 255 l 257
 353 -4 l 257
 246 65 l 257
 397 251 l 257
EndSplineSet
EndChar

StartChar: uni00AD
Encoding: 173 173 109
Width: 210
VWidth: 0
Flags: HMW
LayerCount: 2
Fore
SplineSet
5 200 m 257
 5 275 l 257
 205 275 l 257
 205 200 l 257
 5 200 l 257
EndSplineSet
EndChar

StartChar: logicalnot
Encoding: 172 172 110
Width: 659
VWidth: 0
Flags: HMW
LayerCount: 2
Fore
SplineSet
65 264 m 257
 65 412 l 257
 594 412 l 257
 594 175 l 257
 479 175 l 257
 479 264 l 257
 65 264 l 257
EndSplineSet
EndChar

StartChar: macron
Encoding: 175 175 111
Width: 538
VWidth: 0
Flags: HMW
LayerCount: 2
Fore
SplineSet
80 564 m 257
 80 712 l 257
 458 712 l 257
 458 564 l 257
 80 564 l 257
EndSplineSet
EndChar

StartChar: degree
Encoding: 176 176 112
Width: 302
VWidth: 0
Flags: HMW
LayerCount: 2
Fore
SplineSet
16 596 m 256
 16 669 72 720 150 720 c 256
 228 720 286 669 286 596 c 256
 286 523 228 472 150 472 c 256
 72 472 16 523 16 596 c 256
100 596 m 256
 100 564 121 544 150 544 c 256
 179 544 201 564 201 596 c 256
 201 628 179 648 150 648 c 256
 121 648 100 628 100 596 c 256
EndSplineSet
EndChar

StartChar: plusminus
Encoding: 177 177 113
Width: 639
VWidth: 0
Flags: HMW
LayerCount: 2
Fore
SplineSet
65 8 m 257
 65 153 l 257
 574 153 l 257
 574 8 l 257
 65 8 l 257
65 329 m 257
 65 482 l 257
 574 482 l 257
 574 329 l 257
 65 329 l 257
232 620 m 257
 406 620 l 257
 406 190 l 257
 232 190 l 257
 232 620 l 257
EndSplineSet
EndChar

StartChar: uni00B2
Encoding: 178 178 114
Width: 427
VWidth: 0
Flags: HMW
LayerCount: 2
Fore
SplineSet
25 282 m 257
 209 470 l 258
 245 508 266 533 266 566 c 256
 266 590 251 612 216 612 c 256
 182 612 158 584 158 544 c 257
 44 544 l 257
 44 633 104 712 220 712 c 256
 328 712 386 641 386 573 c 256
 386 527 361 491 324 461 c 258
 238 388 l 257
 399 388 l 257
 399 282 l 257
 25 282 l 257
EndSplineSet
EndChar

StartChar: uni00B3
Encoding: 179 179 115
Width: 380
VWidth: 0
Flags: HMW
LayerCount: 2
Fore
SplineSet
158 482 m 257
 158 532 l 257
 202 532 234 556 234 584 c 256
 234 604 219 617 190 617 c 256
 160 617 140 600 140 572 c 257
 34 572 l 257
 34 649 95 708 191 708 c 256
 292 708 348 657 348 591 c 256
 348 515 264 482 158 482 c 257
186 269 m 256
 78 269 16 343 16 420 c 257
 130 420 l 257
 130 378 159 361 190 361 c 256
 221 361 246 372 246 406 c 256
 246 436 222 460 158 460 c 257
 158 517 l 257
 278 517 360 482 360 396 c 256
 360 322 298 269 186 269 c 256
EndSplineSet
EndChar

StartChar: acute
Encoding: 180 180 116
Width: 375
VWidth: 0
Flags: HMW
LayerCount: 2
Fore
SplineSet
324 652 m 257
 144 502 l 257
 46 548 l 257
 196 708 l 257
 324 652 l 257
EndSplineSet
EndChar

StartChar: mu
Encoding: 181 181 117
Width: 589
VWidth: 0
Flags: HMW
LayerCount: 2
Fore
SplineSet
362 0 m 257
 362 460 l 257
 535 460 l 257
 535 0 l 257
 362 0 l 257
236 180 m 258
 236 132 249 104 294 104 c 256
 336 104 362 130 362 180 c 257
 390 188 l 257
 390 79 341 -11 221 -11 c 256
 101 -11 55 51 55 162 c 258
 55 460 l 257
 236 460 l 257
 236 180 l 258
55 460 m 257
 220 460 l 257
 220 -320 l 257
 55 -320 l 257
 55 460 l 257
EndSplineSet
EndChar

StartChar: paragraph
Encoding: 182 182 118
Width: 699
VWidth: 0
Flags: HMW
LayerCount: 2
Fore
SplineSet
288 598 m 257
 288 700 l 257
 528 700 l 257
 528 598 l 257
 288 598 l 257
488 700 m 257
 640 700 l 257
 640 -220 l 257
 488 -220 l 257
 488 700 l 257
288 700 m 257
 439 700 l 257
 439 -220 l 257
 288 -220 l 257
 288 700 l 257
288 270 m 257
 163 270 60 346 60 485 c 256
 60 624 163 700 288 700 c 257
 288 270 l 257
EndSplineSet
EndChar

StartChar: periodcentered
Encoding: 183 183 119
Width: 329
VWidth: 0
Flags: HMW
LayerCount: 2
Fore
SplineSet
58 276 m 256
 58 332 102 380 164 380 c 256
 226 380 270 332 270 276 c 256
 270 220 226 173 164 173 c 256
 102 173 58 220 58 276 c 256
EndSplineSet
EndChar

StartChar: uni00B9
Encoding: 185 185 120
Width: 486
VWidth: 0
Flags: HMW
LayerCount: 2
Fore
SplineSet
128 561 m 257
 128 660 l 257
 347 702 l 257
 347 274 l 257
 236 274 l 257
 236 586 l 257
 128 561 l 257
EndSplineSet
EndChar

StartChar: cedilla
Encoding: 184 184 121
Width: 406
VWidth: 0
Flags: HMW
LayerCount: 2
Fore
SplineSet
180 74 m 257
 305 70 l 257
 212 -55 l 257
 225 -51 240 -50 256 -50 c 256
 298 -50 354 -84 354 -155 c 256
 354 -231 281 -268 215 -268 c 256
 153 -268 106 -259 54 -229 c 257
 104 -152 l 257
 131 -171 171 -178 189 -178 c 256
 223 -178 244 -168 244 -144 c 256
 244 -117 211 -112 181 -112 c 256
 171 -112 131 -114 92 -128 c 257
 180 74 l 257
EndSplineSet
EndChar

StartChar: questiondown
Encoding: 191 191 122
Width: 647
VWidth: 0
Flags: HMW
LayerCount: 2
Fore
SplineSet
226 200 m 256
 226 150 262 122 328 122 c 256
 387 122 451 152 490 210 c 257
 604 112 l 257
 526 26 437 -22 318 -22 c 256
 185 -22 52 56 52 200 c 256
 52 324 161 394 267 416 c 257
 271 490 l 257
 412 490 l 257
 432 310 l 257
 398 310 l 258
 278 310 226 244 226 200 c 256
447 636 m 256
 447 588 403 544 341 544 c 256
 279 544 235 588 235 636 c 256
 235 684 279 727 341 727 c 256
 403 727 447 684 447 636 c 256
EndSplineSet
EndChar

StartChar: multiply
Encoding: 215 215 123
Width: 596
VWidth: 0
Flags: HMW
LayerCount: 2
Fore
SplineSet
146 -2 m 257
 40 102 l 257
 198 255 l 257
 40 408 l 257
 146 512 l 257
 298 356 l 257
 450 512 l 257
 556 408 l 257
 398 255 l 257
 556 102 l 257
 450 -2 l 257
 298 154 l 257
 146 -2 l 257
EndSplineSet
EndChar

StartChar: Oslash
Encoding: 216 216 124
Width: 790
VWidth: 0
Flags: HMW
LayerCount: 2
Fore
SplineSet
238 350 m 256
 238 232 307 158 415 158 c 256
 523 158 593 232 593 350 c 256
 593 468 523 542 415 542 c 256
 307 542 238 468 238 350 c 256
32 350 m 256
 32 570 195 718 415 718 c 256
 635 718 798 570 798 350 c 256
 798 130 635 -26 415 -26 c 256
 195 -26 32 130 32 350 c 256
700 758 m 257
 776 702 l 257
 126 -58 l 257
 52 -2 l 257
 700 758 l 257
EndSplineSet
EndChar

StartChar: Thorn
Encoding: 222 222 125
Width: 631
VWidth: 0
Flags: HMW
LayerCount: 2
Fore
SplineSet
80 700 m 257
 246 700 l 257
 246 0 l 257
 80 0 l 257
 80 700 l 257
188 436 m 257
 188 584 l 257
 322 584 l 258
 514 584 605 499 605 354 c 256
 605 209 514 124 322 124 c 258
 188 124 l 257
 188 272 l 257
 322 272 l 258
 395 272 435 292 435 354 c 256
 435 416 395 436 322 436 c 258
 188 436 l 257
EndSplineSet
EndChar

StartChar: divide
Encoding: 247 247 126
Width: 644
VWidth: 0
Flags: HMW
LayerCount: 2
Fore
SplineSet
216 584 m 256
 216 640 260 687 322 687 c 256
 384 687 428 640 428 584 c 256
 428 528 384 480 322 480 c 256
 260 480 216 528 216 584 c 256
216 106 m 256
 216 162 260 210 322 210 c 256
 384 210 428 162 428 106 c 256
 428 50 384 3 322 3 c 256
 260 3 216 50 216 106 c 256
16 270 m 257
 16 422 l 257
 629 422 l 257
 629 270 l 257
 16 270 l 257
EndSplineSet
EndChar

StartChar: oslash
Encoding: 248 248 127
Width: 546
VWidth: 0
Flags: HMW
LayerCount: 2
Fore
SplineSet
31 230 m 256
 31 385 151 470 302 470 c 256
 453 470 572 385 572 230 c 256
 572 75 453 -10 302 -10 c 256
 151 -10 31 75 31 230 c 256
193 230 m 256
 193 158 244 122 302 122 c 256
 360 122 410 158 410 230 c 256
 410 294 360 338 302 338 c 256
 244 338 193 294 193 230 c 256
460 508 m 257
 522 472 l 257
 132 -52 l 257
 70 -16 l 257
 460 508 l 257
EndSplineSet
EndChar

StartChar: circumflex
Encoding: 710 710 128
Width: 480
VWidth: 0
Flags: HMW
LayerCount: 2
Fore
SplineSet
240 625 m 257
 154 542 l 257
 32 622 l 257
 240 762 l 257
 448 622 l 257
 326 542 l 257
 240 625 l 257
EndSplineSet
EndChar

StartChar: ogonek
Encoding: 731 731 129
Width: 260
VWidth: 0
Flags: HMW
LayerCount: 2
Fore
SplineSet
194 -106 m 257
 227 -180 l 257
 212 -200 182 -220 123 -220 c 256
 63 -220 8 -187 8 -120 c 256
 8 -53 78 -11 148 25 c 257
 189 0 l 257
 137 -30 112 -63 112 -92 c 256
 112 -114 122 -126 144 -126 c 256
 162 -126 180 -119 194 -106 c 257
EndSplineSet
EndChar

StartChar: tilde
Encoding: 732 732 130
Width: 530
VWidth: 0
Flags: HMW
LayerCount: 2
Fore
SplineSet
68 641 m 257
 78 690 122 740 192 740 c 256
 258 740 275 686 332 686 c 256
 359 686 380 708 400 740 c 257
 478 657 l 257
 462 620 402 568 336 568 c 256
 281 568 241 623 191 623 c 256
 154 623 145 587 145 572 c 257
 68 641 l 257
EndSplineSet
EndChar

StartChar: ring
Encoding: 730 730 131
Width: 342
VWidth: 0
Flags: HMW
LayerCount: 2
Fore
SplineSet
40 765 m 256
 40 837 96 885 170 885 c 256
 244 885 304 837 304 765 c 256
 304 693 244 644 170 644 c 256
 96 644 40 693 40 765 c 256
126 765 m 256
 126 736 145 719 170 719 c 256
 195 719 216 736 216 765 c 256
 216 794 195 812 170 812 c 256
 145 812 126 794 126 765 c 256
EndSplineSet
EndChar

StartChar: dotaccent
Encoding: 729 729 132
Width: 300
VWidth: 0
Flags: HMW
LayerCount: 2
Fore
SplineSet
52 820 m 256
 52 874 96 910 150 910 c 256
 204 910 248 874 248 820 c 256
 248 766 204 730 150 730 c 256
 96 730 52 766 52 820 c 256
EndSplineSet
EndChar

StartChar: uni2010
Encoding: 8208 8208 133
Width: 226
VWidth: 0
Flags: HMW
LayerCount: 2
Fore
SplineSet
5 164 m 257
 5 312 l 257
 221 312 l 257
 221 164 l 257
 5 164 l 257
EndSplineSet
EndChar

StartChar: endash
Encoding: 8211 8211 134
Width: 796
VWidth: 0
Flags: HMW
LayerCount: 2
Fore
SplineSet
70 164 m 257
 70 312 l 257
 718 312 l 257
 718 164 l 257
 70 164 l 257
EndSplineSet
EndChar

StartChar: figuredash
Encoding: 8210 8210 135
Width: 638
VWidth: 0
Flags: HMW
LayerCount: 2
Fore
SplineSet
70 164 m 257
 70 312 l 257
 556 312 l 257
 556 164 l 257
 70 164 l 257
EndSplineSet
EndChar

StartChar: emdash
Encoding: 8212 8212 136
Width: 954
VWidth: 0
Flags: HMW
LayerCount: 2
Fore
SplineSet
70 164 m 257
 70 312 l 257
 880 312 l 257
 880 164 l 257
 70 164 l 257
EndSplineSet
EndChar

StartChar: minus
Encoding: 8722 8722 137
Width: 594
VWidth: 0
Flags: HMW
LayerCount: 2
Fore
SplineSet
54 164 m 257
 54 312 l 257
 540 312 l 257
 540 164 l 257
 54 164 l 257
EndSplineSet
EndChar

StartChar: quoteright
Encoding: 8217 8217 138
Width: 347
VWidth: 0
Flags: HMW
LayerCount: 2
Fore
SplineSet
102 700 m 257
 278 700 l 257
 174 438 l 257
 50 438 l 257
 102 700 l 257
EndSplineSet
EndChar

StartChar: quoteleft
Encoding: 8216 8216 139
Width: 347
VWidth: 0
Flags: HMW
LayerCount: 2
Fore
SplineSet
246 438 m 257
 70 438 l 257
 174 700 l 257
 298 700 l 257
 246 438 l 257
EndSplineSet
EndChar

StartChar: quotesinglbase
Encoding: 8218 8218 140
Width: 347
VWidth: 0
Flags: HMW
LayerCount: 2
Fore
SplineSet
112 80 m 257
 288 80 l 257
 184 -182 l 257
 60 -182 l 257
 112 80 l 257
EndSplineSet
EndChar

StartChar: quotedblleft
Encoding: 8220 8220 141
Width: 588
VWidth: 0
Flags: HMW
LayerCount: 2
Fore
SplineSet
246 438 m 257
 70 438 l 257
 174 700 l 257
 298 700 l 257
 246 438 l 257
486 438 m 257
 310 438 l 257
 414 700 l 257
 538 700 l 257
 486 438 l 257
EndSplineSet
EndChar

StartChar: quotedblright
Encoding: 8221 8221 142
Width: 588
VWidth: 0
Flags: HMW
LayerCount: 2
Fore
SplineSet
102 700 m 257
 278 700 l 257
 174 438 l 257
 50 438 l 257
 102 700 l 257
342 700 m 257
 518 700 l 257
 414 438 l 257
 290 438 l 257
 342 700 l 257
EndSplineSet
EndChar

StartChar: perthousand
Encoding: 8240 8240 143
Width: 1446
VWidth: 0
Flags: HMW
LayerCount: 2
Fore
SplineSet
1031 171 m 256
 1031 277 1119 364 1230 364 c 256
 1341 364 1428 277 1428 171 c 256
 1428 65 1341 -22 1230 -22 c 256
 1119 -22 1031 65 1031 171 c 256
1172 171 m 256
 1172 139 1197 114 1230 114 c 256
 1263 114 1288 139 1288 171 c 256
 1288 203 1263 229 1230 229 c 256
 1197 229 1172 203 1172 171 c 256
19 530 m 256
 19 636 107 722 218 722 c 256
 329 722 416 636 416 530 c 256
 416 424 329 338 218 338 c 256
 107 338 19 424 19 530 c 256
160 530 m 256
 160 498 185 472 218 472 c 256
 251 472 275 498 275 530 c 256
 275 562 251 588 218 588 c 256
 185 588 160 562 160 530 c 256
554 171 m 256
 554 277 641 364 752 364 c 256
 863 364 951 277 951 171 c 256
 951 65 863 -22 752 -22 c 256
 641 -22 554 65 554 171 c 256
694 171 m 256
 694 139 719 114 752 114 c 256
 785 114 810 139 810 171 c 256
 810 203 785 229 752 229 c 256
 719 229 694 203 694 171 c 256
676 700 m 257
 856 700 l 257
 294 0 l 257
 113 0 l 257
 676 700 l 257
EndSplineSet
EndChar

StartChar: guilsinglleft
Encoding: 8249 8249 144
Width: 350
VWidth: 0
Flags: HMW
LayerCount: 2
Fore
SplineSet
154 259 m 257
 304 65 l 257
 198 -4 l 257
 24 255 l 257
 198 514 l 257
 304 445 l 257
 154 259 l 257
EndSplineSet
EndChar

StartChar: guilsinglright
Encoding: 8250 8250 145
Width: 350
VWidth: 0
Flags: HMW
LayerCount: 2
Fore
SplineSet
196 251 m 257
 46 445 l 257
 152 514 l 257
 326 255 l 257
 152 -4 l 257
 46 65 l 257
 196 251 l 257
EndSplineSet
EndChar

StartChar: uni2031
Encoding: 8241 8241 146
Width: 1924
VWidth: 0
Flags: HMW
LayerCount: 2
Fore
SplineSet
1508 171 m 256
 1508 277 1596 364 1707 364 c 256
 1818 364 1906 277 1906 171 c 256
 1906 65 1818 -22 1707 -22 c 256
 1596 -22 1508 65 1508 171 c 256
1649 171 m 256
 1649 139 1674 114 1707 114 c 256
 1740 114 1764 139 1764 171 c 256
 1764 203 1740 229 1707 229 c 256
 1674 229 1649 203 1649 171 c 256
1031 171 m 256
 1031 277 1119 364 1230 364 c 256
 1341 364 1428 277 1428 171 c 256
 1428 65 1341 -22 1230 -22 c 256
 1119 -22 1031 65 1031 171 c 256
1172 171 m 256
 1172 139 1197 114 1230 114 c 256
 1263 114 1288 139 1288 171 c 256
 1288 203 1263 229 1230 229 c 256
 1197 229 1172 203 1172 171 c 256
19 530 m 256
 19 636 107 722 218 722 c 256
 329 722 416 636 416 530 c 256
 416 424 329 338 218 338 c 256
 107 338 19 424 19 530 c 256
160 530 m 256
 160 498 185 472 218 472 c 256
 251 472 275 498 275 530 c 256
 275 562 251 588 218 588 c 256
 185 588 160 562 160 530 c 256
554 171 m 256
 554 277 641 364 752 364 c 256
 863 364 951 277 951 171 c 256
 951 65 863 -22 752 -22 c 256
 641 -22 554 65 554 171 c 256
694 171 m 256
 694 139 719 114 752 114 c 256
 785 114 810 139 810 171 c 256
 810 203 785 229 752 229 c 256
 719 229 694 203 694 171 c 256
676 700 m 257
 856 700 l 257
 294 0 l 257
 113 0 l 257
 676 700 l 257
EndSplineSet
EndChar

StartChar: uni203D
Encoding: 8253 8253 147
Width: 647
VWidth: 0
Flags: HMW
LayerCount: 2
Fore
SplineSet
440 476 m 256
 440 546 388 578 310 578 c 256
 251 578 189 556 158 490 c 257
 44 588 l 257
 90 658 201 720 328 720 c 256
 461 720 596 644 596 500 c 256
 596 340 415 274 300 274 c 257
 290 349 l 257
 362 349 440 400 440 476 c 256
220 502 m 257
 378 502 l 257
 349 210 l 257
 250 210 l 257
 220 502 l 257
199 68 m 256
 199 122 244 164 306 164 c 256
 368 164 414 122 414 68 c 256
 414 14 368 -27 306 -27 c 256
 244 -27 199 14 199 68 c 256
EndSplineSet
EndChar

StartChar: Euro
Encoding: 8364 8364 148
Width: 677
VWidth: 0
Flags: HMW
LayerCount: 2
Fore
SplineSet
65 374 m 257
 65 469 l 257
 554 469 l 257
 554 374 l 257
 65 374 l 257
48 239 m 257
 48 334 l 257
 536 334 l 257
 536 239 l 257
 48 239 l 257
276 350 m 256
 276 203 338 135 426 135 c 256
 483 135 535 157 576 197 c 257
 576 19 l 257
 531 -7 480 -22 426 -22 c 256
 228 -22 110 141 110 350 c 256
 110 559 228 723 426 723 c 256
 480 723 531 708 576 682 c 257
 576 503 l 257
 535 543 483 565 426 565 c 256
 338 565 276 497 276 350 c 256
EndSplineSet
EndChar

StartChar: fraction
Encoding: 8260 8260 149
Width: 737
VWidth: 0
Flags: HMW
LayerCount: 2
Fore
SplineSet
580 700 m 257
 718 700 l 257
 198 0 l 257
 60 0 l 257
 580 700 l 257
EndSplineSet
EndChar

StartChar: onequarter
Encoding: 188 188 150
Width: 843
VWidth: 0
Flags: HMW
LayerCount: 2
Fore
SplineSet
634 700 m 257
 740 700 l 257
 220 0 l 257
 114 0 l 257
 634 700 l 257
22 561 m 257
 22 660 l 257
 241 702 l 257
 241 274 l 257
 130 274 l 257
 130 586 l 257
 22 561 l 257
410 72 m 257
 505 154 l 257
 692 154 l 256
 702 170 l 256
 814 170 l 257
 814 72 l 257
 410 72 l 257
526 110 m 257
 410 72 l 257
 657 420 l 257
 748 420 l 257
 748 0 l 257
 627 0 l 257
 627 94 l 256
 642 100 l 256
 642 264 l 257
 526 110 l 257
EndSplineSet
EndChar

StartChar: onehalf
Encoding: 189 189 151
Width: 916
VWidth: 0
Flags: HMW
LayerCount: 2
Fore
SplineSet
634 700 m 257
 740 700 l 257
 220 0 l 257
 114 0 l 257
 634 700 l 257
22 561 m 257
 22 660 l 257
 241 702 l 257
 241 274 l 257
 130 274 l 257
 130 586 l 257
 22 561 l 257
509 2 m 257
 694 190 l 258
 730 228 750 253 750 286 c 256
 750 310 735 332 700 332 c 256
 666 332 642 304 642 264 c 257
 528 264 l 257
 528 353 588 432 704 432 c 256
 812 432 870 361 870 293 c 256
 870 247 846 211 809 181 c 258
 722 108 l 257
 883 108 l 257
 883 2 l 257
 509 2 l 257
EndSplineSet
EndChar

StartChar: threequarters
Encoding: 190 190 152
Width: 896
VWidth: 0
Flags: HMW
LayerCount: 2
Fore
SplineSet
697 700 m 257
 802 700 l 257
 282 0 l 257
 177 0 l 257
 697 700 l 257
167 482 m 257
 167 532 l 257
 211 532 242 556 242 584 c 256
 242 604 229 617 200 617 c 256
 170 617 150 600 150 572 c 257
 42 572 l 257
 42 649 104 708 200 708 c 256
 301 708 358 657 358 591 c 256
 358 515 273 482 167 482 c 257
195 269 m 256
 87 269 24 343 24 420 c 257
 140 420 l 257
 140 378 169 361 200 361 c 256
 231 361 254 372 254 406 c 256
 254 436 231 460 167 460 c 257
 167 517 l 257
 287 517 370 482 370 396 c 256
 370 322 307 269 195 269 c 256
464 72 m 257
 560 154 l 257
 746 154 l 256
 756 170 l 256
 869 170 l 257
 869 72 l 257
 464 72 l 257
582 110 m 257
 464 72 l 257
 712 420 l 257
 803 420 l 257
 803 0 l 257
 682 0 l 257
 682 94 l 256
 696 100 l 256
 696 264 l 257
 582 110 l 257
EndSplineSet
EndChar

StartChar: uni2150
Encoding: 8528 8528 153
Width: 971
VWidth: 0
Flags: HMW
LayerCount: 2
Fore
SplineSet
616 700 m 257
 754 700 l 257
 234 0 l 257
 96 0 l 257
 616 700 l 257
22 561 m 257
 22 660 l 257
 241 702 l 257
 241 274 l 257
 130 274 l 257
 130 586 l 257
 22 561 l 257
595 312 m 257
 595 420 l 257
 952 420 l 257
 748 0 l 257
 623 0 l 257
 782 312 l 257
 595 312 l 257
EndSplineSet
EndChar

StartChar: uni2151
Encoding: 8529 8529 154
Width: 913
VWidth: 0
Flags: HMW
LayerCount: 2
Fore
SplineSet
608 700 m 257
 746 700 l 257
 226 0 l 257
 88 0 l 257
 608 700 l 257
22 561 m 257
 22 660 l 257
 241 702 l 257
 241 274 l 257
 130 274 l 257
 130 586 l 257
 22 561 l 257
774 272 m 256
 774 310 746 334 710 334 c 256
 674 334 646 310 646 272 c 256
 646 234 674 208 710 208 c 256
 746 208 774 234 774 272 c 256
720 4 m 257
 571 4 l 257
 708 150 l 257
 734 162 l 257
 710 140 693 135 662 135 c 256
 602 135 531 186 531 272 c 256
 531 380 612 433 710 433 c 256
 808 433 890 380 890 272 c 256
 890 224 864 184 834 146 c 258
 720 4 l 257
EndSplineSet
EndChar

StartChar: uni2152
Encoding: 8530 8530 155
Width: 1250
VWidth: 0
Flags: HMW
LayerCount: 2
Fore
SplineSet
608 700 m 257
 746 700 l 257
 226 0 l 257
 88 0 l 257
 608 700 l 257
22 561 m 257
 22 660 l 257
 241 702 l 257
 241 274 l 257
 130 274 l 257
 130 586 l 257
 22 561 l 257
569 288 m 257
 569 387 l 257
 788 430 l 257
 788 1 l 257
 676 1 l 257
 676 314 l 257
 569 288 l 257
967 210 m 256
 967 136 996 90 1036 90 c 256
 1076 90 1104 136 1104 210 c 256
 1104 284 1076 330 1036 330 c 256
 996 330 967 284 967 210 c 256
856 210 m 256
 856 350 930 428 1036 428 c 256
 1148 428 1216 350 1216 210 c 256
 1216 70 1148 -8 1036 -8 c 256
 930 -8 856 70 856 210 c 256
EndSplineSet
EndChar

StartChar: onethird
Encoding: 8531 8531 156
Width: 908
VWidth: 0
Flags: HMW
LayerCount: 2
Fore
SplineSet
608 700 m 257
 746 700 l 257
 226 0 l 257
 88 0 l 257
 608 700 l 257
22 561 m 257
 22 660 l 257
 241 702 l 257
 241 274 l 257
 130 274 l 257
 130 586 l 257
 22 561 l 257
682 202 m 257
 682 252 l 257
 726 252 758 276 758 304 c 256
 758 324 744 337 715 337 c 256
 685 337 666 320 666 292 c 257
 558 292 l 257
 558 369 620 428 716 428 c 256
 817 428 873 377 873 311 c 256
 873 235 788 202 682 202 c 257
710 -11 m 256
 602 -11 540 63 540 140 c 257
 655 140 l 257
 655 98 685 81 716 81 c 256
 747 81 770 92 770 126 c 256
 770 156 746 180 682 180 c 257
 682 237 l 257
 802 237 885 202 885 116 c 256
 885 42 822 -11 710 -11 c 256
EndSplineSet
EndChar

StartChar: twothirds
Encoding: 8532 8532 157
Width: 1044
VWidth: 0
Flags: HMW
LayerCount: 2
Fore
SplineSet
760 700 m 257
 898 700 l 257
 378 0 l 257
 240 0 l 257
 760 700 l 257
30 282 m 257
 214 470 l 258
 250 508 271 533 271 566 c 256
 271 590 256 612 221 612 c 256
 187 612 164 584 164 544 c 257
 49 544 l 257
 49 633 109 712 225 712 c 256
 333 712 391 641 391 573 c 256
 391 527 367 491 330 461 c 258
 242 388 l 257
 404 388 l 257
 404 282 l 257
 30 282 l 257
818 202 m 257
 818 252 l 257
 862 252 893 276 893 304 c 256
 893 324 879 337 850 337 c 256
 820 337 800 320 800 292 c 257
 693 292 l 257
 693 369 755 428 851 428 c 256
 952 428 1008 377 1008 311 c 256
 1008 235 924 202 818 202 c 257
846 -11 m 256
 738 -11 675 63 675 140 c 257
 790 140 l 257
 790 98 819 81 850 81 c 256
 881 81 905 92 905 126 c 256
 905 156 882 180 818 180 c 257
 818 237 l 257
 938 237 1020 202 1020 116 c 256
 1020 42 958 -11 846 -11 c 256
EndSplineSet
EndChar

StartChar: uni2155
Encoding: 8533 8533 158
Width: 897
VWidth: 0
Flags: HMW
LayerCount: 2
Fore
SplineSet
608 700 m 257
 746 700 l 257
 226 0 l 257
 88 0 l 257
 608 700 l 257
22 561 m 257
 22 660 l 257
 241 702 l 257
 241 274 l 257
 130 274 l 257
 130 586 l 257
 22 561 l 257
877 131 m 256
 877 31 781 -10 700 -10 c 256
 623 -10 570 10 528 34 c 257
 566 134 l 257
 604 108 646 96 672 96 c 256
 720 96 750 110 750 146 c 256
 750 182 709 193 672 193 c 256
 642 193 593 188 550 170 c 257
 634 224 l 257
 667 259 704 268 748 268 c 256
 812 268 877 219 877 131 c 256
695 317 m 257
 659 219 l 257
 550 170 l 257
 610 418 l 257
 866 418 l 257
 866 317 l 257
 695 317 l 257
EndSplineSet
EndChar

StartChar: uni2156
Encoding: 8534 8534 159
Width: 1045
VWidth: 0
Flags: HMW
LayerCount: 2
Fore
SplineSet
760 700 m 257
 898 700 l 257
 378 0 l 257
 240 0 l 257
 760 700 l 257
30 282 m 257
 214 470 l 258
 250 508 271 533 271 566 c 256
 271 590 256 612 221 612 c 256
 187 612 164 584 164 544 c 257
 49 544 l 257
 49 633 109 712 225 712 c 256
 333 712 391 641 391 573 c 256
 391 527 367 491 330 461 c 258
 242 388 l 257
 404 388 l 257
 404 282 l 257
 30 282 l 257
1012 131 m 256
 1012 31 917 -10 836 -10 c 256
 759 -10 704 10 662 34 c 257
 700 134 l 257
 738 108 780 96 806 96 c 256
 854 96 884 110 884 146 c 256
 884 182 843 193 806 193 c 256
 776 193 729 188 686 170 c 257
 768 224 l 257
 801 259 840 268 884 268 c 256
 948 268 1012 219 1012 131 c 256
830 317 m 257
 794 219 l 257
 686 170 l 257
 745 418 l 257
 1001 418 l 257
 1001 317 l 257
 830 317 l 257
EndSplineSet
EndChar

StartChar: uni2157
Encoding: 8535 8535 160
Width: 960
VWidth: 0
Flags: HMW
LayerCount: 2
Fore
SplineSet
680 700 m 257
 817 700 l 257
 297 0 l 257
 160 0 l 257
 680 700 l 257
163 482 m 257
 163 532 l 257
 207 532 238 556 238 584 c 256
 238 604 225 617 196 617 c 256
 166 617 146 600 146 572 c 257
 38 572 l 257
 38 649 100 708 196 708 c 256
 297 708 354 657 354 591 c 256
 354 515 269 482 163 482 c 257
190 269 m 256
 82 269 20 343 20 420 c 257
 136 420 l 257
 136 378 165 361 196 361 c 256
 227 361 250 372 250 406 c 256
 250 436 227 460 163 460 c 257
 163 517 l 257
 283 517 366 482 366 396 c 256
 366 322 302 269 190 269 c 256
924 131 m 256
 924 31 828 -10 747 -10 c 256
 670 -10 616 10 574 34 c 257
 612 134 l 257
 650 108 692 96 718 96 c 256
 766 96 796 110 796 146 c 256
 796 182 755 193 718 193 c 256
 688 193 640 188 597 170 c 257
 680 224 l 257
 713 259 751 268 795 268 c 256
 859 268 924 219 924 131 c 256
742 317 m 257
 706 219 l 257
 597 170 l 257
 656 418 l 257
 912 418 l 257
 912 317 l 257
 742 317 l 257
EndSplineSet
EndChar

StartChar: uni2158
Encoding: 8536 8536 161
Width: 1060
VWidth: 0
Flags: HMW
LayerCount: 2
Fore
SplineSet
746 699 m 257
 884 699 l 257
 364 -1 l 257
 226 -1 l 257
 746 699 l 257
20 352 m 257
 115 434 l 257
 302 434 l 256
 312 450 l 256
 424 450 l 257
 424 352 l 257
 20 352 l 257
136 390 m 257
 20 352 l 257
 267 700 l 257
 358 700 l 257
 358 280 l 257
 237 280 l 257
 237 374 l 256
 252 380 l 256
 252 544 l 257
 136 390 l 257
1031 130 m 256
 1031 30 936 -11 855 -11 c 256
 778 -11 724 9 682 33 c 257
 720 134 l 257
 758 108 800 95 826 95 c 256
 874 95 904 109 904 145 c 256
 904 181 863 192 826 192 c 256
 796 192 748 187 705 169 c 257
 788 224 l 257
 821 259 859 266 903 266 c 256
 967 266 1031 218 1031 130 c 256
850 316 m 257
 814 218 l 257
 705 169 l 257
 764 417 l 257
 1020 417 l 257
 1020 316 l 257
 850 316 l 257
EndSplineSet
EndChar

StartChar: uni2159
Encoding: 8537 8537 162
Width: 912
VWidth: 0
Flags: HMW
LayerCount: 2
Fore
SplineSet
633 700 m 257
 770 700 l 257
 250 0 l 257
 113 0 l 257
 633 700 l 257
22 561 m 257
 22 660 l 257
 241 702 l 257
 241 274 l 257
 130 274 l 257
 130 586 l 257
 22 561 l 257
640 148 m 256
 640 110 668 86 704 86 c 256
 740 86 767 110 767 148 c 256
 767 186 740 212 704 212 c 256
 668 212 640 186 640 148 c 256
695 416 m 257
 842 416 l 257
 706 270 l 257
 680 258 l 257
 704 280 720 285 751 285 c 256
 811 285 884 234 884 148 c 256
 884 40 802 -13 704 -13 c 256
 606 -13 524 40 524 148 c 256
 524 196 550 236 580 274 c 258
 695 416 l 257
EndSplineSet
EndChar

StartChar: uni215A
Encoding: 8538 8538 163
Width: 953
VWidth: 0
Flags: HMW
LayerCount: 2
Fore
SplineSet
698 700 m 257
 836 700 l 257
 316 0 l 257
 178 0 l 257
 698 700 l 257
380 411 m 256
 380 311 285 270 204 270 c 256
 127 270 72 290 30 314 c 257
 68 414 l 257
 106 388 148 376 174 376 c 256
 222 376 252 390 252 426 c 256
 252 462 211 473 174 473 c 256
 144 473 97 468 54 450 c 257
 136 504 l 257
 169 539 207 548 251 548 c 256
 315 548 380 499 380 411 c 256
198 597 m 257
 162 499 l 257
 54 450 l 257
 112 698 l 257
 368 698 l 257
 368 597 l 257
 198 597 l 257
681 148 m 256
 681 110 709 86 745 86 c 256
 781 86 808 110 808 148 c 256
 808 186 781 212 745 212 c 256
 709 212 681 186 681 148 c 256
736 416 m 257
 884 416 l 257
 746 270 l 257
 721 258 l 257
 745 280 761 285 792 285 c 256
 852 285 924 234 924 148 c 256
 924 40 843 -13 745 -13 c 256
 647 -13 566 40 566 148 c 256
 566 196 591 236 621 274 c 258
 736 416 l 257
EndSplineSet
EndChar

StartChar: oneeighth
Encoding: 8539 8539 164
Width: 930
VWidth: 0
Flags: HMW
LayerCount: 2
Fore
SplineSet
633 700 m 257
 770 700 l 257
 250 0 l 257
 113 0 l 257
 633 700 l 257
22 561 m 257
 22 660 l 257
 241 702 l 257
 241 274 l 257
 130 274 l 257
 130 586 l 257
 22 561 l 257
584 319 m 256
 584 393 654 431 734 431 c 256
 814 431 884 393 884 319 c 256
 884 239 803 204 734 204 c 256
 665 204 584 239 584 319 c 256
694 308 m 256
 694 282 710 266 734 266 c 256
 758 266 774 282 774 308 c 256
 774 334 758 350 734 350 c 256
 710 350 694 334 694 308 c 256
570 114 m 256
 570 206 665 239 734 239 c 256
 803 239 900 206 900 114 c 256
 900 34 818 -11 734 -11 c 256
 650 -11 570 34 570 114 c 256
686 132 m 256
 686 100 706 82 734 82 c 256
 762 82 782 100 782 132 c 256
 782 158 762 179 734 179 c 256
 706 179 686 158 686 132 c 256
EndSplineSet
EndChar

StartChar: threeeighths
Encoding: 8540 8540 165
Width: 984
VWidth: 0
Flags: HMW
LayerCount: 2
Fore
SplineSet
688 700 m 257
 826 700 l 257
 306 0 l 257
 168 0 l 257
 688 700 l 257
163 482 m 257
 163 532 l 257
 207 532 238 556 238 584 c 256
 238 604 225 617 196 617 c 256
 166 617 146 600 146 572 c 257
 38 572 l 257
 38 649 100 708 196 708 c 256
 297 708 354 657 354 591 c 256
 354 515 269 482 163 482 c 257
190 269 m 256
 82 269 20 343 20 420 c 257
 136 420 l 257
 136 378 165 361 196 361 c 256
 227 361 250 372 250 406 c 256
 250 436 227 460 163 460 c 257
 163 517 l 257
 283 517 366 482 366 396 c 256
 366 322 302 269 190 269 c 256
639 319 m 256
 639 393 709 431 789 431 c 256
 869 431 939 393 939 319 c 256
 939 239 858 204 789 204 c 256
 720 204 639 239 639 319 c 256
748 308 m 256
 748 282 765 266 789 266 c 256
 813 266 829 282 829 308 c 256
 829 334 813 350 789 350 c 256
 765 350 748 334 748 308 c 256
624 114 m 256
 624 206 720 239 789 239 c 256
 858 239 954 206 954 114 c 256
 954 34 873 -11 789 -11 c 256
 705 -11 624 34 624 114 c 256
741 132 m 256
 741 100 761 82 789 82 c 256
 817 82 837 100 837 132 c 256
 837 158 817 179 789 179 c 256
 761 179 741 158 741 132 c 256
EndSplineSet
EndChar

StartChar: fiveeighths
Encoding: 8541 8541 166
Width: 995
VWidth: 0
Flags: HMW
LayerCount: 2
Fore
SplineSet
698 700 m 257
 836 700 l 257
 316 0 l 257
 178 0 l 257
 698 700 l 257
372 411 m 256
 372 311 276 270 195 270 c 256
 118 270 64 290 22 314 c 257
 60 414 l 257
 98 388 140 376 166 376 c 256
 214 376 244 390 244 426 c 256
 244 462 203 473 166 473 c 256
 136 473 89 468 46 450 c 257
 128 504 l 257
 161 539 199 548 243 548 c 256
 307 548 372 499 372 411 c 256
190 597 m 257
 154 499 l 257
 46 450 l 257
 104 698 l 257
 360 698 l 257
 360 597 l 257
 190 597 l 257
650 319 m 256
 650 393 720 431 800 431 c 256
 880 431 950 393 950 319 c 256
 950 239 869 204 800 204 c 256
 731 204 650 239 650 319 c 256
760 308 m 256
 760 282 776 266 800 266 c 256
 824 266 840 282 840 308 c 256
 840 334 824 350 800 350 c 256
 776 350 760 334 760 308 c 256
634 114 m 256
 634 206 731 239 800 239 c 256
 869 239 964 206 964 114 c 256
 964 34 884 -11 800 -11 c 256
 716 -11 634 34 634 114 c 256
752 132 m 256
 752 100 772 82 800 82 c 256
 828 82 848 100 848 132 c 256
 848 158 828 179 800 179 c 256
 772 179 752 158 752 132 c 256
EndSplineSet
EndChar

StartChar: seveneighths
Encoding: 8542 8542 167
Width: 885
VWidth: 0
Flags: HMW
LayerCount: 2
Fore
SplineSet
580 700 m 257
 718 700 l 257
 198 0 l 257
 60 0 l 257
 580 700 l 257
21 592 m 257
 21 700 l 257
 378 700 l 257
 175 280 l 257
 49 280 l 257
 208 592 l 257
 21 592 l 257
540 319 m 256
 540 393 610 431 690 431 c 256
 770 431 840 393 840 319 c 256
 840 239 759 204 690 204 c 256
 621 204 540 239 540 319 c 256
650 308 m 256
 650 282 666 266 690 266 c 256
 714 266 730 282 730 308 c 256
 730 334 714 350 690 350 c 256
 666 350 650 334 650 308 c 256
524 114 m 256
 524 206 621 239 690 239 c 256
 759 239 854 206 854 114 c 256
 854 34 774 -11 690 -11 c 256
 606 -11 524 34 524 114 c 256
642 132 m 256
 642 100 662 82 690 82 c 256
 718 82 738 100 738 132 c 256
 738 158 718 179 690 179 c 256
 662 179 642 158 642 132 c 256
EndSplineSet
EndChar

StartChar: uni2074
Encoding: 8308 8308 168
Width: 438
VWidth: 0
Flags: HMW
LayerCount: 2
Fore
SplineSet
12 352 m 257
 107 434 l 257
 294 434 l 256
 304 450 l 256
 416 450 l 257
 416 352 l 257
 12 352 l 257
128 390 m 257
 12 352 l 257
 259 700 l 257
 350 700 l 257
 350 280 l 257
 229 280 l 257
 229 374 l 256
 244 380 l 256
 244 544 l 257
 128 390 l 257
EndSplineSet
EndChar

StartChar: uni2075
Encoding: 8309 8309 169
Width: 396
VWidth: 0
Flags: HMW
LayerCount: 2
Fore
SplineSet
372 411 m 256
 372 311 276 270 195 270 c 256
 118 270 64 290 22 314 c 257
 60 414 l 257
 98 388 140 376 166 376 c 256
 214 376 244 390 244 426 c 256
 244 462 203 473 166 473 c 256
 136 473 89 468 46 450 c 257
 128 504 l 257
 161 539 199 548 243 548 c 256
 307 548 372 499 372 411 c 256
190 597 m 257
 154 499 l 257
 46 450 l 257
 104 698 l 257
 360 698 l 257
 360 597 l 257
 190 597 l 257
EndSplineSet
EndChar

StartChar: uni2076
Encoding: 8310 8310 170
Width: 394
VWidth: 0
Flags: HMW
LayerCount: 2
Fore
SplineSet
134 428 m 256
 134 390 162 366 198 366 c 256
 234 366 261 390 261 428 c 256
 261 466 234 492 198 492 c 256
 162 492 134 466 134 428 c 256
188 696 m 257
 336 696 l 257
 200 550 l 257
 174 538 l 257
 198 560 214 565 245 565 c 256
 305 565 377 514 377 428 c 256
 377 320 296 267 198 267 c 256
 100 267 18 320 18 428 c 256
 18 476 44 516 74 554 c 258
 188 696 l 257
EndSplineSet
EndChar

StartChar: uni2077
Encoding: 8311 8311 171
Width: 386
VWidth: 0
Flags: HMW
LayerCount: 2
Fore
SplineSet
21 592 m 257
 21 700 l 257
 378 700 l 257
 175 280 l 257
 49 280 l 257
 208 592 l 257
 21 592 l 257
EndSplineSet
EndChar

StartChar: uni2078
Encoding: 8312 8312 172
Width: 373
VWidth: 0
Flags: HMW
LayerCount: 2
Fore
SplineSet
36 599 m 256
 36 673 106 711 186 711 c 256
 266 711 336 673 336 599 c 256
 336 519 255 484 186 484 c 256
 117 484 36 519 36 599 c 256
145 588 m 256
 145 562 162 546 186 546 c 256
 210 546 226 562 226 588 c 256
 226 614 210 630 186 630 c 256
 162 630 145 614 145 588 c 256
20 394 m 256
 20 486 117 519 186 519 c 256
 255 519 350 486 350 394 c 256
 350 314 270 269 186 269 c 256
 102 269 20 314 20 394 c 256
138 412 m 256
 138 380 158 362 186 362 c 256
 214 362 234 380 234 412 c 256
 234 438 214 459 186 459 c 256
 158 459 138 438 138 412 c 256
EndSplineSet
EndChar

StartChar: uni2079
Encoding: 8313 8313 173
Width: 390
VWidth: 0
Flags: HMW
LayerCount: 2
Fore
SplineSet
260 552 m 256
 260 590 233 614 197 614 c 256
 161 614 133 590 133 552 c 256
 133 514 161 488 197 488 c 256
 233 488 260 514 260 552 c 256
206 284 m 257
 58 284 l 257
 196 430 l 257
 221 442 l 257
 197 420 180 415 149 415 c 256
 89 415 18 466 18 552 c 256
 18 660 99 713 197 713 c 256
 295 713 376 660 376 552 c 256
 376 504 350 464 320 426 c 258
 206 284 l 257
EndSplineSet
EndChar

StartChar: uni2070
Encoding: 8304 8304 174
Width: 396
VWidth: 0
Flags: HMW
LayerCount: 2
Fore
SplineSet
130 490 m 256
 130 416 158 370 198 370 c 256
 238 370 266 416 266 490 c 256
 266 564 238 610 198 610 c 256
 158 610 130 564 130 490 c 256
18 490 m 256
 18 630 92 708 198 708 c 256
 310 708 378 630 378 490 c 256
 378 350 310 272 198 272 c 256
 92 272 18 350 18 490 c 256
EndSplineSet
EndChar

StartChar: uni2080
Encoding: 8320 8320 175
Width: 396
VWidth: 0
Flags: HMW
LayerCount: 2
Fore
SplineSet
130 210 m 256
 130 136 158 90 198 90 c 256
 238 90 266 136 266 210 c 256
 266 284 238 330 198 330 c 256
 158 330 130 284 130 210 c 256
18 210 m 256
 18 350 92 428 198 428 c 256
 310 428 378 350 378 210 c 256
 378 70 310 -8 198 -8 c 256
 92 -8 18 70 18 210 c 256
EndSplineSet
EndChar

StartChar: uni2084
Encoding: 8324 8324 176
Width: 445
VWidth: 0
Flags: HMW
LayerCount: 2
Fore
SplineSet
10 72 m 257
 105 154 l 257
 292 154 l 256
 302 170 l 256
 415 170 l 257
 415 72 l 257
 10 72 l 257
127 110 m 257
 10 72 l 257
 258 420 l 257
 349 420 l 257
 349 0 l 257
 228 0 l 257
 228 94 l 256
 242 100 l 256
 242 264 l 257
 127 110 l 257
EndSplineSet
EndChar

StartChar: uni2085
Encoding: 8325 8325 177
Width: 407
VWidth: 0
Flags: HMW
LayerCount: 2
Fore
SplineSet
376 131 m 256
 376 31 280 -10 199 -10 c 256
 122 -10 68 10 26 34 c 257
 64 134 l 257
 102 108 144 96 170 96 c 256
 218 96 248 110 248 146 c 256
 248 182 207 193 170 193 c 256
 140 193 93 188 50 170 c 257
 132 224 l 257
 165 259 203 268 247 268 c 256
 311 268 376 219 376 131 c 256
194 317 m 257
 158 219 l 257
 50 170 l 257
 108 418 l 257
 364 418 l 257
 364 317 l 257
 194 317 l 257
EndSplineSet
EndChar

StartChar: uni2086
Encoding: 8326 8326 178
Width: 409
VWidth: 0
Flags: HMW
LayerCount: 2
Fore
SplineSet
138 148 m 256
 138 110 166 86 202 86 c 256
 238 86 266 110 266 148 c 256
 266 186 238 212 202 212 c 256
 166 212 138 186 138 148 c 256
194 416 m 257
 341 416 l 257
 204 270 l 257
 178 258 l 257
 202 280 219 285 250 285 c 256
 310 285 382 234 382 148 c 256
 382 40 300 -13 202 -13 c 256
 104 -13 23 40 23 148 c 256
 23 196 48 236 78 274 c 258
 194 416 l 257
EndSplineSet
EndChar

StartChar: uni2087
Encoding: 8327 8327 179
Width: 392
VWidth: 0
Flags: HMW
LayerCount: 2
Fore
SplineSet
26 312 m 257
 26 420 l 257
 383 420 l 257
 180 0 l 257
 54 0 l 257
 212 312 l 257
 26 312 l 257
EndSplineSet
EndChar

StartChar: uni2088
Encoding: 8328 8328 180
Width: 381
VWidth: 0
Flags: HMW
LayerCount: 2
Fore
SplineSet
41 319 m 256
 41 393 111 431 191 431 c 256
 271 431 341 393 341 319 c 256
 341 239 260 204 191 204 c 256
 122 204 41 239 41 319 c 256
150 308 m 256
 150 282 167 266 191 266 c 256
 215 266 231 282 231 308 c 256
 231 334 215 350 191 350 c 256
 167 350 150 334 150 308 c 256
26 114 m 256
 26 206 122 239 191 239 c 256
 260 239 356 206 356 114 c 256
 356 34 275 -11 191 -11 c 256
 107 -11 26 34 26 114 c 256
143 132 m 256
 143 100 163 82 191 82 c 256
 219 82 239 100 239 132 c 256
 239 158 219 179 191 179 c 256
 163 179 143 158 143 132 c 256
EndSplineSet
EndChar

StartChar: uni2089
Encoding: 8329 8329 181
Width: 414
VWidth: 0
Flags: HMW
LayerCount: 2
Fore
SplineSet
268 272 m 256
 268 310 240 334 204 334 c 256
 168 334 140 310 140 272 c 256
 140 234 168 208 204 208 c 256
 240 208 268 234 268 272 c 256
214 4 m 257
 65 4 l 257
 202 150 l 257
 228 162 l 257
 204 140 187 135 156 135 c 256
 96 135 25 186 25 272 c 256
 25 380 106 433 204 433 c 256
 302 433 384 380 384 272 c 256
 384 224 358 184 328 146 c 258
 214 4 l 257
EndSplineSet
EndChar

StartChar: uni2081
Encoding: 8321 8321 182
Width: 374
VWidth: 0
Flags: HMW
LayerCount: 2
Fore
SplineSet
90 288 m 257
 90 387 l 257
 310 430 l 257
 310 1 l 257
 198 1 l 257
 198 314 l 257
 90 288 l 257
EndSplineSet
EndChar

StartChar: uni2082
Encoding: 8322 8322 183
Width: 430
VWidth: 0
Flags: HMW
LayerCount: 2
Fore
SplineSet
29 2 m 257
 214 190 l 258
 250 228 270 253 270 286 c 256
 270 310 255 332 220 332 c 256
 186 332 162 304 162 264 c 257
 48 264 l 257
 48 353 108 432 224 432 c 256
 332 432 390 361 390 293 c 256
 390 247 365 211 328 181 c 258
 242 108 l 257
 403 108 l 257
 403 2 l 257
 29 2 l 257
EndSplineSet
EndChar

StartChar: uni2083
Encoding: 8323 8323 184
Width: 389
VWidth: 0
Flags: HMW
LayerCount: 2
Fore
SplineSet
164 202 m 257
 164 252 l 257
 208 252 239 276 239 304 c 256
 239 324 225 337 196 337 c 256
 166 337 146 320 146 292 c 257
 39 292 l 257
 39 369 101 428 197 428 c 256
 298 428 354 377 354 311 c 256
 354 235 270 202 164 202 c 257
192 -11 m 256
 84 -11 21 63 21 140 c 257
 136 140 l 257
 136 98 165 81 196 81 c 256
 227 81 251 92 251 126 c 256
 251 156 228 180 164 180 c 257
 164 237 l 257
 284 237 366 202 366 116 c 256
 366 42 304 -11 192 -11 c 256
EndSplineSet
EndChar

StartChar: Agrave
Encoding: 192 192 185
Width: 757
VWidth: 0
Flags: HMW
LayerCount: 2
Fore
SplineSet
196 113 m 257
 202 256 l 257
 560 256 l 257
 566 113 l 257
 196 113 l 257
378 412 m 257
 286 204 l 257
 299 160 l 257
 218 0 l 257
 -3 0 l 257
 378 747 l 257
 760 0 l 257
 540 0 l 257
 460 152 l 257
 471 202 l 257
 378 412 l 257
208 957 m 257
 336 1014 l 257
 486 854 l 257
 388 807 l 257
 208 957 l 257
EndSplineSet
EndChar

StartChar: Aacute
Encoding: 193 193 186
Width: 757
VWidth: 0
Flags: HMW
LayerCount: 2
Fore
SplineSet
196 113 m 257
 202 256 l 257
 560 256 l 257
 566 113 l 257
 196 113 l 257
378 412 m 257
 286 204 l 257
 299 160 l 257
 218 0 l 257
 -3 0 l 257
 378 747 l 257
 760 0 l 257
 540 0 l 257
 460 152 l 257
 471 202 l 257
 378 412 l 257
545 957 m 257
 365 807 l 257
 268 854 l 257
 418 1014 l 257
 545 957 l 257
EndSplineSet
EndChar

StartChar: Acircumflex
Encoding: 194 194 187
Width: 757
VWidth: 0
Flags: HMW
LayerCount: 2
Fore
SplineSet
196 113 m 257
 202 256 l 257
 560 256 l 257
 566 113 l 257
 196 113 l 257
378 412 m 257
 286 204 l 257
 299 160 l 257
 218 0 l 257
 -3 0 l 257
 378 747 l 257
 760 0 l 257
 540 0 l 257
 460 152 l 257
 471 202 l 257
 378 412 l 257
378 882 m 257
 293 800 l 257
 170 880 l 257
 378 1020 l 257
 587 880 l 257
 464 800 l 257
 378 882 l 257
EndSplineSet
EndChar

StartChar: Atilde
Encoding: 195 195 188
Width: 757
VWidth: 0
Flags: HMW
LayerCount: 2
Fore
SplineSet
196 113 m 257
 202 256 l 257
 560 256 l 257
 566 113 l 257
 196 113 l 257
378 412 m 257
 286 204 l 257
 299 160 l 257
 218 0 l 257
 -3 0 l 257
 378 747 l 257
 760 0 l 257
 540 0 l 257
 460 152 l 257
 471 202 l 257
 378 412 l 257
173 878 m 257
 183 927 228 976 298 976 c 256
 364 976 381 922 438 922 c 256
 465 922 486 945 506 977 c 257
 584 894 l 257
 568 857 508 804 442 804 c 256
 387 804 346 859 296 859 c 256
 259 859 250 823 250 808 c 257
 173 878 l 257
EndSplineSet
EndChar

StartChar: Adieresis
Encoding: 196 196 189
Width: 757
VWidth: 0
Flags: HMW
LayerCount: 2
Fore
SplineSet
196 113 m 257
 202 256 l 257
 560 256 l 257
 566 113 l 257
 196 113 l 257
378 412 m 257
 286 204 l 257
 299 160 l 257
 218 0 l 257
 -3 0 l 257
 378 747 l 257
 760 0 l 257
 540 0 l 257
 460 152 l 257
 471 202 l 257
 378 412 l 257
434 824 m 256
 434 878 478 914 532 914 c 256
 586 914 629 878 629 824 c 256
 629 770 586 734 532 734 c 256
 478 734 434 770 434 824 c 256
120 832 m 256
 120 886 164 922 218 922 c 256
 272 922 316 886 316 832 c 256
 316 778 272 742 218 742 c 256
 164 742 120 778 120 832 c 256
EndSplineSet
EndChar

StartChar: Aring
Encoding: 197 197 190
Width: 757
VWidth: 0
Flags: HMW
LayerCount: 2
Fore
SplineSet
196 113 m 257
 202 256 l 257
 560 256 l 257
 566 113 l 257
 196 113 l 257
378 412 m 257
 286 204 l 257
 299 160 l 257
 218 0 l 257
 -3 0 l 257
 378 747 l 257
 760 0 l 257
 540 0 l 257
 460 152 l 257
 471 202 l 257
 378 412 l 257
246 801 m 256
 246 873 304 922 378 922 c 256
 452 922 510 873 510 801 c 256
 510 729 452 681 378 681 c 256
 304 681 246 729 246 801 c 256
334 801 m 256
 334 772 353 756 378 756 c 256
 403 756 423 772 423 801 c 256
 423 830 403 848 378 848 c 256
 353 848 334 830 334 801 c 256
EndSplineSet
EndChar

StartChar: AE
Encoding: 198 198 191
Width: 1122
VWidth: 0
Flags: HMW
LayerCount: 2
Fore
SplineSet
286 133 m 257
 294 310 l 257
 594 310 l 257
 594 133 l 257
 286 133 l 257
439 700 m 257
 630 660 l 257
 266 0 l 257
 17 0 l 257
 439 700 l 257
658 0 m 257
 658 157 l 257
 1052 157 l 257
 1052 0 l 257
 658 0 l 257
666 543 m 257
 439 700 l 257
 1052 700 l 257
 1052 543 l 257
 666 543 l 257
658 288 m 257
 658 440 l 257
 1032 440 l 257
 1032 288 l 257
 658 288 l 257
567 700 m 257
 778 700 l 257
 778 0 l 257
 567 0 l 257
 567 700 l 257
EndSplineSet
EndChar

StartChar: Ccedilla
Encoding: 199 199 192
Width: 705
VWidth: 0
Flags: HMW
LayerCount: 2
Fore
SplineSet
245 350 m 256
 245 232 334 166 440 166 c 256
 539 166 599 209 644 255 c 257
 644 51 l 257
 588 11 528 -18 426 -18 c 256
 192 -18 32 129 32 350 c 256
 32 571 192 718 426 718 c 256
 528 718 588 689 644 649 c 257
 644 445 l 257
 599 491 539 534 440 534 c 256
 334 534 245 468 245 350 c 256
352 45 m 257
 476 40 l 257
 384 -84 l 257
 397 -80 412 -80 428 -80 c 256
 470 -80 525 -114 525 -185 c 256
 525 -261 453 -298 387 -298 c 256
 325 -298 278 -289 226 -259 c 257
 276 -181 l 257
 303 -200 343 -207 361 -207 c 256
 395 -207 416 -197 416 -173 c 256
 416 -146 383 -142 353 -142 c 256
 343 -142 302 -144 263 -158 c 257
 352 45 l 257
EndSplineSet
EndChar

StartChar: Egrave
Encoding: 200 200 193
Width: 618
VWidth: 0
Flags: HMW
LayerCount: 2
Fore
SplineSet
204 0 m 257
 204 157 l 257
 557 157 l 257
 557 0 l 257
 204 0 l 257
204 543 m 257
 204 700 l 257
 557 700 l 257
 557 543 l 257
 204 543 l 257
204 288 m 257
 204 440 l 257
 537 440 l 257
 537 288 l 257
 204 288 l 257
72 700 m 257
 258 700 l 257
 258 0 l 257
 72 0 l 257
 72 700 l 257
144 936 m 257
 271 992 l 257
 421 832 l 257
 324 786 l 257
 144 936 l 257
EndSplineSet
EndChar

StartChar: Eacute
Encoding: 201 201 194
Width: 618
VWidth: 0
Flags: HMW
LayerCount: 2
Fore
SplineSet
204 0 m 257
 204 157 l 257
 557 157 l 257
 557 0 l 257
 204 0 l 257
204 543 m 257
 204 700 l 257
 557 700 l 257
 557 543 l 257
 204 543 l 257
204 288 m 257
 204 440 l 257
 537 440 l 257
 537 288 l 257
 204 288 l 257
72 700 m 257
 258 700 l 257
 258 0 l 257
 72 0 l 257
 72 700 l 257
482 936 m 257
 302 786 l 257
 204 832 l 257
 354 992 l 257
 482 936 l 257
EndSplineSet
EndChar

StartChar: Ecircumflex
Encoding: 202 202 195
Width: 618
VWidth: 0
Flags: HMW
LayerCount: 2
Fore
SplineSet
204 0 m 257
 204 157 l 257
 557 157 l 257
 557 0 l 257
 204 0 l 257
204 543 m 257
 204 700 l 257
 557 700 l 257
 557 543 l 257
 204 543 l 257
204 288 m 257
 204 440 l 257
 537 440 l 257
 537 288 l 257
 204 288 l 257
72 700 m 257
 258 700 l 257
 258 0 l 257
 72 0 l 257
 72 700 l 257
316 890 m 257
 206 794 l 257
 156 834 l 257
 316 974 l 257
 476 834 l 257
 426 794 l 257
 316 890 l 257
EndSplineSet
EndChar

StartChar: Edieresis
Encoding: 203 203 196
Width: 618
VWidth: 0
Flags: HMW
LayerCount: 2
Fore
SplineSet
204 0 m 257
 204 157 l 257
 557 157 l 257
 557 0 l 257
 204 0 l 257
204 543 m 257
 204 700 l 257
 557 700 l 257
 557 543 l 257
 204 543 l 257
204 288 m 257
 204 440 l 257
 537 440 l 257
 537 288 l 257
 204 288 l 257
72 700 m 257
 258 700 l 257
 258 0 l 257
 72 0 l 257
 72 700 l 257
347 872 m 256
 347 926 391 962 445 962 c 256
 499 962 543 926 543 872 c 256
 543 818 499 782 445 782 c 256
 391 782 347 818 347 872 c 256
90 872 m 256
 90 926 134 962 188 962 c 256
 242 962 286 926 286 872 c 256
 286 818 242 782 188 782 c 256
 134 782 90 818 90 872 c 256
EndSplineSet
EndChar

StartChar: Igrave
Encoding: 204 204 197
Width: 342
VWidth: 0
Flags: HMW
LayerCount: 2
Fore
SplineSet
72 700 m 257
 270 700 l 257
 270 0 l 257
 72 0 l 257
 72 700 l 257
-8 936 m 257
 120 992 l 257
 270 832 l 257
 172 786 l 257
 -8 936 l 257
EndSplineSet
EndChar

StartChar: Iacute
Encoding: 205 205 198
Width: 342
VWidth: 0
Flags: HMW
LayerCount: 2
Fore
SplineSet
72 700 m 257
 270 700 l 257
 270 0 l 257
 72 0 l 257
 72 700 l 257
330 936 m 257
 150 786 l 257
 52 832 l 257
 202 992 l 257
 330 936 l 257
EndSplineSet
EndChar

StartChar: Icircumflex
Encoding: 206 206 199
Width: 342
VWidth: 0
Flags: HMW
LayerCount: 2
Fore
SplineSet
72 700 m 257
 270 700 l 257
 270 0 l 257
 72 0 l 257
 72 700 l 257
162 890 m 257
 52 794 l 257
 2 834 l 257
 162 974 l 257
 322 834 l 257
 272 794 l 257
 162 890 l 257
EndSplineSet
EndChar

StartChar: Idieresis
Encoding: 207 207 200
Width: 342
VWidth: 0
Flags: HMW
LayerCount: 2
Fore
SplineSet
72 700 m 257
 270 700 l 257
 270 0 l 257
 72 0 l 257
 72 700 l 257
202 868 m 256
 202 922 246 958 300 958 c 256
 354 958 398 922 398 868 c 256
 398 814 354 778 300 778 c 256
 246 778 202 814 202 868 c 256
-54 868 m 256
 -54 922 -11 958 43 958 c 256
 97 958 141 922 141 868 c 256
 141 814 97 778 43 778 c 256
 -11 778 -54 814 -54 868 c 256
EndSplineSet
EndChar

StartChar: Ntilde
Encoding: 209 209 201
Width: 799
VWidth: 0
Flags: HMW
LayerCount: 2
Fore
SplineSet
541 700 m 257
 728 700 l 257
 728 -35 l 257
 258 350.659 l 257
 258 0 l 257
 72 0 l 257
 72 735 l 257
 541 348.977 l 257
 541 700 l 257
157 848 m 257
 167 897 211 947 281 947 c 256
 347 947 364 893 421 893 c 256
 448 893 469 915 489 947 c 257
 567 864 l 257
 551 827 491 775 425 775 c 256
 370 775 330 830 280 830 c 256
 243 830 234 794 234 779 c 257
 157 848 l 257
EndSplineSet
EndChar

StartChar: Eth
Encoding: 208 208 202
Width: 748
VWidth: 0
Flags: HMW
LayerCount: 2
Fore
SplineSet
6 300 m 257
 6 408 l 257
 370 408 l 257
 370 300 l 257
 6 300 l 257
72 700 m 257
 274 700 l 257
 274 0 l 257
 72 0 l 257
 72 700 l 257
334 0 m 258
 204 0 l 257
 204 170 l 257
 326 170 l 258
 419 170 514 203 514 350 c 256
 514 497 419 530 326 530 c 258
 204 530 l 257
 204 700 l 257
 334 700 l 258
 570 700 717 567 717 350 c 256
 717 133 570 0 334 0 c 258
EndSplineSet
EndChar

StartChar: Ograve
Encoding: 210 210 203
Width: 830
VWidth: 0
Flags: HMW
LayerCount: 2
Fore
SplineSet
238 350 m 256
 238 236 307 158 415 158 c 256
 523 158 593 236 593 350 c 256
 593 464 527 542 415 542 c 256
 307 542 238 464 238 350 c 256
32 350 m 256
 32 570 199 718 415 718 c 256
 635 718 798 570 798 350 c 256
 798 130 639 -26 415 -26 c 256
 191 -26 32 130 32 350 c 256
259 936 m 257
 386 992 l 257
 536 832 l 257
 439 786 l 257
 259 936 l 257
EndSplineSet
EndChar

StartChar: Oacute
Encoding: 211 211 204
Width: 830
VWidth: 0
Flags: HMW
LayerCount: 2
Fore
SplineSet
238 350 m 256
 238 236 307 158 415 158 c 256
 523 158 593 236 593 350 c 256
 593 464 527 542 415 542 c 256
 307 542 238 464 238 350 c 256
32 350 m 256
 32 570 199 718 415 718 c 256
 635 718 798 570 798 350 c 256
 798 130 639 -26 415 -26 c 256
 191 -26 32 130 32 350 c 256
592 936 m 257
 412 786 l 257
 314 832 l 257
 464 992 l 257
 592 936 l 257
EndSplineSet
EndChar

StartChar: Ocircumflex
Encoding: 212 212 205
Width: 830
VWidth: 0
Flags: HMW
LayerCount: 2
Fore
SplineSet
238 350 m 256
 238 236 307 158 415 158 c 256
 523 158 593 236 593 350 c 256
 593 464 527 542 415 542 c 256
 307 542 238 464 238 350 c 256
32 350 m 256
 32 570 199 718 415 718 c 256
 635 718 798 570 798 350 c 256
 798 130 639 -26 415 -26 c 256
 191 -26 32 130 32 350 c 256
428 890 m 257
 318 794 l 257
 268 834 l 257
 428 974 l 257
 588 834 l 257
 538 794 l 257
 428 890 l 257
EndSplineSet
EndChar

StartChar: Otilde
Encoding: 213 213 206
Width: 830
VWidth: 0
Flags: HMW
LayerCount: 2
Fore
SplineSet
238 350 m 256
 238 236 307 158 415 158 c 256
 523 158 593 236 593 350 c 256
 593 464 527 542 415 542 c 256
 307 542 238 464 238 350 c 256
32 350 m 256
 32 570 199 718 415 718 c 256
 635 718 798 570 798 350 c 256
 798 130 639 -26 415 -26 c 256
 191 -26 32 130 32 350 c 256
254 852 m 257
 264 901 313 934 358 934 c 256
 423 934 428 888 482 888 c 256
 501 888 518 904 538 936 c 257
 584 892 l 257
 568 855 528 820 478 820 c 256
 423 820 403 866 358 866 c 256
 317 866 308 831 308 816 c 257
 254 852 l 257
EndSplineSet
EndChar

StartChar: Odieresis
Encoding: 214 214 207
Width: 830
VWidth: 0
Flags: HMW
LayerCount: 2
Fore
SplineSet
238 350 m 256
 238 236 307 158 415 158 c 256
 523 158 593 236 593 350 c 256
 593 464 527 542 415 542 c 256
 307 542 238 464 238 350 c 256
32 350 m 256
 32 570 199 718 415 718 c 256
 635 718 798 570 798 350 c 256
 798 130 639 -26 415 -26 c 256
 191 -26 32 130 32 350 c 256
446 868 m 256
 446 922 490 958 544 958 c 256
 598 958 642 922 642 868 c 256
 642 814 598 778 544 778 c 256
 490 778 446 814 446 868 c 256
189 868 m 256
 189 922 233 958 287 958 c 256
 341 958 385 922 385 868 c 256
 385 814 341 778 287 778 c 256
 233 778 189 814 189 868 c 256
EndSplineSet
EndChar

StartChar: Ugrave
Encoding: 217 217 208
Width: 723
VWidth: 0
Flags: HMW
LayerCount: 2
Fore
SplineSet
67 700 m 257
 262 700 l 257
 262 246 l 258
 262 182 294 139 362 139 c 256
 430 139 462 182 462 246 c 258
 462 700 l 257
 656 700 l 257
 656 230 l 258
 656 42 523 -34 362 -34 c 256
 201 -34 67 42 67 230 c 258
 67 700 l 257
191 928 m 257
 318 984 l 257
 468 824 l 257
 371 778 l 257
 191 928 l 257
EndSplineSet
EndChar

StartChar: Uacute
Encoding: 218 218 209
Width: 723
VWidth: 0
Flags: HMW
LayerCount: 2
Fore
SplineSet
67 700 m 257
 262 700 l 257
 262 246 l 258
 262 182 294 139 362 139 c 256
 430 139 462 182 462 246 c 258
 462 700 l 257
 656 700 l 257
 656 230 l 258
 656 42 523 -34 362 -34 c 256
 201 -34 67 42 67 230 c 258
 67 700 l 257
532 928 m 257
 352 778 l 257
 254 824 l 257
 404 984 l 257
 532 928 l 257
EndSplineSet
EndChar

StartChar: Ucircumflex
Encoding: 219 219 210
Width: 723
VWidth: 0
Flags: HMW
LayerCount: 2
Fore
SplineSet
67 700 m 257
 262 700 l 257
 262 246 l 258
 262 182 294 139 362 139 c 256
 430 139 462 182 462 246 c 258
 462 700 l 257
 656 700 l 257
 656 230 l 258
 656 42 523 -34 362 -34 c 256
 201 -34 67 42 67 230 c 258
 67 700 l 257
362 861 m 257
 276 778 l 257
 153 858 l 257
 362 998 l 257
 570 858 l 257
 448 778 l 257
 362 861 l 257
EndSplineSet
EndChar

StartChar: Udieresis
Encoding: 220 220 211
Width: 723
VWidth: 0
Flags: HMW
LayerCount: 2
Fore
SplineSet
67 700 m 257
 262 700 l 257
 262 246 l 258
 262 182 294 139 362 139 c 256
 430 139 462 182 462 246 c 258
 462 700 l 257
 656 700 l 257
 656 230 l 258
 656 42 523 -34 362 -34 c 256
 201 -34 67 42 67 230 c 258
 67 700 l 257
416 868 m 256
 416 922 460 958 514 958 c 256
 568 958 612 922 612 868 c 256
 612 814 568 778 514 778 c 256
 460 778 416 814 416 868 c 256
111 868 m 256
 111 922 155 958 209 958 c 256
 263 958 307 922 307 868 c 256
 307 814 263 778 209 778 c 256
 155 778 111 814 111 868 c 256
EndSplineSet
EndChar

StartChar: Yacute
Encoding: 221 221 212
Width: 689
VWidth: 0
Flags: HMW
LayerCount: 2
Fore
SplineSet
516 928 m 257
 336 778 l 257
 238 824 l 257
 388 984 l 257
 516 928 l 257
468 700 m 257
 693 700 l 257
 444 280 l 257
 444 0 l 257
 246 0 l 257
 246 279 l 257
 -3 700 l 257
 222 700 l 257
 345 456 l 257
 468 700 l 257
EndSplineSet
EndChar

StartChar: agrave
Encoding: 224 224 213
Width: 561
VWidth: 0
Flags: HMW
LayerCount: 2
Fore
SplineSet
196 138 m 256
 196 110 220 98 252 98 c 256
 300 98 345 118 345 188 c 257
 361 130 l 257
 361 41 287 -10 192 -10 c 256
 89 -10 22 41 22 129 c 256
 22 220 103 277 222 277 c 256
 286 277 356 254 378 232 c 257
 378 153 l 257
 347 177 316 188 266 188 c 256
 223 188 196 168 196 138 c 256
119 308 m 257
 64 422 l 257
 122 447 201 474 284 474 c 256
 414 474 510 419 510 322 c 258
 510 0 l 257
 345 0 l 257
 345 283 l 258
 345 320 318 346 268 346 c 256
 202 346 141 320 119 308 c 257
108 684 m 257
 236 740 l 257
 386 580 l 257
 288 534 l 257
 108 684 l 257
EndSplineSet
Substitution2: "alt a" agrave.alt
EndChar

StartChar: aacute
Encoding: 225 225 214
Width: 561
VWidth: 0
Flags: HMW
LayerCount: 2
Fore
SplineSet
196 138 m 256
 196 110 220 98 252 98 c 256
 300 98 345 118 345 188 c 257
 361 130 l 257
 361 41 287 -10 192 -10 c 256
 89 -10 22 41 22 129 c 256
 22 220 103 277 222 277 c 256
 286 277 356 254 378 232 c 257
 378 153 l 257
 347 177 316 188 266 188 c 256
 223 188 196 168 196 138 c 256
119 308 m 257
 64 422 l 257
 122 447 201 474 284 474 c 256
 414 474 510 419 510 322 c 258
 510 0 l 257
 345 0 l 257
 345 283 l 258
 345 320 318 346 268 346 c 256
 202 346 141 320 119 308 c 257
460 684 m 257
 280 534 l 257
 183 580 l 257
 333 740 l 257
 460 684 l 257
EndSplineSet
Substitution2: "alt a" aacute.alt
EndChar

StartChar: acircumflex
Encoding: 226 226 215
Width: 561
VWidth: 0
Flags: HMW
LayerCount: 2
Fore
SplineSet
196 138 m 256
 196 110 220 98 252 98 c 256
 300 98 345 118 345 188 c 257
 361 130 l 257
 361 41 287 -10 192 -10 c 256
 89 -10 22 41 22 129 c 256
 22 220 103 277 222 277 c 256
 286 277 356 254 378 232 c 257
 378 153 l 257
 347 177 316 188 266 188 c 256
 223 188 196 168 196 138 c 256
119 308 m 257
 64 422 l 257
 122 447 201 474 284 474 c 256
 414 474 510 419 510 322 c 258
 510 0 l 257
 345 0 l 257
 345 283 l 258
 345 320 318 346 268 346 c 256
 202 346 141 320 119 308 c 257
284 617 m 257
 198 534 l 257
 76 614 l 257
 284 754 l 257
 493 614 l 257
 370 534 l 257
 284 617 l 257
EndSplineSet
Substitution2: "alt a" acircumflex.alt
EndChar

StartChar: atilde
Encoding: 227 227 216
Width: 561
VWidth: 0
Flags: HMW
LayerCount: 2
Fore
SplineSet
196 138 m 256
 196 110 220 98 252 98 c 256
 300 98 345 118 345 188 c 257
 361 130 l 257
 361 41 287 -10 192 -10 c 256
 89 -10 22 41 22 129 c 256
 22 220 103 277 222 277 c 256
 286 277 356 254 378 232 c 257
 378 153 l 257
 347 177 316 188 266 188 c 256
 223 188 196 168 196 138 c 256
119 308 m 257
 64 422 l 257
 122 447 201 474 284 474 c 256
 414 474 510 419 510 322 c 258
 510 0 l 257
 345 0 l 257
 345 283 l 258
 345 320 318 346 268 346 c 256
 202 346 141 320 119 308 c 257
79 608 m 257
 89 657 133 706 203 706 c 256
 269 706 287 653 344 653 c 256
 371 653 392 676 412 708 c 257
 490 624 l 257
 474 587 414 535 348 535 c 256
 293 535 252 590 202 590 c 256
 165 590 156 554 156 539 c 257
 79 608 l 257
EndSplineSet
Substitution2: "alt a" atilde.alt
EndChar

StartChar: adieresis
Encoding: 228 228 217
Width: 561
VWidth: 0
Flags: HMW
LayerCount: 2
Fore
SplineSet
196 138 m 256
 196 110 220 98 252 98 c 256
 300 98 345 118 345 188 c 257
 361 130 l 257
 361 41 287 -10 192 -10 c 256
 89 -10 22 41 22 129 c 256
 22 220 103 277 222 277 c 256
 286 277 356 254 378 232 c 257
 378 153 l 257
 347 177 316 188 266 188 c 256
 223 188 196 168 196 138 c 256
119 308 m 257
 64 422 l 257
 122 447 201 474 284 474 c 256
 414 474 510 419 510 322 c 258
 510 0 l 257
 345 0 l 257
 345 283 l 258
 345 320 318 346 268 346 c 256
 202 346 141 320 119 308 c 257
315 624 m 256
 315 678 359 714 413 714 c 256
 467 714 510 678 510 624 c 256
 510 570 467 534 413 534 c 256
 359 534 315 570 315 624 c 256
58 624 m 256
 58 678 102 714 156 714 c 256
 210 714 254 678 254 624 c 256
 254 570 210 534 156 534 c 256
 102 534 58 570 58 624 c 256
EndSplineSet
Substitution2: "alt a" adieresis.alt
EndChar

StartChar: aring
Encoding: 229 229 218
Width: 561
VWidth: 0
Flags: HMW
LayerCount: 2
Fore
SplineSet
196 138 m 256
 196 110 220 98 252 98 c 256
 300 98 345 118 345 188 c 257
 361 130 l 257
 361 41 287 -10 192 -10 c 256
 89 -10 22 41 22 129 c 256
 22 220 103 277 222 277 c 256
 286 277 356 254 378 232 c 257
 378 153 l 257
 347 177 316 188 266 188 c 256
 223 188 196 168 196 138 c 256
119 308 m 257
 64 422 l 257
 122 447 201 474 284 474 c 256
 414 474 510 419 510 322 c 258
 510 0 l 257
 345 0 l 257
 345 283 l 258
 345 320 318 346 268 346 c 256
 202 346 141 320 119 308 c 257
152 654 m 256
 152 726 210 774 284 774 c 256
 358 774 416 726 416 654 c 256
 416 582 358 534 284 534 c 256
 210 534 152 582 152 654 c 256
239 654 m 256
 239 625 259 608 284 608 c 256
 309 608 329 625 329 654 c 256
 329 683 309 701 284 701 c 256
 259 701 239 683 239 654 c 256
EndSplineSet
Substitution2: "alt a" aring.alt
EndChar

StartChar: germandbls
Encoding: 223 223 219
Width: 598
VWidth: 0
Flags: HMW
LayerCount: 2
Fore
SplineSet
284 146 m 257
 364 146 408 194 408 260 c 256
 408 314 382 356 272 356 c 257
 272 476 l 257
 443 476 582 380 582 225 c 256
 582 70 468 -10 284 -10 c 257
 284 146 l 257
272 409 m 257
 272 512 l 257
 350 512 368 540 368 580 c 256
 368 622 339 642 289 642 c 256
 237 642 212 618 212 582 c 258
 212 0 l 257
 48 0 l 257
 48 606 l 258
 48 731 159 798 289 798 c 256
 449 798 534 715 534 606 c 256
 534 487 443 409 272 409 c 257
EndSplineSet
EndChar

StartChar: ae
Encoding: 230 230 220
Width: 917
VWidth: 0
Flags: HMW
LayerCount: 2
Fore
SplineSet
196 138 m 256
 196 110 220 98 252 98 c 256
 300 98 345 118 345 188 c 257
 424 130 l 257
 424 41 356 -10 220 -10 c 256
 97 -10 22 41 22 129 c 256
 22 220 103 277 222 277 c 256
 286 277 356 254 378 232 c 257
 378 153 l 257
 347 177 316 188 266 188 c 256
 223 188 196 168 196 138 c 256
119 308 m 257
 64 422 l 257
 122 447 201 474 284 474 c 256
 414 474 450 419 450 322 c 258
 450 130 l 257
 345 130 l 257
 345 281 l 258
 345 318 318 346 268 346 c 256
 202 346 141 320 119 308 c 257
422 194 m 257
 422 283 l 257
 866 283 l 257
 882 194 l 257
 422 194 l 257
701 242 m 258
 701 320 680 360 622 360 c 256
 566 360 534 322 534 252 c 257
 532 230 l 257
 532 140 576 110 626 110 c 256
 677 110 712 128 731 162 c 257
 888 132 l 257
 842 46 767 -10 632 -10 c 256
 450 -10 400 91 400 230 c 256
 400 247 403 263 406 279 c 256
 425 392 508 470 652 470 c 256
 794 470 883 383 883 238 c 256
 883 230 884 212 882 194 c 257
 701 214 l 257
 701 242 l 258
EndSplineSet
EndChar

StartChar: ccedilla
Encoding: 231 231 221
Width: 498
VWidth: 0
Flags: HMW
LayerCount: 2
Fore
SplineSet
208 230 m 256
 208 162 258 124 320 124 c 256
 370 124 419 144 448 188 c 257
 448 26 l 257
 416 4 375 -10 304 -10 c 256
 144 -10 30 83 30 230 c 256
 30 377 144 470 304 470 c 256
 375 470 416 454 448 436 c 257
 448 273 l 257
 419 317 362 336 320 336 c 256
 258 336 208 290 208 230 c 256
232 61 m 257
 356 56 l 257
 263 -68 l 257
 276 -64 292 -64 308 -64 c 256
 350 -64 405 -98 405 -169 c 256
 405 -245 332 -282 266 -282 c 256
 204 -282 158 -272 106 -242 c 257
 156 -165 l 257
 183 -184 222 -191 240 -191 c 256
 274 -191 296 -181 296 -157 c 256
 296 -130 262 -126 232 -126 c 256
 222 -126 182 -128 143 -142 c 257
 232 61 l 257
EndSplineSet
EndChar

StartChar: egrave
Encoding: 232 232 222
Width: 591
VWidth: 0
Flags: HMW
LayerCount: 2
Fore
SplineSet
126 194 m 257
 126 283 l 257
 372 283 l 257
 365 333 343 360 296 360 c 256
 240 360 207 322 207 252 c 257
 205 230 l 257
 205 140 250 110 300 110 c 256
 351 110 385 128 404 162 c 257
 561 132 l 257
 515 46 441 -10 306 -10 c 256
 124 -10 31 91 31 230 c 256
 31 247 32 263 35 279 c 256
 54 392 140 470 300 470 c 256
 470 470 557 383 557 238 c 256
 557 230 557 212 555 194 c 257
 126 194 l 257
127 682 m 257
 254 739 l 257
 404 579 l 257
 307 532 l 257
 127 682 l 257
EndSplineSet
EndChar

StartChar: eacute
Encoding: 233 233 223
Width: 591
VWidth: 0
Flags: HMW
LayerCount: 2
Fore
SplineSet
126 194 m 257
 126 283 l 257
 372 283 l 257
 365 333 343 360 296 360 c 256
 240 360 207 322 207 252 c 257
 205 230 l 257
 205 140 250 110 300 110 c 256
 351 110 385 128 404 162 c 257
 561 132 l 257
 515 46 441 -10 306 -10 c 256
 124 -10 31 91 31 230 c 256
 31 247 32 263 35 279 c 256
 54 392 140 470 300 470 c 256
 470 470 557 383 557 238 c 256
 557 230 557 212 555 194 c 257
 126 194 l 257
476 682 m 257
 296 532 l 257
 198 579 l 257
 348 739 l 257
 476 682 l 257
EndSplineSet
EndChar

StartChar: ecircumflex
Encoding: 234 234 224
Width: 591
VWidth: 0
Flags: HMW
LayerCount: 2
Fore
SplineSet
126 194 m 257
 126 283 l 257
 372 283 l 257
 365 333 343 360 296 360 c 256
 240 360 207 322 207 252 c 257
 205 230 l 257
 205 140 250 110 300 110 c 256
 351 110 385 128 404 162 c 257
 561 132 l 257
 515 46 441 -10 306 -10 c 256
 124 -10 31 91 31 230 c 256
 31 247 32 263 35 279 c 256
 54 392 140 470 300 470 c 256
 470 470 557 383 557 238 c 256
 557 230 557 212 555 194 c 257
 126 194 l 257
300 614 m 257
 214 531 l 257
 91 612 l 257
 300 752 l 257
 508 612 l 257
 385 531 l 257
 300 614 l 257
EndSplineSet
EndChar

StartChar: edieresis
Encoding: 235 235 225
Width: 591
VWidth: 0
Flags: HMW
LayerCount: 2
Fore
SplineSet
126 194 m 257
 126 283 l 257
 372 283 l 257
 365 333 343 360 296 360 c 256
 240 360 207 322 207 252 c 257
 205 230 l 257
 205 140 250 110 300 110 c 256
 351 110 385 128 404 162 c 257
 561 132 l 257
 515 46 441 -10 306 -10 c 256
 124 -10 31 91 31 230 c 256
 31 247 32 263 35 279 c 256
 54 392 140 470 300 470 c 256
 470 470 557 383 557 238 c 256
 557 230 557 212 555 194 c 257
 126 194 l 257
330 620 m 256
 330 674 374 710 428 710 c 256
 482 710 526 674 526 620 c 256
 526 566 482 531 428 531 c 256
 374 531 330 566 330 620 c 256
73 620 m 256
 73 674 117 710 171 710 c 256
 225 710 269 674 269 620 c 256
 269 566 225 531 171 531 c 256
 117 531 73 566 73 620 c 256
EndSplineSet
EndChar

StartChar: igrave
Encoding: 236 236 226
Width: 281
VWidth: 0
Flags: HMW
LayerCount: 2
Fore
SplineSet
57 460 m 257
 224 460 l 257
 224 0 l 257
 57 0 l 257
 57 460 l 257
-46 684 m 257
 82 741 l 257
 232 581 l 257
 134 534 l 257
 -46 684 l 257
EndSplineSet
EndChar

StartChar: dotlessi
Encoding: 305 305 227
Width: 281
VWidth: 0
Flags: HMW
LayerCount: 2
Fore
SplineSet
57 460 m 257
 224 460 l 257
 224 0 l 257
 57 0 l 257
 57 460 l 257
EndSplineSet
EndChar

StartChar: kgreenlandic
Encoding: 312 312 228
Width: 618
VWidth: 0
Flags: HMW
LayerCount: 2
Fore
SplineSet
54 460 m 257
 219 460 l 257
 219 0 l 257
 54 0 l 257
 54 460 l 257
386 460 m 257
 590 460 l 257
 394 270 l 257
 610 0 l 257
 409 0 l 257
 190 270 l 257
 386 460 l 257
EndSplineSet
EndChar

StartChar: iacute
Encoding: 237 237 229
Width: 281
VWidth: 0
Flags: HMW
LayerCount: 2
Fore
SplineSet
57 460 m 257
 224 460 l 257
 224 0 l 257
 57 0 l 257
 57 460 l 257
316 684 m 257
 136 534 l 257
 38 581 l 257
 188 741 l 257
 316 684 l 257
EndSplineSet
EndChar

StartChar: icircumflex
Encoding: 238 238 230
Width: 281
VWidth: 0
Flags: HMW
LayerCount: 2
Fore
SplineSet
57 460 m 257
 224 460 l 257
 224 0 l 257
 57 0 l 257
 57 460 l 257
140 616 m 257
 54 532 l 257
 -69 613 l 257
 140 753 l 257
 348 613 l 257
 226 532 l 257
 140 616 l 257
EndSplineSet
EndChar

StartChar: idieresis
Encoding: 239 239 231
Width: 281
VWidth: 0
Flags: HMW
LayerCount: 2
Fore
SplineSet
57 460 m 257
 224 460 l 257
 224 0 l 257
 57 0 l 257
 57 460 l 257
171 626 m 256
 171 680 215 716 269 716 c 256
 323 716 367 680 367 626 c 256
 367 572 323 536 269 536 c 256
 215 536 171 572 171 626 c 256
-86 626 m 256
 -86 680 -42 716 12 716 c 256
 66 716 110 680 110 626 c 256
 110 572 66 536 12 536 c 256
 -42 536 -86 572 -86 626 c 256
EndSplineSet
EndChar

StartChar: ntilde
Encoding: 241 241 232
Width: 589
VWidth: 0
Flags: HMW
LayerCount: 2
Fore
SplineSet
228 460 m 257
 228 0 l 257
 55 0 l 257
 55 460 l 257
 228 460 l 257
354 280 m 258
 354 328 341 356 296 356 c 256
 254 356 228 330 228 280 c 257
 200 272 l 257
 200 381 249 471 369 471 c 256
 489 471 535 409 535 298 c 258
 535 0 l 257
 354 0 l 257
 354 280 l 258
90 605 m 257
 100 654 144 704 214 704 c 256
 280 704 297 650 354 650 c 256
 381 650 402 672 422 704 c 257
 501 621 l 257
 485 584 424 532 358 532 c 256
 303 532 263 586 213 586 c 256
 176 586 166 551 166 536 c 257
 90 605 l 257
EndSplineSet
EndChar

StartChar: ograve
Encoding: 242 242 233
Width: 602
VWidth: 0
Flags: HMW
LayerCount: 2
Fore
SplineSet
31 230 m 256
 31 377 147 471 302 471 c 256
 457 471 572 377 572 230 c 256
 572 83 457 -10 302 -10 c 256
 147 -10 31 83 31 230 c 256
209 230 m 256
 209 166 252 130 302 130 c 256
 352 130 394 166 394 230 c 256
 394 294 352 331 302 331 c 256
 252 331 209 294 209 230 c 256
142 684 m 257
 269 741 l 257
 419 581 l 257
 322 534 l 257
 142 684 l 257
EndSplineSet
EndChar

StartChar: oacute
Encoding: 243 243 234
Width: 602
VWidth: 0
Flags: HMW
LayerCount: 2
Fore
SplineSet
31 230 m 256
 31 377 147 471 302 471 c 256
 457 471 572 377 572 230 c 256
 572 83 457 -10 302 -10 c 256
 147 -10 31 83 31 230 c 256
209 230 m 256
 209 166 252 130 302 130 c 256
 352 130 394 166 394 230 c 256
 394 294 352 331 302 331 c 256
 252 331 209 294 209 230 c 256
462 684 m 257
 282 534 l 257
 184 581 l 257
 334 741 l 257
 462 684 l 257
EndSplineSet
EndChar

StartChar: ocircumflex
Encoding: 244 244 235
Width: 602
VWidth: 0
Flags: HMW
LayerCount: 2
Fore
SplineSet
31 230 m 256
 31 377 147 471 302 471 c 256
 457 471 572 377 572 230 c 256
 572 83 457 -10 302 -10 c 256
 147 -10 31 83 31 230 c 256
209 230 m 256
 209 166 252 130 302 130 c 256
 352 130 394 166 394 230 c 256
 394 294 352 331 302 331 c 256
 252 331 209 294 209 230 c 256
302 618 m 257
 216 534 l 257
 93 615 l 257
 302 755 l 257
 510 615 l 257
 387 534 l 257
 302 618 l 257
EndSplineSet
EndChar

StartChar: otilde
Encoding: 245 245 236
Width: 602
VWidth: 0
Flags: HMW
LayerCount: 2
Fore
SplineSet
31 230 m 256
 31 377 147 471 302 471 c 256
 457 471 572 377 572 230 c 256
 572 83 457 -10 302 -10 c 256
 147 -10 31 83 31 230 c 256
209 230 m 256
 209 166 252 130 302 130 c 256
 352 130 394 166 394 230 c 256
 394 294 352 331 302 331 c 256
 252 331 209 294 209 230 c 256
96 605 m 257
 106 654 150 704 220 704 c 256
 286 704 303 650 360 650 c 256
 387 650 408 672 428 704 c 257
 507 621 l 257
 491 584 430 532 364 532 c 256
 309 532 269 586 219 586 c 256
 182 586 173 551 173 536 c 257
 96 605 l 257
EndSplineSet
EndChar

StartChar: odieresis
Encoding: 246 246 237
Width: 602
VWidth: 0
Flags: HMW
LayerCount: 2
Fore
SplineSet
31 230 m 256
 31 377 147 471 302 471 c 256
 457 471 572 377 572 230 c 256
 572 83 457 -10 302 -10 c 256
 147 -10 31 83 31 230 c 256
209 230 m 256
 209 166 252 130 302 130 c 256
 352 130 394 166 394 230 c 256
 394 294 352 331 302 331 c 256
 252 331 209 294 209 230 c 256
332 626 m 256
 332 680 376 716 430 716 c 256
 484 716 528 680 528 626 c 256
 528 572 484 536 430 536 c 256
 376 536 332 572 332 626 c 256
75 626 m 256
 75 680 119 716 173 716 c 256
 227 716 271 680 271 626 c 256
 271 572 227 536 173 536 c 256
 119 536 75 572 75 626 c 256
EndSplineSet
EndChar

StartChar: ugrave
Encoding: 249 249 238
Width: 589
VWidth: 0
Flags: HMW
LayerCount: 2
Fore
SplineSet
362 0 m 257
 362 460 l 257
 535 460 l 257
 535 0 l 257
 362 0 l 257
236 180 m 258
 236 132 249 104 294 104 c 256
 336 104 362 130 362 180 c 257
 390 188 l 257
 390 79 341 -11 221 -11 c 256
 101 -11 55 51 55 162 c 258
 55 460 l 257
 236 460 l 257
 236 180 l 258
142 684 m 257
 270 741 l 257
 420 581 l 257
 322 534 l 257
 142 684 l 257
EndSplineSet
EndChar

StartChar: uacute
Encoding: 250 250 239
Width: 589
VWidth: 0
Flags: HMW
LayerCount: 2
Fore
SplineSet
362 0 m 257
 362 460 l 257
 535 460 l 257
 535 0 l 257
 362 0 l 257
236 180 m 258
 236 132 249 104 294 104 c 256
 336 104 362 130 362 180 c 257
 390 188 l 257
 390 79 341 -11 221 -11 c 256
 101 -11 55 51 55 162 c 258
 55 460 l 257
 236 460 l 257
 236 180 l 258
447 684 m 257
 267 534 l 257
 170 581 l 257
 320 741 l 257
 447 684 l 257
EndSplineSet
EndChar

StartChar: ucircumflex
Encoding: 251 251 240
Width: 589
VWidth: 0
Flags: HMW
LayerCount: 2
Fore
SplineSet
362 0 m 257
 362 460 l 257
 535 460 l 257
 535 0 l 257
 362 0 l 257
236 180 m 258
 236 132 249 104 294 104 c 256
 336 104 362 130 362 180 c 257
 390 188 l 257
 390 79 341 -11 221 -11 c 256
 101 -11 55 51 55 162 c 258
 55 460 l 257
 236 460 l 257
 236 180 l 258
294 618 m 257
 208 534 l 257
 86 615 l 257
 294 755 l 257
 503 615 l 257
 380 534 l 257
 294 618 l 257
EndSplineSet
EndChar

StartChar: udieresis
Encoding: 252 252 241
Width: 589
VWidth: 0
Flags: HMW
LayerCount: 2
Fore
SplineSet
362 0 m 257
 362 460 l 257
 535 460 l 257
 535 0 l 257
 362 0 l 257
236 180 m 258
 236 132 249 104 294 104 c 256
 336 104 362 130 362 180 c 257
 390 188 l 257
 390 79 341 -11 221 -11 c 256
 101 -11 55 51 55 162 c 258
 55 460 l 257
 236 460 l 257
 236 180 l 258
326 624 m 256
 326 678 370 714 424 714 c 256
 478 714 522 678 522 624 c 256
 522 570 478 534 424 534 c 256
 370 534 326 570 326 624 c 256
69 624 m 256
 69 678 113 714 167 714 c 256
 221 714 265 678 265 624 c 256
 265 570 221 534 167 534 c 256
 113 534 69 570 69 624 c 256
EndSplineSet
EndChar

StartChar: yacute
Encoding: 253 253 242
Width: 545
VWidth: 0
Flags: HMW
LayerCount: 2
Fore
SplineSet
558 460 m 257
 258 -220 l 257
 86 -220 l 257
 194 28 l 257
 -12 460 l 257
 176 460 l 257
 325 88 l 257
 234 88 l 257
 382 460 l 257
 558 460 l 257
443 684 m 257
 263 534 l 257
 166 581 l 257
 316 741 l 257
 443 684 l 257
EndSplineSet
EndChar

StartChar: thorn
Encoding: 254 254 243
Width: 630
VWidth: 0
Flags: HMW
LayerCount: 2
Fore
SplineSet
227 -220 m 257
 54 -220 l 257
 54 780 l 257
 227 780 l 257
 227 -220 l 257
600 230 m 256
 600 73 493 -10 384 -10 c 256
 269 -10 183 81 183 230 c 256
 183 379 269 470 384 470 c 256
 493 470 600 387 600 230 c 256
418 230 m 256
 418 292 374 334 322 334 c 256
 276 334 227 296 227 230 c 256
 227 164 276 126 322 126 c 256
 374 126 418 168 418 230 c 256
EndSplineSet
EndChar

StartChar: ydieresis
Encoding: 255 255 244
Width: 545
VWidth: 0
Flags: HMW
LayerCount: 2
Fore
SplineSet
558 460 m 257
 258 -220 l 257
 86 -220 l 257
 194 28 l 257
 -12 460 l 257
 176 460 l 257
 325 88 l 257
 234 88 l 257
 382 460 l 257
 558 460 l 257
303 620 m 256
 303 674 347 710 401 710 c 256
 455 710 499 674 499 620 c 256
 499 566 455 531 401 531 c 256
 347 531 303 566 303 620 c 256
46 620 m 256
 46 674 90 710 144 710 c 256
 198 710 242 674 242 620 c 256
 242 566 198 531 144 531 c 256
 90 531 46 566 46 620 c 256
EndSplineSet
EndChar

StartChar: Amacron
Encoding: 256 256 245
Width: 757
VWidth: 0
Flags: HMW
LayerCount: 2
Fore
SplineSet
196 113 m 257
 202 256 l 257
 560 256 l 257
 566 113 l 257
 196 113 l 257
378 412 m 257
 286 204 l 257
 299 160 l 257
 218 0 l 257
 -3 0 l 257
 378 747 l 257
 760 0 l 257
 540 0 l 257
 460 152 l 257
 471 202 l 257
 378 412 l 257
190 807 m 257
 190 955 l 257
 568 955 l 257
 568 807 l 257
 190 807 l 257
EndSplineSet
EndChar

StartChar: amacron
Encoding: 257 257 246
Width: 561
VWidth: 0
Flags: HMW
LayerCount: 2
Fore
SplineSet
196 138 m 256
 196 110 220 98 252 98 c 256
 300 98 345 118 345 188 c 257
 361 130 l 257
 361 41 287 -10 192 -10 c 256
 89 -10 22 41 22 129 c 256
 22 220 103 277 222 277 c 256
 286 277 356 254 378 232 c 257
 378 153 l 257
 347 177 316 188 266 188 c 256
 223 188 196 168 196 138 c 256
119 308 m 257
 64 422 l 257
 122 447 201 474 284 474 c 256
 414 474 510 419 510 322 c 258
 510 0 l 257
 345 0 l 257
 345 283 l 258
 345 320 318 346 268 346 c 256
 202 346 141 320 119 308 c 257
95 538 m 257
 95 686 l 257
 474 686 l 257
 474 538 l 257
 95 538 l 257
EndSplineSet
Substitution2: "alt a" amacron.alt
EndChar

StartChar: breve
Encoding: 728 728 247
Width: 546
VWidth: 0
Flags: HMW
LayerCount: 2
Fore
SplineSet
107 850 m 257
 214 850 l 257
 214 812 243 795 273 795 c 256
 303 795 332 812 332 850 c 257
 439 850 l 257
 439 765 378 702 273 702 c 256
 168 702 107 765 107 850 c 257
EndSplineSet
EndChar

StartChar: Abreve
Encoding: 258 258 248
Width: 757
VWidth: 0
Flags: HMW
LayerCount: 2
Fore
SplineSet
196 113 m 257
 202 256 l 257
 560 256 l 257
 566 113 l 257
 196 113 l 257
378 412 m 257
 286 204 l 257
 299 160 l 257
 218 0 l 257
 -3 0 l 257
 378 747 l 257
 760 0 l 257
 540 0 l 257
 460 152 l 257
 471 202 l 257
 378 412 l 257
212 955 m 257
 320 955 l 257
 320 917 348 900 378 900 c 256
 408 900 437 917 437 955 c 257
 544 955 l 257
 544 870 483 807 378 807 c 256
 273 807 212 870 212 955 c 257
EndSplineSet
EndChar

StartChar: abreve
Encoding: 259 259 249
Width: 561
VWidth: 0
Flags: HMW
LayerCount: 2
Fore
SplineSet
196 138 m 256
 196 110 220 98 252 98 c 256
 300 98 345 118 345 188 c 257
 361 130 l 257
 361 41 287 -10 192 -10 c 256
 89 -10 22 41 22 129 c 256
 22 220 103 277 222 277 c 256
 286 277 356 254 378 232 c 257
 378 153 l 257
 347 177 316 188 266 188 c 256
 223 188 196 168 196 138 c 256
119 308 m 257
 64 422 l 257
 122 447 201 474 284 474 c 256
 414 474 510 419 510 322 c 258
 510 0 l 257
 345 0 l 257
 345 283 l 258
 345 320 318 346 268 346 c 256
 202 346 141 320 119 308 c 257
118 682 m 257
 226 682 l 257
 226 644 254 628 284 628 c 256
 314 628 343 644 343 682 c 257
 450 682 l 257
 450 597 389 534 284 534 c 256
 179 534 118 597 118 682 c 257
EndSplineSet
Substitution2: "alt a" abreve.alt
EndChar

StartChar: Aogonek
Encoding: 260 260 250
Width: 757
VWidth: 0
Flags: HMW
LayerCount: 2
Fore
SplineSet
196 113 m 257
 202 256 l 257
 560 256 l 257
 566 113 l 257
 196 113 l 257
378 412 m 257
 286 204 l 257
 299 160 l 257
 218 0 l 257
 -3 0 l 257
 378 747 l 257
 760 0 l 257
 540 0 l 257
 460 152 l 257
 471 202 l 257
 378 412 l 257
700 -106 m 257
 734 -180 l 257
 719 -200 689 -220 630 -220 c 256
 570 -220 514 -187 514 -120 c 256
 514 -53 584 -11 654 25 c 257
 696 0 l 257
 644 -30 618 -63 618 -92 c 256
 618 -114 628 -126 650 -126 c 256
 668 -126 686 -119 700 -106 c 257
EndSplineSet
EndChar

StartChar: aogonek
Encoding: 261 261 251
Width: 561
VWidth: 0
Flags: HMW
LayerCount: 2
Fore
SplineSet
196 138 m 256
 196 110 222 98 252 98 c 256
 300 98 345 118 345 188 c 257
 361 130 l 257
 361 41 287 -10 192 -10 c 256
 90 -10 22 40 22 130 c 256
 22 219 101 277 222 277 c 256
 286 277 356 254 378 232 c 257
 378 153 l 257
 347 177 316 188 266 188 c 256
 223 188 196 168 196 138 c 256
119 308 m 257
 64 422 l 257
 122 447 201 474 284 474 c 256
 414 474 510 419 510 322 c 258
 510 0 l 257
 345 0 l 257
 345 283 l 258
 345 320 318 346 268 346 c 256
 202 346 141 320 119 308 c 257
474 -106 m 257
 508 -180 l 257
 493 -200 463 -220 404 -220 c 256
 344 -220 288 -187 288 -120 c 256
 288 -53 358 -11 428 25 c 257
 470 0 l 257
 418 -30 392 -63 392 -92 c 256
 392 -114 402 -126 424 -126 c 256
 442 -126 460 -119 474 -106 c 257
EndSplineSet
Substitution2: "alt a" aogonek.alt
EndChar

StartChar: Cacute
Encoding: 262 262 252
Width: 705
VWidth: 0
Flags: HMW
LayerCount: 2
Fore
SplineSet
245 350 m 256
 245 232 334 166 440 166 c 256
 539 166 599 209 644 255 c 257
 644 51 l 257
 588 11 528 -18 426 -18 c 256
 192 -18 32 129 32 350 c 256
 32 571 192 718 426 718 c 256
 528 718 588 689 644 649 c 257
 644 445 l 257
 599 491 539 534 440 534 c 256
 334 534 245 468 245 350 c 256
556 928 m 257
 376 778 l 257
 279 824 l 257
 429 984 l 257
 556 928 l 257
EndSplineSet
EndChar

StartChar: cacute
Encoding: 263 263 253
Width: 498
VWidth: 0
Flags: HMW
LayerCount: 2
Fore
SplineSet
208 230 m 256
 208 162 258 124 320 124 c 256
 370 124 419 144 448 188 c 257
 448 26 l 257
 416 4 375 -10 304 -10 c 256
 144 -10 30 83 30 230 c 256
 30 377 144 470 304 470 c 256
 375 470 416 454 448 436 c 257
 448 273 l 257
 419 317 362 336 320 336 c 256
 258 336 208 290 208 230 c 256
434 681 m 257
 254 531 l 257
 157 577 l 257
 307 737 l 257
 434 681 l 257
EndSplineSet
EndChar

StartChar: Ccircumflex
Encoding: 264 264 254
Width: 705
VWidth: 0
Flags: HMW
LayerCount: 2
Fore
SplineSet
245 350 m 256
 245 232 334 166 440 166 c 256
 539 166 599 209 644 255 c 257
 644 51 l 257
 588 11 528 -18 426 -18 c 256
 192 -18 32 129 32 350 c 256
 32 571 192 718 426 718 c 256
 528 718 588 689 644 649 c 257
 644 445 l 257
 599 491 539 534 440 534 c 256
 334 534 245 468 245 350 c 256
426 861 m 257
 340 778 l 257
 218 858 l 257
 426 998 l 257
 635 858 l 257
 512 778 l 257
 426 861 l 257
EndSplineSet
EndChar

StartChar: ccircumflex
Encoding: 265 265 255
Width: 498
VWidth: 0
Flags: HMW
LayerCount: 2
Fore
SplineSet
208 230 m 256
 208 162 258 124 320 124 c 256
 370 124 419 144 448 188 c 257
 448 26 l 257
 416 4 375 -10 304 -10 c 256
 144 -10 30 83 30 230 c 256
 30 377 144 470 304 470 c 256
 375 470 416 454 448 436 c 257
 448 273 l 257
 419 317 362 336 320 336 c 256
 258 336 208 290 208 230 c 256
264 614 m 257
 178 531 l 257
 56 612 l 257
 264 752 l 257
 472 612 l 257
 350 531 l 257
 264 614 l 257
EndSplineSet
EndChar

StartChar: Cdotaccent
Encoding: 266 266 256
Width: 705
VWidth: 0
Flags: HMW
LayerCount: 2
Fore
SplineSet
245 350 m 256
 245 232 334 166 440 166 c 256
 539 166 599 209 644 255 c 257
 644 51 l 257
 588 11 528 -18 426 -18 c 256
 192 -18 32 129 32 350 c 256
 32 571 192 718 426 718 c 256
 528 718 588 689 644 649 c 257
 644 445 l 257
 599 491 539 534 440 534 c 256
 334 534 245 468 245 350 c 256
296 868 m 256
 296 922 340 958 394 958 c 256
 448 958 492 922 492 868 c 256
 492 814 448 778 394 778 c 256
 340 778 296 814 296 868 c 256
EndSplineSet
EndChar

StartChar: cdotaccent
Encoding: 267 267 257
Width: 498
VWidth: 0
Flags: HMW
LayerCount: 2
Fore
SplineSet
208 230 m 256
 208 162 258 124 320 124 c 256
 370 124 419 144 448 188 c 257
 448 26 l 257
 416 4 375 -10 304 -10 c 256
 144 -10 30 83 30 230 c 256
 30 377 144 470 304 470 c 256
 375 470 416 454 448 436 c 257
 448 273 l 257
 419 317 362 336 320 336 c 256
 258 336 208 290 208 230 c 256
174 628 m 256
 174 682 218 718 272 718 c 256
 326 718 370 682 370 628 c 256
 370 574 326 539 272 539 c 256
 218 539 174 574 174 628 c 256
EndSplineSet
EndChar

StartChar: Ccaron
Encoding: 268 268 258
Width: 705
VWidth: 0
Flags: HMW
LayerCount: 2
Fore
SplineSet
245 350 m 256
 245 232 334 166 440 166 c 256
 539 166 599 209 644 255 c 257
 644 51 l 257
 588 11 528 -18 426 -18 c 256
 192 -18 32 129 32 350 c 256
 32 571 192 718 426 718 c 256
 528 718 588 689 644 649 c 257
 644 445 l 257
 599 491 539 534 440 534 c 256
 334 534 245 468 245 350 c 256
426 916 m 257
 512 998 l 257
 635 918 l 257
 426 778 l 257
 218 918 l 257
 340 998 l 257
 426 916 l 257
EndSplineSet
EndChar

StartChar: ccaron
Encoding: 269 269 259
Width: 498
VWidth: 0
Flags: HMW
LayerCount: 2
Fore
SplineSet
208 230 m 256
 208 162 258 124 320 124 c 256
 370 124 419 144 448 188 c 257
 448 26 l 257
 416 4 375 -10 304 -10 c 256
 144 -10 30 83 30 230 c 256
 30 377 144 470 304 470 c 256
 375 470 416 454 448 436 c 257
 448 273 l 257
 419 317 362 336 320 336 c 256
 258 336 208 290 208 230 c 256
264 668 m 257
 350 752 l 257
 472 671 l 257
 264 531 l 257
 56 671 l 257
 178 752 l 257
 264 668 l 257
EndSplineSet
EndChar

StartChar: Dcaron
Encoding: 270 270 260
Width: 748
VWidth: 0
Flags: HMW
LayerCount: 2
Fore
SplineSet
72 700 m 257
 274 700 l 257
 274 0 l 257
 72 0 l 257
 72 700 l 257
334 0 m 258
 204 0 l 257
 204 170 l 257
 326 170 l 258
 419 170 514 203 514 350 c 256
 514 497 419 530 326 530 c 258
 204 530 l 257
 204 700 l 257
 334 700 l 258
 570 700 717 567 717 350 c 256
 717 133 570 0 334 0 c 258
389 916 m 257
 474 998 l 257
 597 918 l 257
 389 778 l 257
 180 918 l 257
 303 998 l 257
 389 916 l 257
EndSplineSet
EndChar

StartChar: dcaron
Encoding: 271 271 261
Width: 630
VWidth: 0
Flags: HMW
LayerCount: 2
Fore
SplineSet
404 780 m 257
 577 780 l 257
 577 0 l 257
 404 0 l 257
 404 780 l 257
31 230 m 256
 31 387 138 470 247 470 c 256
 362 470 448 379 448 230 c 256
 448 81 362 -10 247 -10 c 256
 138 -10 31 73 31 230 c 256
213 230 m 256
 213 168 258 126 310 126 c 256
 356 126 404 164 404 230 c 256
 404 296 356 334 310 334 c 256
 258 334 213 292 213 230 c 256
695 780 m 257
 868 747 l 257
 738 497 l 257
 607 521 l 257
 695 780 l 257
EndSplineSet
EndChar

StartChar: Dcroat
Encoding: 272 272 262
Width: 748
VWidth: 0
Flags: HMW
LayerCount: 2
Fore
SplineSet
5 294 m 257
 5 401 l 257
 362 401 l 257
 362 294 l 257
 5 294 l 257
72 700 m 257
 274 700 l 257
 274 0 l 257
 72 0 l 257
 72 700 l 257
334 0 m 258
 204 0 l 257
 204 170 l 257
 326 170 l 258
 419 170 514 203 514 350 c 256
 514 497 419 530 326 530 c 258
 204 530 l 257
 204 700 l 257
 334 700 l 258
 570 700 717 567 717 350 c 256
 717 133 570 0 334 0 c 258
EndSplineSet
EndChar

StartChar: dcroat
Encoding: 273 273 263
Width: 630
VWidth: 0
Flags: HMW
LayerCount: 2
Fore
SplineSet
295 558 m 257
 295 665 l 257
 668 665 l 257
 668 558 l 257
 295 558 l 257
404 780 m 257
 577 780 l 257
 577 0 l 257
 404 0 l 257
 404 780 l 257
31 230 m 256
 31 387 138 470 247 470 c 256
 362 470 448 379 448 230 c 256
 448 81 362 -10 247 -10 c 256
 138 -10 31 73 31 230 c 256
213 230 m 256
 213 168 258 126 310 126 c 256
 356 126 404 164 404 230 c 256
 404 296 356 334 310 334 c 256
 258 334 213 292 213 230 c 256
EndSplineSet
EndChar

StartChar: Emacron
Encoding: 274 274 264
Width: 618
VWidth: 0
Flags: HMW
LayerCount: 2
Fore
SplineSet
204 0 m 257
 204 157 l 257
 557 157 l 257
 557 0 l 257
 204 0 l 257
204 543 m 257
 204 700 l 257
 557 700 l 257
 557 543 l 257
 204 543 l 257
204 288 m 257
 204 440 l 257
 537 440 l 257
 537 288 l 257
 204 288 l 257
72 700 m 257
 258 700 l 257
 258 0 l 257
 72 0 l 257
 72 700 l 257
125 778 m 257
 125 926 l 257
 504 926 l 257
 504 778 l 257
 125 778 l 257
EndSplineSet
EndChar

StartChar: emacron
Encoding: 275 275 265
Width: 591
VWidth: 0
Flags: HMW
LayerCount: 2
Fore
SplineSet
126 194 m 257
 126 283 l 257
 372 283 l 257
 365 333 343 360 296 360 c 256
 240 360 207 322 207 252 c 257
 205 230 l 257
 205 140 250 110 300 110 c 256
 351 110 385 128 404 162 c 257
 561 132 l 257
 515 46 441 -10 306 -10 c 256
 124 -10 31 91 31 230 c 256
 31 247 32 263 35 279 c 256
 54 392 140 470 300 470 c 256
 470 470 557 383 557 238 c 256
 557 230 557 212 555 194 c 257
 126 194 l 257
110 531 m 257
 110 678 l 257
 489 678 l 257
 489 531 l 257
 110 531 l 257
EndSplineSet
EndChar

StartChar: Ebreve
Encoding: 276 276 266
Width: 618
VWidth: 0
Flags: HMW
LayerCount: 2
Fore
SplineSet
204 0 m 257
 204 157 l 257
 557 157 l 257
 557 0 l 257
 204 0 l 257
204 543 m 257
 204 700 l 257
 557 700 l 257
 557 543 l 257
 204 543 l 257
204 288 m 257
 204 440 l 257
 537 440 l 257
 537 288 l 257
 204 288 l 257
72 700 m 257
 258 700 l 257
 258 0 l 257
 72 0 l 257
 72 700 l 257
148 926 m 257
 256 926 l 257
 256 888 284 872 314 872 c 256
 344 872 372 888 372 926 c 257
 480 926 l 257
 480 841 419 778 314 778 c 256
 209 778 148 841 148 926 c 257
EndSplineSet
EndChar

StartChar: ebreve
Encoding: 277 277 267
Width: 591
VWidth: 0
Flags: HMW
LayerCount: 2
Fore
SplineSet
126 194 m 257
 126 283 l 257
 372 283 l 257
 365 333 343 360 296 360 c 256
 240 360 207 322 207 252 c 257
 205 230 l 257
 205 140 250 110 300 110 c 256
 351 110 385 128 404 162 c 257
 561 132 l 257
 515 46 441 -10 306 -10 c 256
 124 -10 31 91 31 230 c 256
 31 247 32 263 35 279 c 256
 54 392 140 470 300 470 c 256
 470 470 557 383 557 238 c 256
 557 230 557 212 555 194 c 257
 126 194 l 257
134 679 m 257
 241 679 l 257
 241 641 270 624 300 624 c 256
 330 624 358 641 358 679 c 257
 466 679 l 257
 466 594 405 531 300 531 c 256
 195 531 134 594 134 679 c 257
EndSplineSet
EndChar

StartChar: Edotaccent
Encoding: 278 278 268
Width: 618
VWidth: 0
Flags: HMW
LayerCount: 2
Fore
SplineSet
204 0 m 257
 204 157 l 257
 557 157 l 257
 557 0 l 257
 204 0 l 257
204 543 m 257
 204 700 l 257
 557 700 l 257
 557 543 l 257
 204 543 l 257
204 288 m 257
 204 440 l 257
 537 440 l 257
 537 288 l 257
 204 288 l 257
72 700 m 257
 258 700 l 257
 258 0 l 257
 72 0 l 257
 72 700 l 257
216 868 m 256
 216 922 260 958 314 958 c 256
 368 958 412 922 412 868 c 256
 412 814 368 778 314 778 c 256
 260 778 216 814 216 868 c 256
EndSplineSet
EndChar

StartChar: edotaccent
Encoding: 279 279 269
Width: 591
VWidth: 0
Flags: HMW
LayerCount: 2
Fore
SplineSet
126 194 m 257
 126 283 l 257
 372 283 l 257
 365 333 343 360 296 360 c 256
 240 360 207 322 207 252 c 257
 205 230 l 257
 205 140 250 110 300 110 c 256
 351 110 385 128 404 162 c 257
 561 132 l 257
 515 46 441 -10 306 -10 c 256
 124 -10 31 91 31 230 c 256
 31 247 32 263 35 279 c 256
 54 392 140 470 300 470 c 256
 470 470 557 383 557 238 c 256
 557 230 557 212 555 194 c 257
 126 194 l 257
202 620 m 256
 202 674 246 710 300 710 c 256
 354 710 398 674 398 620 c 256
 398 566 354 531 300 531 c 256
 246 531 202 566 202 620 c 256
EndSplineSet
EndChar

StartChar: Eogonek
Encoding: 280 280 270
Width: 618
VWidth: 0
Flags: HMW
LayerCount: 2
Fore
SplineSet
204 0 m 257
 204 157 l 257
 557 157 l 257
 557 0 l 257
 204 0 l 257
204 543 m 257
 204 700 l 257
 557 700 l 257
 557 543 l 257
 204 543 l 257
204 288 m 257
 204 440 l 257
 537 440 l 257
 537 288 l 257
 204 288 l 257
72 700 m 257
 258 700 l 257
 258 0 l 257
 72 0 l 257
 72 700 l 257
410 -106 m 257
 442 -180 l 257
 427 -200 397 -220 338 -220 c 256
 278 -220 224 -187 224 -120 c 256
 224 -53 294 -11 364 25 c 257
 404 0 l 257
 352 -30 328 -63 328 -92 c 256
 328 -114 338 -126 360 -126 c 256
 378 -126 396 -119 410 -106 c 257
EndSplineSet
EndChar

StartChar: eogonek
Encoding: 281 281 271
Width: 591
VWidth: 0
Flags: HMW
LayerCount: 2
Fore
SplineSet
126 194 m 257
 126 283 l 257
 372 283 l 257
 365 333 343 360 296 360 c 256
 240 360 207 322 207 252 c 257
 205 230 l 257
 205 140 250 110 300 110 c 256
 351 110 385 128 404 162 c 257
 561 132 l 257
 515 46 441 -10 306 -10 c 256
 124 -10 31 91 31 230 c 256
 31 247 32 263 35 279 c 256
 54 392 140 470 300 470 c 256
 470 470 557 383 557 238 c 256
 557 230 557 212 555 194 c 257
 126 194 l 257
336 -95 m 257
 368 -169 l 257
 353 -189 323 -209 264 -209 c 256
 204 -209 150 -176 150 -109 c 256
 150 -42 220 0 290 36 c 257
 330 11 l 257
 278 -19 254 -52 254 -81 c 256
 254 -103 264 -115 286 -115 c 256
 304 -115 322 -108 336 -95 c 257
EndSplineSet
EndChar

StartChar: Ecaron
Encoding: 282 282 272
Width: 618
VWidth: 0
Flags: HMW
LayerCount: 2
Fore
SplineSet
204 0 m 257
 204 157 l 257
 557 157 l 257
 557 0 l 257
 204 0 l 257
204 543 m 257
 204 700 l 257
 557 700 l 257
 557 543 l 257
 204 543 l 257
204 288 m 257
 204 440 l 257
 537 440 l 257
 537 288 l 257
 204 288 l 257
72 700 m 257
 258 700 l 257
 258 0 l 257
 72 0 l 257
 72 700 l 257
314 916 m 257
 400 998 l 257
 522 918 l 257
 314 778 l 257
 106 918 l 257
 228 998 l 257
 314 916 l 257
EndSplineSet
EndChar

StartChar: ecaron
Encoding: 283 283 273
Width: 591
VWidth: 0
Flags: HMW
LayerCount: 2
Fore
SplineSet
126 194 m 257
 126 283 l 257
 372 283 l 257
 365 333 343 360 296 360 c 256
 240 360 207 322 207 252 c 257
 205 230 l 257
 205 140 250 110 300 110 c 256
 351 110 385 128 404 162 c 257
 561 132 l 257
 515 46 441 -10 306 -10 c 256
 124 -10 31 91 31 230 c 256
 31 247 32 263 35 279 c 256
 54 392 140 470 300 470 c 256
 470 470 557 383 557 238 c 256
 557 230 557 212 555 194 c 257
 126 194 l 257
300 668 m 257
 385 752 l 257
 508 671 l 257
 300 531 l 257
 91 671 l 257
 214 752 l 257
 300 668 l 257
EndSplineSet
EndChar

StartChar: Gcircumflex
Encoding: 284 284 274
Width: 826
VWidth: 0
Flags: HMW
LayerCount: 2
Fore
SplineSet
425 246 m 257
 425 392 l 257
 788 392 l 257
 804 162 670 -26 424 -26 c 256
 196 -26 32 125 32 350 c 256
 32 575 204 718 432 718 c 256
 586 718 687 644 755 547 c 257
 578 462 l 257
 550 512 506 552 432 552 c 256
 324 552 236 480 236 350 c 256
 236 220 316 140 432 140 c 256
 524 140 574 183 597 246 c 257
 425 246 l 257
432 861 m 257
 346 778 l 257
 223 858 l 257
 432 998 l 257
 640 858 l 257
 517 778 l 257
 432 861 l 257
EndSplineSet
EndChar

StartChar: gcircumflex
Encoding: 285 285 275
Width: 622
VWidth: 0
Flags: HMW
LayerCount: 2
Fore
SplineSet
41 -34 m 257
 208 -34 l 257
 214 -88 250 -106 300 -106 c 256
 362 -106 404 -66 404 10 c 258
 404 460 l 257
 569 460 l 257
 569 10 l 258
 569 -174 456 -242 308 -242 c 256
 124 -242 55 -157 41 -34 c 257
31 238 m 256
 31 395 138 470 247 470 c 256
 362 470 448 387 448 238 c 256
 448 89 362 6 247 6 c 256
 138 6 31 81 31 238 c 256
213 238 m 256
 213 176 258 142 310 142 c 256
 356 142 404 172 404 238 c 256
 404 304 356 334 310 334 c 256
 258 334 213 300 213 238 c 256
336 614 m 257
 250 531 l 257
 128 612 l 257
 336 752 l 257
 544 612 l 257
 422 531 l 257
 336 614 l 257
EndSplineSet
EndChar

StartChar: Gbreve
Encoding: 286 286 276
Width: 826
VWidth: 0
Flags: HMW
LayerCount: 2
Fore
SplineSet
425 246 m 257
 425 392 l 257
 788 392 l 257
 804 162 670 -26 424 -26 c 256
 196 -26 32 125 32 350 c 256
 32 575 204 718 432 718 c 256
 586 718 687 644 755 547 c 257
 578 462 l 257
 550 512 506 552 432 552 c 256
 324 552 236 480 236 350 c 256
 236 220 316 140 432 140 c 256
 524 140 574 183 597 246 c 257
 425 246 l 257
266 926 m 257
 373 926 l 257
 373 888 402 872 432 872 c 256
 462 872 490 888 490 926 c 257
 598 926 l 257
 598 841 537 778 432 778 c 256
 327 778 266 841 266 926 c 257
EndSplineSet
EndChar

StartChar: gbreve
Encoding: 287 287 277
Width: 622
VWidth: 0
Flags: HMW
LayerCount: 2
Fore
SplineSet
41 -34 m 257
 208 -34 l 257
 214 -88 250 -106 300 -106 c 256
 362 -106 404 -66 404 10 c 258
 404 460 l 257
 569 460 l 257
 569 10 l 258
 569 -174 456 -242 308 -242 c 256
 124 -242 55 -157 41 -34 c 257
31 238 m 256
 31 395 138 470 247 470 c 256
 362 470 448 387 448 238 c 256
 448 89 362 6 247 6 c 256
 138 6 31 81 31 238 c 256
213 238 m 256
 213 176 258 142 310 142 c 256
 356 142 404 172 404 238 c 256
 404 304 356 334 310 334 c 256
 258 334 213 300 213 238 c 256
170 679 m 257
 278 679 l 257
 278 641 306 624 336 624 c 256
 366 624 394 641 394 679 c 257
 502 679 l 257
 502 594 441 531 336 531 c 256
 231 531 170 594 170 679 c 257
EndSplineSet
EndChar

StartChar: Gdotaccent
Encoding: 288 288 278
Width: 826
VWidth: 0
Flags: HMW
LayerCount: 2
Fore
SplineSet
425 246 m 257
 425 392 l 257
 788 392 l 257
 804 162 670 -26 424 -26 c 256
 196 -26 32 125 32 350 c 256
 32 575 204 718 432 718 c 256
 586 718 687 644 755 547 c 257
 578 462 l 257
 550 512 506 552 432 552 c 256
 324 552 236 480 236 350 c 256
 236 220 316 140 432 140 c 256
 524 140 574 183 597 246 c 257
 425 246 l 257
334 868 m 256
 334 922 378 958 432 958 c 256
 486 958 530 922 530 868 c 256
 530 814 486 778 432 778 c 256
 378 778 334 814 334 868 c 256
EndSplineSet
EndChar

StartChar: gdotaccent
Encoding: 289 289 279
Width: 622
VWidth: 0
Flags: HMW
LayerCount: 2
Fore
SplineSet
41 -34 m 257
 208 -34 l 257
 214 -88 250 -106 300 -106 c 256
 362 -106 404 -66 404 10 c 258
 404 460 l 257
 569 460 l 257
 569 10 l 258
 569 -174 456 -242 308 -242 c 256
 124 -242 55 -157 41 -34 c 257
31 238 m 256
 31 395 138 470 247 470 c 256
 362 470 448 387 448 238 c 256
 448 89 362 6 247 6 c 256
 138 6 31 81 31 238 c 256
213 238 m 256
 213 176 258 142 310 142 c 256
 356 142 404 172 404 238 c 256
 404 304 356 334 310 334 c 256
 258 334 213 300 213 238 c 256
218 628 m 256
 218 682 262 718 316 718 c 256
 370 718 414 682 414 628 c 256
 414 574 370 538 316 538 c 256
 262 538 218 574 218 628 c 256
EndSplineSet
EndChar

StartChar: uni0122
Encoding: 290 290 280
Width: 826
VWidth: 0
Flags: HMW
LayerCount: 2
Fore
SplineSet
425 246 m 257
 425 392 l 257
 788 392 l 257
 804 162 670 -26 424 -26 c 256
 196 -26 32 125 32 350 c 256
 32 575 204 718 432 718 c 256
 586 718 687 644 755 547 c 257
 578 462 l 257
 550 512 506 552 432 552 c 256
 324 552 236 480 236 350 c 256
 236 220 316 140 432 140 c 256
 524 140 574 183 597 246 c 257
 425 246 l 257
340 -86 m 257
 513 -120 l 257
 383 -370 l 257
 252 -345 l 257
 340 -86 l 257
EndSplineSet
EndChar

StartChar: Hcircumflex
Encoding: 292 292 281
Width: 808
VWidth: 0
Flags: HMW
LayerCount: 2
Fore
SplineSet
119 280 m 257
 119 452 l 257
 664 452 l 257
 664 280 l 257
 119 280 l 257
542 700 m 257
 736 700 l 257
 736 0 l 257
 542 0 l 257
 542 700 l 257
72 700 m 257
 266 700 l 257
 266 0 l 257
 72 0 l 257
 72 700 l 257
404 861 m 257
 318 778 l 257
 196 858 l 257
 404 998 l 257
 613 858 l 257
 490 778 l 257
 404 861 l 257
EndSplineSet
EndChar

StartChar: hcircumflex
Encoding: 293 293 282
Width: 581
VWidth: 0
Flags: HMW
LayerCount: 2
Fore
SplineSet
228 780 m 257
 228 0 l 257
 55 0 l 257
 55 780 l 257
 228 780 l 257
354 280 m 258
 354 328 341 356 296 356 c 256
 254 356 228 330 228 280 c 257
 200 280 l 257
 200 389 249 479 369 479 c 256
 489 479 527 417 527 306 c 258
 527 0 l 257
 354 0 l 257
 354 280 l 258
264 923 m 257
 179 840 l 257
 56 920 l 257
 264 1060 l 257
 473 920 l 257
 350 840 l 257
 264 923 l 257
EndSplineSet
EndChar

StartChar: Itilde
Encoding: 296 296 283
Width: 342
VWidth: 0
Flags: HMW
LayerCount: 2
Fore
SplineSet
72 700 m 257
 270 700 l 257
 270 0 l 257
 72 0 l 257
 72 700 l 257
-34 852 m 257
 -24 901 20 950 90 950 c 256
 156 950 173 897 230 897 c 256
 257 897 278 920 298 952 c 257
 377 868 l 257
 361 831 300 779 234 779 c 256
 179 779 140 834 90 834 c 256
 53 834 42 798 42 783 c 257
 -34 852 l 257
EndSplineSet
EndChar

StartChar: itilde
Encoding: 297 297 284
Width: 281
VWidth: 0
Flags: HMW
LayerCount: 2
Fore
SplineSet
57 460 m 257
 224 460 l 257
 224 0 l 257
 57 0 l 257
 57 460 l 257
-65 605 m 257
 -55 654 -12 704 58 704 c 256
 124 704 141 650 198 650 c 256
 225 650 248 672 268 704 c 257
 346 621 l 257
 330 584 269 532 203 532 c 256
 148 532 108 586 58 586 c 256
 21 586 12 551 12 536 c 257
 -65 605 l 257
EndSplineSet
EndChar

StartChar: Imacron
Encoding: 298 298 285
Width: 342
VWidth: 0
Flags: HMW
LayerCount: 2
Fore
SplineSet
72 700 m 257
 270 700 l 257
 270 0 l 257
 72 0 l 257
 72 700 l 257
-18 778 m 257
 -18 926 l 257
 360 926 l 257
 360 778 l 257
 -18 778 l 257
EndSplineSet
EndChar

StartChar: imacron
Encoding: 299 299 286
Width: 281
VWidth: 0
Flags: HMW
LayerCount: 2
Fore
SplineSet
57 460 m 257
 224 460 l 257
 224 0 l 257
 57 0 l 257
 57 460 l 257
-49 531 m 257
 -49 678 l 257
 330 678 l 257
 330 531 l 257
 -49 531 l 257
EndSplineSet
EndChar

StartChar: Ibreve
Encoding: 300 300 287
Width: 342
VWidth: 0
Flags: HMW
LayerCount: 2
Fore
SplineSet
72 700 m 257
 270 700 l 257
 270 0 l 257
 72 0 l 257
 72 700 l 257
4 926 m 257
 112 926 l 257
 112 888 141 872 171 872 c 256
 201 872 230 888 230 926 c 257
 337 926 l 257
 337 841 276 778 171 778 c 256
 66 778 4 841 4 926 c 257
EndSplineSet
EndChar

StartChar: ibreve
Encoding: 301 301 288
Width: 281
VWidth: 0
Flags: HMW
LayerCount: 2
Fore
SplineSet
57 460 m 257
 224 460 l 257
 224 0 l 257
 57 0 l 257
 57 460 l 257
-26 679 m 257
 81 679 l 257
 81 641 110 624 140 624 c 256
 170 624 198 641 198 679 c 257
 306 679 l 257
 306 594 245 531 140 531 c 256
 35 531 -26 594 -26 679 c 257
EndSplineSet
EndChar

StartChar: Iogonek
Encoding: 302 302 289
Width: 342
VWidth: 0
Flags: HMW
LayerCount: 2
Fore
SplineSet
72 700 m 257
 270 700 l 257
 270 0 l 257
 72 0 l 257
 72 700 l 257
242 -104 m 257
 275 -178 l 257
 260 -198 230 -218 171 -218 c 256
 111 -218 55 -185 55 -118 c 256
 55 -51 126 -8 196 28 c 257
 237 2 l 257
 185 -28 160 -61 160 -90 c 256
 160 -112 170 -124 192 -124 c 256
 210 -124 228 -117 242 -104 c 257
EndSplineSet
EndChar

StartChar: iogonek
Encoding: 303 303 290
Width: 281
VWidth: 0
Flags: HMW
LayerCount: 2
Fore
SplineSet
42 627 m 256
 42 681 86 717 140 717 c 256
 194 717 238 681 238 627 c 256
 238 573 194 537 140 537 c 256
 86 537 42 573 42 627 c 256
56 460 m 257
 224 460 l 257
 224 0 l 257
 56 0 l 257
 56 460 l 257
199 -106 m 257
 232 -180 l 257
 217 -200 187 -220 128 -220 c 256
 68 -220 13 -187 13 -120 c 256
 13 -53 83 -11 153 25 c 257
 194 0 l 257
 142 -30 117 -63 117 -92 c 256
 117 -114 127 -126 149 -126 c 256
 167 -126 185 -119 199 -106 c 257
EndSplineSet
EndChar

StartChar: Idotaccent
Encoding: 304 304 291
Width: 342
VWidth: 0
Flags: HMW
LayerCount: 2
Fore
SplineSet
72 700 m 257
 270 700 l 257
 270 0 l 257
 72 0 l 257
 72 700 l 257
72 868 m 256
 72 922 116 958 170 958 c 256
 224 958 268 922 268 868 c 256
 268 814 224 778 170 778 c 256
 116 778 72 814 72 868 c 256
EndSplineSet
EndChar

StartChar: uni0136
Encoding: 310 310 292
Width: 739
VWidth: 0
Flags: HMW
LayerCount: 2
Fore
SplineSet
72 700 m 257
 274 700 l 257
 274 0 l 257
 72 0 l 257
 72 700 l 257
500 700 m 257
 728 700 l 257
 450 372 l 257
 743 0 l 257
 508 0 l 257
 218 366 l 257
 500 700 l 257
332 -60 m 257
 506 -93 l 257
 375 -343 l 257
 244 -319 l 257
 332 -60 l 257
EndSplineSet
EndChar

StartChar: uni0137
Encoding: 311 311 293
Width: 618
VWidth: 0
Flags: HMW
LayerCount: 2
Fore
SplineSet
54 780 m 257
 219 780 l 257
 219 0 l 257
 54 0 l 257
 54 780 l 257
386 460 m 257
 590 460 l 257
 394 270 l 257
 610 0 l 257
 409 0 l 257
 190 270 l 257
 386 460 l 257
256 -60 m 257
 430 -93 l 257
 300 -343 l 257
 168 -319 l 257
 256 -60 l 257
EndSplineSet
EndChar

StartChar: Lacute
Encoding: 313 313 294
Width: 551
VWidth: 0
Flags: HMW
LayerCount: 2
Fore
SplineSet
72 700 m 257
 266 700 l 257
 266 165 l 257
 550 165 l 257
 550 0 l 257
 72 0 l 257
 72 700 l 257
481 928 m 257
 301 778 l 257
 203 824 l 257
 353 984 l 257
 481 928 l 257
EndSplineSet
EndChar

StartChar: lacute
Encoding: 314 314 295
Width: 282
VWidth: 0
Flags: HMW
LayerCount: 2
Fore
SplineSet
55 780 m 257
 228 780 l 257
 228 0 l 257
 55 0 l 257
 55 780 l 257
312 990 m 257
 132 840 l 257
 34 886 l 257
 184 1046 l 257
 312 990 l 257
EndSplineSet
EndChar

StartChar: uni013B
Encoding: 315 315 296
Width: 551
VWidth: 0
Flags: HMW
LayerCount: 2
Fore
SplineSet
72 700 m 257
 266 700 l 257
 266 165 l 257
 550 165 l 257
 550 0 l 257
 72 0 l 257
 72 700 l 257
268 -60 m 257
 441 -93 l 257
 311 -343 l 257
 180 -319 l 257
 268 -60 l 257
EndSplineSet
EndChar

StartChar: uni013C
Encoding: 316 316 297
Width: 282
VWidth: 0
Flags: HMW
LayerCount: 2
Fore
SplineSet
55 780 m 257
 228 780 l 257
 228 0 l 257
 55 0 l 257
 55 780 l 257
99 -60 m 257
 272 -93 l 257
 142 -343 l 257
 11 -319 l 257
 99 -60 l 257
EndSplineSet
EndChar

StartChar: Lcaron
Encoding: 317 317 298
Width: 551
VWidth: 0
Flags: HMW
LayerCount: 2
Fore
SplineSet
72 700 m 257
 266 700 l 257
 266 165 l 257
 550 165 l 257
 550 0 l 257
 72 0 l 257
 72 700 l 257
438 718 m 257
 610 685 l 257
 480 435 l 257
 350 459 l 257
 438 718 l 257
EndSplineSet
EndChar

StartChar: lcaron
Encoding: 318 318 299
Width: 282
VWidth: 0
Flags: HMW
LayerCount: 2
Fore
SplineSet
55 780 m 257
 228 780 l 257
 228 0 l 257
 55 0 l 257
 55 780 l 257
366 780 m 257
 539 747 l 257
 409 497 l 257
 278 521 l 257
 366 780 l 257
EndSplineSet
EndChar

StartChar: Ldot
Encoding: 319 319 300
Width: 551
VWidth: 0
Flags: HMW
LayerCount: 2
Fore
SplineSet
72 700 m 257
 266 700 l 257
 266 165 l 257
 550 165 l 257
 550 0 l 257
 72 0 l 257
 72 700 l 257
344 435 m 256
 344 491 388 539 450 539 c 256
 512 539 556 491 556 435 c 256
 556 379 512 332 450 332 c 256
 388 332 344 379 344 435 c 256
EndSplineSet
EndChar

StartChar: ldot
Encoding: 320 320 301
Width: 508
VWidth: 0
Flags: HMW
LayerCount: 2
Fore
SplineSet
55 780 m 257
 228 780 l 257
 228 0 l 257
 55 0 l 257
 55 780 l 257
264 407 m 256
 264 463 308 510 370 510 c 256
 432 510 476 463 476 407 c 256
 476 351 432 304 370 304 c 256
 308 304 264 351 264 407 c 256
EndSplineSet
EndChar

StartChar: eth
Encoding: 240 240 302
Width: 697
VWidth: 0
Flags: HMW
LayerCount: 2
Fore
SplineSet
454 250 m 256
 454 314 408 356 348 356 c 256
 288 356 243 314 243 250 c 256
 243 186 288 146 348 146 c 256
 408 146 454 186 454 250 c 256
364 696 m 257
 555 460 l 258
 607 398 648 332 648 250 c 256
 648 70 512 -18 348 -18 c 256
 184 -18 50 70 50 250 c 256
 50 395 167 478 269 478 c 256
 321 478 348 470 389 433 c 257
 346 454 l 257
 117 696 l 257
 364 696 l 257
130 520 m 257
 130 601 l 257
 609 601 l 257
 609 520 l 257
 130 520 l 257
EndSplineSet
EndChar

StartChar: racute
Encoding: 341 341 303
Width: 432
VWidth: 0
Flags: HMW
LayerCount: 2
Fore
SplineSet
224 460 m 257
 224 0 l 257
 55 0 l 257
 55 460 l 257
 224 460 l 257
354 283 m 257
 340 299 323 310 297 310 c 256
 257 310 224 277 224 211 c 257
 188 280 l 257
 188 389 264 472 345 472 c 256
 378 472 413 454 427 432 c 257
 354 283 l 257
412 682 m 257
 232 532 l 257
 134 578 l 257
 284 738 l 257
 412 682 l 257
EndSplineSet
EndChar

StartChar: rcaron
Encoding: 345 345 304
Width: 432
VWidth: 0
Flags: HMW
LayerCount: 2
Fore
SplineSet
224 460 m 257
 224 0 l 257
 55 0 l 257
 55 460 l 257
 224 460 l 257
354 283 m 257
 340 299 323 310 297 310 c 256
 257 310 224 277 224 211 c 257
 188 280 l 257
 188 389 264 472 345 472 c 256
 378 472 413 454 427 432 c 257
 354 283 l 257
241 670 m 257
 326 752 l 257
 450 672 l 257
 241 532 l 257
 32 672 l 257
 155 752 l 257
 241 670 l 257
EndSplineSet
EndChar

StartChar: Rcaron
Encoding: 344 344 305
Width: 673
VWidth: 0
Flags: HMW
LayerCount: 2
Fore
SplineSet
262 308 m 257
 462 308 l 257
 672 0 l 257
 445 0 l 257
 262 308 l 257
72 700 m 257
 266 700 l 257
 266 0 l 257
 72 0 l 257
 72 700 l 257
196 536 m 257
 196 700 l 257
 347 700 l 258
 539 700 630 603 630 466 c 256
 630 329 539 232 347 232 c 258
 196 232 l 257
 196 380 l 257
 330 380 l 258
 392 380 427 408 427 458 c 256
 427 508 392 536 330 536 c 258
 196 536 l 257
330 916 m 257
 416 998 l 257
 539 918 l 257
 330 778 l 257
 122 918 l 257
 244 998 l 257
 330 916 l 257
EndSplineSet
EndChar

StartChar: uni0213
Encoding: 531 531 306
Width: 432
VWidth: 0
Flags: HMW
LayerCount: 2
Fore
SplineSet
224 460 m 257
 224 0 l 257
 55 0 l 257
 55 460 l 257
 224 460 l 257
354 283 m 257
 340 299 323 310 297 310 c 256
 257 310 224 277 224 211 c 257
 188 280 l 257
 188 389 264 472 345 472 c 256
 378 472 413 454 427 432 c 257
 354 283 l 257
75 532 m 257
 182 532 l 257
 182 570 211 586 241 586 c 256
 271 586 300 570 300 532 c 257
 407 532 l 257
 407 617 346 680 241 680 c 256
 136 680 75 617 75 532 c 257
EndSplineSet
EndChar

StartChar: uni0212
Encoding: 530 530 307
Width: 673
VWidth: 0
Flags: HMW
LayerCount: 2
Fore
SplineSet
262 308 m 257
 462 308 l 257
 672 0 l 257
 445 0 l 257
 262 308 l 257
72 700 m 257
 266 700 l 257
 266 0 l 257
 72 0 l 257
 72 700 l 257
196 536 m 257
 196 700 l 257
 347 700 l 258
 539 700 630 603 630 466 c 256
 630 329 539 232 347 232 c 258
 196 232 l 257
 196 380 l 257
 330 380 l 258
 392 380 427 408 427 458 c 256
 427 508 392 536 330 536 c 258
 196 536 l 257
176 778 m 257
 284 778 l 257
 284 816 312 833 342 833 c 256
 372 833 401 816 401 778 c 257
 508 778 l 257
 508 863 447 926 342 926 c 256
 237 926 176 863 176 778 c 257
EndSplineSet
EndChar

StartChar: OE
Encoding: 338 338 308
Width: 985
VWidth: 0
Flags: HMW
LayerCount: 2
Fore
SplineSet
562 288 m 257
 562 440 l 257
 940 440 l 257
 940 288 l 257
 562 288 l 257
474 670 m 257
 660 670 l 257
 660 30 l 257
 474 30 l 257
 474 670 l 257
960 157 m 257
 960 0 l 257
 390 0 l 258
 187 0 32 141 32 350 c 256
 32 559 186 700 390 700 c 258
 960 700 l 257
 960 543 l 257
 568 543 l 257
 551 531 l 257
 430 531 l 258
 296 531 234 472 234 350 c 256
 234 228 298 169 430 169 c 258
 548 169 l 257
 572 157 l 257
 960 157 l 257
EndSplineSet
EndChar

StartChar: oe
Encoding: 339 339 309
Width: 900
VWidth: 0
Flags: HMW
LayerCount: 2
Fore
SplineSet
683 250 m 258
 683 320 658 360 608 360 c 256
 560 360 519 330 519 260 c 257
 517 230 l 257
 517 148 552 106 610 106 c 256
 661 106 688 128 714 162 c 257
 869 132 l 257
 831 54 739 -10 640 -10 c 256
 515 -10 430 91 430 230 c 256
 430 247 431 263 434 279 c 256
 453 392 539 470 658 470 c 256
 768 470 865 379 865 234 c 256
 865 226 863 202 862 194 c 257
 683 230 l 257
 683 250 l 258
481 194 m 257
 481 282 l 257
 844 282 l 257
 862 194 l 257
 481 194 l 257
35 230 m 256
 35 379 138 470 263 470 c 256
 388 470 466 379 466 230 c 256
 466 81 388 -10 263 -10 c 256
 138 -10 35 81 35 230 c 256
205 230 m 256
 205 164 246 130 298 130 c 256
 352 130 386 164 386 230 c 256
 386 296 352 330 298 330 c 256
 246 330 205 296 205 230 c 256
EndSplineSet
EndChar

StartChar: a.alt
Encoding: 65536 -1 310
Width: 630
VWidth: 0
Flags: HMW
LayerCount: 2
Fore
SplineSet
405 460 m 257
 577 460 l 257
 577 0 l 257
 405 0 l 257
 405 460 l 257
31 230 m 256
 31 387 138 470 247 470 c 256
 362 470 448 379 448 230 c 256
 448 81 362 -10 247 -10 c 256
 138 -10 31 73 31 230 c 256
213 230 m 256
 213 168 258 126 310 126 c 256
 356 126 404 164 404 230 c 256
 404 296 356 334 310 334 c 256
 258 334 213 292 213 230 c 256
EndSplineSet
EndChar

StartChar: Jcircumflex
Encoding: 308 308 312
Width: 357
VWidth: 0
Flags: HMW
LayerCount: 2
Fore
SplineSet
-74 -52 m 257
 -52 -68 -20 -84 8 -84 c 256
 38 -84 72 -64 72 -6 c 258
 72 700 l 257
 286 700 l 257
 286 -52 l 258
 286 -194 166 -244 32 -244 c 256
 -54 -244 -132 -214 -180 -186 c 257
 -74 -52 l 257
178 861 m 257
 92 778 l 257
 -30 858 l 257
 178 998 l 257
 387 858 l 257
 264 778 l 257
 178 861 l 257
EndSplineSet
EndChar

StartChar: jcircumflex
Encoding: 309 309 313
Width: 278
VWidth: 0
Flags: HMW
LayerCount: 2
Fore
SplineSet
-38 -66 m 257
 -25 -82 -10 -92 8 -92 c 256
 38 -92 56 -72 56 -30 c 258
 56 460 l 257
 220 460 l 257
 220 -76 l 258
 220 -177 159 -244 35 -244 c 256
 -41 -244 -81 -210 -104 -190 c 257
 -38 -66 l 257
138 614 m 257
 52 531 l 257
 -71 612 l 257
 138 752 l 257
 346 612 l 257
 224 531 l 257
 138 614 l 257
EndSplineSet
EndChar

StartChar: Nacute
Encoding: 323 323 314
Width: 799
VWidth: 0
Flags: HMW
LayerCount: 2
Fore
SplineSet
541 700 m 257
 728 700 l 257
 728 -35 l 257
 258 355 l 257
 258 0 l 257
 72 0 l 257
 72 735 l 257
 541 345 l 257
 541 700 l 257
544 913 m 257
 364 763 l 257
 266 810 l 257
 416 970 l 257
 544 913 l 257
EndSplineSet
EndChar

StartChar: nacute
Encoding: 324 324 315
Width: 589
VWidth: 0
Flags: HMW
LayerCount: 2
Fore
SplineSet
228 460 m 257
 228 0 l 257
 55 0 l 257
 55 460 l 257
 228 460 l 257
354 280 m 258
 354 328 341 356 296 356 c 256
 254 356 228 330 228 280 c 257
 202 272 l 257
 202 381 249 471 369 471 c 256
 489 471 535 409 535 298 c 258
 535 0 l 257
 354 0 l 257
 354 280 l 258
467 681 m 257
 287 531 l 257
 190 577 l 257
 340 737 l 257
 467 681 l 257
EndSplineSet
EndChar

StartChar: uni0145
Encoding: 325 325 316
Width: 799
VWidth: 0
Flags: HMW
LayerCount: 2
Fore
SplineSet
353 -60 m 257
 525 -92 l 257
 396 -342 l 257
 265 -318 l 257
 353 -60 l 257
541 700 m 257
 728 700 l 257
 728 -35 l 257
 258 355 l 257
 258 0 l 257
 72 0 l 257
 72 735 l 257
 541 345 l 257
 541 700 l 257
EndSplineSet
EndChar

StartChar: uni0146
Encoding: 326 326 317
Width: 589
VWidth: 0
Flags: HMW
LayerCount: 2
Fore
SplineSet
228 460 m 257
 228 0 l 257
 55 0 l 257
 55 460 l 257
 228 460 l 257
354 280 m 258
 354 328 341 356 296 356 c 256
 254 356 228 330 228 280 c 257
 200 272 l 257
 200 381 249 471 369 471 c 256
 489 471 535 409 535 298 c 258
 535 0 l 257
 354 0 l 257
 354 280 l 258
252 -60 m 257
 426 -93 l 257
 295 -343 l 257
 164 -319 l 257
 252 -60 l 257
EndSplineSet
EndChar

StartChar: Ncaron
Encoding: 327 327 318
Width: 799
VWidth: 0
Flags: HMW
LayerCount: 2
Fore
SplineSet
368 908 m 257
 454 991 l 257
 576 910 l 257
 368 770 l 257
 159 910 l 257
 282 991 l 257
 368 908 l 257
541 700 m 257
 728 700 l 257
 728 -35 l 257
 258 355 l 257
 258 0 l 257
 72 0 l 257
 72 735 l 257
 541 345 l 257
 541 700 l 257
EndSplineSet
EndChar

StartChar: ncaron
Encoding: 328 328 319
Width: 589
VWidth: 0
Flags: HMW
LayerCount: 2
Fore
SplineSet
228 460 m 257
 228 0 l 257
 55 0 l 257
 55 460 l 257
 228 460 l 257
354 280 m 258
 354 328 341 356 296 356 c 256
 254 356 228 330 228 280 c 257
 200 272 l 257
 200 381 249 471 369 471 c 256
 489 471 535 409 535 298 c 258
 535 0 l 257
 354 0 l 257
 354 280 l 258
294 668 m 257
 380 752 l 257
 503 671 l 257
 294 531 l 257
 86 671 l 257
 208 752 l 257
 294 668 l 257
EndSplineSet
EndChar

StartChar: Omacron
Encoding: 332 332 320
Width: 830
VWidth: 0
Flags: HMW
LayerCount: 2
Fore
SplineSet
238 350 m 256
 238 236 307 158 415 158 c 256
 523 158 593 236 593 350 c 256
 593 464 527 542 415 542 c 256
 307 542 238 464 238 350 c 256
32 350 m 256
 32 570 199 718 415 718 c 256
 635 718 798 570 798 350 c 256
 798 130 639 -26 415 -26 c 256
 191 -26 32 130 32 350 c 256
226 778 m 257
 226 926 l 257
 604 926 l 257
 604 778 l 257
 226 778 l 257
EndSplineSet
EndChar

StartChar: omacron
Encoding: 333 333 321
Width: 602
VWidth: 0
Flags: HMW
LayerCount: 2
Fore
SplineSet
31 230 m 256
 31 377 147 471 302 471 c 256
 457 471 572 377 572 230 c 256
 572 83 457 -10 302 -10 c 256
 147 -10 31 83 31 230 c 256
209 230 m 256
 209 166 252 130 302 130 c 256
 352 130 394 166 394 230 c 256
 394 294 352 331 302 331 c 256
 252 331 209 294 209 230 c 256
112 531 m 257
 112 678 l 257
 490 678 l 257
 490 531 l 257
 112 531 l 257
EndSplineSet
EndChar

StartChar: Obreve
Encoding: 334 334 322
Width: 830
VWidth: 0
Flags: HMW
LayerCount: 2
Fore
SplineSet
238 350 m 256
 238 236 307 158 415 158 c 256
 523 158 593 236 593 350 c 256
 593 464 527 542 415 542 c 256
 307 542 238 464 238 350 c 256
32 350 m 256
 32 570 199 718 415 718 c 256
 635 718 798 570 798 350 c 256
 798 130 639 -26 415 -26 c 256
 191 -26 32 130 32 350 c 256
249 926 m 257
 356 926 l 257
 356 888 385 872 415 872 c 256
 445 872 474 888 474 926 c 257
 582 926 l 257
 582 841 520 778 415 778 c 256
 310 778 249 841 249 926 c 257
EndSplineSet
EndChar

StartChar: obreve
Encoding: 335 335 323
Width: 602
VWidth: 0
Flags: HMW
LayerCount: 2
Fore
SplineSet
31 230 m 256
 31 377 147 471 302 471 c 256
 457 471 572 377 572 230 c 256
 572 83 457 -10 302 -10 c 256
 147 -10 31 83 31 230 c 256
209 230 m 256
 209 166 252 130 302 130 c 256
 352 130 394 166 394 230 c 256
 394 294 352 331 302 331 c 256
 252 331 209 294 209 230 c 256
135 679 m 257
 242 679 l 257
 242 641 272 624 302 624 c 256
 332 624 360 641 360 679 c 257
 468 679 l 257
 468 594 407 531 302 531 c 256
 197 531 135 594 135 679 c 257
EndSplineSet
EndChar

StartChar: Racute
Encoding: 340 340 324
Width: 673
VWidth: 0
Flags: HMW
LayerCount: 2
Fore
SplineSet
262 308 m 257
 462 308 l 257
 672 0 l 257
 445 0 l 257
 262 308 l 257
72 700 m 257
 266 700 l 257
 266 0 l 257
 72 0 l 257
 72 700 l 257
196 536 m 257
 196 700 l 257
 347 700 l 258
 539 700 630 603 630 466 c 256
 630 329 539 232 347 232 c 258
 196 232 l 257
 196 380 l 257
 330 380 l 258
 392 380 427 408 427 458 c 256
 427 508 392 536 330 536 c 258
 196 536 l 257
488 928 m 257
 308 778 l 257
 211 824 l 257
 361 984 l 257
 488 928 l 257
EndSplineSet
EndChar

StartChar: uni0156
Encoding: 342 342 325
Width: 673
VWidth: 0
Flags: HMW
LayerCount: 2
Fore
SplineSet
262 308 m 257
 462 308 l 257
 672 0 l 257
 445 0 l 257
 262 308 l 257
72 700 m 257
 266 700 l 257
 266 0 l 257
 72 0 l 257
 72 700 l 257
196 536 m 257
 196 700 l 257
 347 700 l 258
 539 700 630 603 630 466 c 256
 630 329 539 232 347 232 c 258
 196 232 l 257
 196 380 l 257
 330 380 l 258
 392 380 427 408 427 458 c 256
 427 508 392 536 330 536 c 258
 196 536 l 257
330 -60 m 257
 502 -93 l 257
 372 -343 l 257
 242 -319 l 257
 330 -60 l 257
EndSplineSet
EndChar

StartChar: uni0157
Encoding: 343 343 326
Width: 432
VWidth: 0
Flags: HMW
LayerCount: 2
Fore
SplineSet
224 460 m 257
 224 0 l 257
 55 0 l 257
 55 460 l 257
 224 460 l 257
354 283 m 257
 340 299 323 310 297 310 c 256
 257 310 224 277 224 211 c 257
 188 280 l 257
 188 389 264 472 345 472 c 256
 378 472 413 454 427 432 c 257
 354 283 l 257
97 -60 m 257
 270 -93 l 257
 140 -343 l 257
 9 -319 l 257
 97 -60 l 257
EndSplineSet
EndChar

StartChar: Scedilla
Encoding: 350 350 327
Width: 648
VWidth: 0
Flags: HMW
LayerCount: 2
Fore
SplineSet
166 258 m 257
 216 178 261 142 332 142 c 256
 380 142 406 158 406 196 c 256
 406 246 348 259 268 291 c 256
 200 319 74 370 74 514 c 256
 74 636 178 718 334 718 c 256
 496 718 572 636 602 563 c 257
 456 482 l 257
 426 532 388 556 341 556 c 256
 299 556 272 537 272 509 c 256
 272 467 351 448 433 418 c 256
 537 382 612 317 612 198 c 256
 612 48 498 -26 328 -26 c 256
 197 -26 76 48 32 163 c 257
 166 258 l 257
288 62 m 257
 414 56 l 257
 321 -68 l 257
 334 -64 349 -64 365 -64 c 256
 407 -64 462 -97 462 -168 c 256
 462 -244 390 -282 324 -282 c 256
 262 -282 216 -272 164 -242 c 257
 213 -165 l 257
 240 -184 280 -190 298 -190 c 256
 332 -190 354 -181 354 -157 c 256
 354 -130 320 -126 290 -126 c 256
 280 -126 239 -128 200 -142 c 257
 288 62 l 257
EndSplineSet
EndChar

StartChar: scedilla
Encoding: 351 351 328
Width: 469
VWidth: 0
Flags: HMW
LayerCount: 2
Fore
SplineSet
81 178 m 257
 163.5 119.5 218 104 243.5 104 c 256
 266.5 104 278 114.5 278 131 c 256
 278 159 233.5 171 182 189 c 256
 116 212.5 52.5 248 52.5 337 c 256
 52.5 416 125 470 230.5 470 c 256
 311.5 470 378.5 443 435.5 407.5 c 257
 384 294.5 l 257
 339 331 286.5 354 249.5 354 c 256
 219.5 354 209.5 343 209.5 330.5 c 256
 209.5 301.5 261 294 320.5 271.5 c 256
 385.5 247 447.5 217.5 447.5 130 c 256
 447.5 28 382 -22 267.5 -22 c 256
 167 -22 86 11 17 62.5 c 257
 81 178 l 257
225 69.4004 m 257
 350 65.4004 l 257
 257 -59.5996 l 257
 270 -55.5996 285 -54.5996 301 -54.5996 c 256
 343 -54.5996 399 -88.5996 399 -159.6 c 256
 399 -235.6 326 -272.6 260 -272.6 c 256
 198 -272.6 151 -263.6 99 -233.6 c 257
 149 -156.6 l 257
 176 -175.6 216 -182.6 234 -182.6 c 256
 268 -182.6 289 -172.6 289 -148.6 c 256
 289 -121.6 256 -116.6 226 -116.6 c 256
 216 -116.6 176 -118.6 137 -132.6 c 257
 225 69.4004 l 257
EndSplineSet
EndChar

StartChar: Zcaron
Encoding: 381 381 329
Width: 642
VWidth: 0
Flags: HMW
LayerCount: 2
Fore
SplineSet
64 527 m 257
 64 700 l 257
 630 700 l 257
 311 165 l 257
 590 165 l 257
 590 0 l 257
 7 0 l 257
 320 527 l 257
 64 527 l 257
346 916 m 257
 432 998 l 257
 555 918 l 257
 346 778 l 257
 138 918 l 257
 260 998 l 257
 346 916 l 257
EndSplineSet
EndChar

StartChar: zcaron
Encoding: 382 382 330
Width: 532
VWidth: 0
Flags: HMW
LayerCount: 2
Fore
SplineSet
294 668 m 257
 380 750 l 257
 502 670 l 257
 294 530 l 257
 85 670 l 257
 208 750 l 257
 294 668 l 257
245 304 m 257
 61 304 l 257
 61 460 l 257
 526 460 l 257
 311 156 l 257
 490 156 l 257
 490 0 l 257
 15 0 l 257
 245 304 l 257
EndSplineSet
EndChar

StartChar: Ydieresis
Encoding: 376 376 331
Width: 689
VWidth: 0
Flags: HMW
LayerCount: 2
Fore
SplineSet
94 882 m 256
 94 936 138 972 192 972 c 256
 246 972 290 936 290 882 c 256
 290 828 246 792 192 792 c 256
 138 792 94 828 94 882 c 256
400 882 m 256
 400 936 444 972 498 972 c 256
 552 972 596 936 596 882 c 256
 596 828 552 792 498 792 c 256
 444 792 400 828 400 882 c 256
468 700 m 257
 693 700 l 257
 444 280 l 257
 444 0 l 257
 246 0 l 257
 246 279 l 257
 -3 700 l 257
 222 700 l 257
 345 456 l 257
 468 700 l 257
EndSplineSet
EndChar

StartChar: Scaron
Encoding: 352 352 332
Width: 648
VWidth: 0
Flags: HMW
LayerCount: 2
Fore
SplineSet
166 258 m 257
 216 178 261 142 332 142 c 256
 380 142 406 158 406 196 c 256
 406 246 348 259 268 291 c 256
 200 319 74 373 74 515 c 256
 74 637 180 718 334 718 c 256
 496 718 574 634 602 563 c 257
 456 482 l 257
 426 532 390 556 343 556 c 256
 301 556 272 537 272 509 c 256
 272 467 351 448 433 418 c 256
 537 382 612 317 612 198 c 256
 612 48 500 -26 328 -26 c 256
 197 -26 76 48 32 163 c 257
 166 258 l 257
334 916 m 257
 420 998 l 257
 542 918 l 257
 334 778 l 257
 126 918 l 257
 248 998 l 257
 334 916 l 257
EndSplineSet
EndChar

StartChar: scaron
Encoding: 353 353 333
Width: 471
VWidth: 0
Flags: HMW
LayerCount: 2
Fore
SplineSet
80 179 m 257
 165 118 218 107 242 107 c 256
 262 107 278 112 278 130 c 256
 278 160 204 166 150 192 c 256
 90 221 38 252 38 333 c 256
 38 425 126 470 232 470 c 256
 313 470 380 443 438 408 c 257
 387 293 l 257
 347 329 281 350 244 350 c 256
 214 350 203 344 203 328 c 256
 203 304 263 291 323 269 c 256
 388 245 450 213 450 130 c 256
 450 23 385 -22 270 -22 c 256
 169 -22 87 10 17 60 c 257
 80 179 l 257
232 652 m 257
 317 735 l 257
 440 654 l 257
 232 514 l 257
 23 654 l 257
 146 735 l 257
 232 652 l 257
EndSplineSet
EndChar

StartChar: Lslash
Encoding: 321 321 334
Width: 559
VWidth: 0
Flags: HMW
LayerCount: 2
Fore
SplineSet
5 300 m 257
 -40 379 l 257
 352 646 l 257
 396 566 l 257
 5 300 l 257
72 700 m 257
 266 700 l 257
 266 165 l 257
 550 165 l 257
 550 0 l 257
 72 0 l 257
 72 700 l 257
EndSplineSet
EndChar

StartChar: lslash
Encoding: 322 322 335
Width: 282
VWidth: 0
Flags: HMW
LayerCount: 2
Fore
SplineSet
-11 300 m 257
 -56 379 l 257
 300 618 l 257
 344 538 l 257
 -11 300 l 257
55 780 m 257
 228 780 l 257
 228 0 l 257
 55 0 l 257
 55 780 l 257
EndSplineSet
EndChar

StartChar: uni0218
Encoding: 536 536 336
Width: 648
VWidth: 0
Flags: HMW
LayerCount: 2
Fore
SplineSet
166 258 m 257
 216 178 261 142 332 142 c 256
 380 142 406 158 406 196 c 256
 406 246 348 259 268 291 c 256
 200 319 74 373 74 515 c 256
 74 637 180 718 334 718 c 256
 496 718 574 634 602 563 c 257
 456 482 l 257
 426 532 390 556 343 556 c 256
 301 556 272 537 272 509 c 256
 272 467 351 448 433 418 c 256
 537 382 612 317 612 198 c 256
 612 48 500 -26 328 -26 c 256
 197 -26 76 48 32 163 c 257
 166 258 l 257
252 -70 m 257
 426 -103 l 257
 295 -353 l 257
 164 -329 l 257
 252 -70 l 257
EndSplineSet
EndChar

StartChar: uni0219
Encoding: 537 537 337
Width: 471
VWidth: 0
Flags: HMW
LayerCount: 2
Fore
SplineSet
80 179 m 257
 165 118 218 107 242 107 c 256
 262 107 278 112 278 130 c 256
 278 160 204 166 150 192 c 256
 90 221 38 252 38 333 c 256
 38 425 126 470 232 470 c 256
 313 470 380 443 438 408 c 257
 387 293 l 257
 347 329 281 350 244 350 c 256
 214 350 203 344 203 328 c 256
 203 304 263 291 323 269 c 256
 388 245 450 213 450 130 c 256
 450 23 385 -22 270 -22 c 256
 169 -22 87 10 17 60 c 257
 80 179 l 257
195 -66 m 257
 368 -99 l 257
 238 -349 l 257
 107 -325 l 257
 195 -66 l 257
EndSplineSet
EndChar

StartChar: pi
Encoding: 960 960 338
Width: 621
VWidth: 0
Flags: HMW
LayerCount: 2
Fore
SplineSet
90 430 m 257
 251 430 l 257
 251 0 l 257
 90 0 l 257
 90 430 l 257
30 460 m 257
 581 460 l 257
 581 320 l 257
 30 320 l 257
 30 460 l 257
340 430 m 257
 501 430 l 257
 501 190 l 258
 501 124 524 120 554 120 c 257
 554 -9 l 257
 414 -9 340 -4 340 121 c 258
 340 430 l 257
EndSplineSet
EndChar

StartChar: trademark
Encoding: 8482 8482 339
Width: 770
VWidth: 0
Flags: HMW
LayerCount: 2
Fore
SplineSet
29 613 m 257
 29 700 l 257
 322 700 l 257
 322 613 l 257
 224 613 l 257
 224 350 l 257
 127 350 l 257
 127 613 l 257
 29 613 l 257
614 590 m 257
 686 718 l 257
 746 350 l 257
 644 350 l 257
 614 590 l 257
382 718 m 257
 453 590 l 257
 424 350 l 257
 320 350 l 257
 382 718 l 257
686 718 m 257
 686 594 l 257
 534 382 l 257
 382 594 l 257
 382 718 l 257
 534 516 l 257
 686 718 l 257
EndSplineSet
EndChar

StartChar: uni2219
Encoding: 8729 8729 340
Width: 329
VWidth: 0
Flags: HMW
LayerCount: 2
Fore
SplineSet
58 452 m 256
 58 508 102 555 164 555 c 256
 226 555 270 508 270 452 c 256
 270 396 226 348 164 348 c 256
 102 348 58 396 58 452 c 256
EndSplineSet
EndChar

StartChar: agrave.alt
Encoding: 65537 -1 341
Width: 630
VWidth: 0
Flags: HMW
LayerCount: 2
Fore
SplineSet
405 460 m 257
 577 460 l 257
 577 0 l 257
 405 0 l 257
 405 460 l 257
31 230 m 256
 31 387 138 470 247 470 c 256
 362 470 448 379 448 230 c 256
 448 81 362 -10 247 -10 c 256
 138 -10 31 73 31 230 c 256
213 230 m 256
 213 168 258 126 310 126 c 256
 356 126 404 164 404 230 c 256
 404 296 356 334 310 334 c 256
 258 334 213 292 213 230 c 256
138 681 m 257
 265 737 l 257
 415 577 l 257
 318 531 l 257
 138 681 l 257
EndSplineSet
EndChar

StartChar: aacute.alt
Encoding: 65538 -1 342
Width: 630
VWidth: 0
Flags: HMW
LayerCount: 2
Fore
SplineSet
405 460 m 257
 577 460 l 257
 577 0 l 257
 405 0 l 257
 405 460 l 257
31 230 m 256
 31 387 138 470 247 470 c 256
 362 470 448 379 448 230 c 256
 448 81 362 -10 247 -10 c 256
 138 -10 31 73 31 230 c 256
213 230 m 256
 213 168 258 126 310 126 c 256
 356 126 404 164 404 230 c 256
 404 296 356 334 310 334 c 256
 258 334 213 292 213 230 c 256
466 681 m 257
 286 531 l 257
 188 577 l 257
 338 737 l 257
 466 681 l 257
EndSplineSet
EndChar

StartChar: acircumflex.alt
Encoding: 65539 -1 343
Width: 630
VWidth: 0
Flags: HMW
LayerCount: 2
Fore
SplineSet
405 460 m 257
 577 460 l 257
 577 0 l 257
 405 0 l 257
 405 460 l 257
31 230 m 256
 31 387 138 470 247 470 c 256
 362 470 448 379 448 230 c 256
 448 81 362 -10 247 -10 c 256
 138 -10 31 73 31 230 c 256
213 230 m 256
 213 168 258 126 310 126 c 256
 356 126 404 164 404 230 c 256
 404 296 356 334 310 334 c 256
 258 334 213 292 213 230 c 256
324 614 m 257
 238 531 l 257
 115 612 l 257
 324 752 l 257
 532 612 l 257
 409 531 l 257
 324 614 l 257
EndSplineSet
EndChar

StartChar: atilde.alt
Encoding: 65540 -1 344
Width: 630
VWidth: 0
Flags: HMW
LayerCount: 2
Fore
SplineSet
405 460 m 257
 577 460 l 257
 577 0 l 257
 405 0 l 257
 405 460 l 257
31 230 m 256
 31 387 138 470 247 470 c 256
 362 470 448 379 448 230 c 256
 448 81 362 -10 247 -10 c 256
 138 -10 31 73 31 230 c 256
213 230 m 256
 213 168 258 126 310 126 c 256
 356 126 404 164 404 230 c 256
 404 296 356 334 310 334 c 256
 258 334 213 292 213 230 c 256
126 605 m 257
 136 654 180 704 250 704 c 256
 316 704 333 650 390 650 c 256
 417 650 438 672 458 704 c 257
 537 621 l 257
 521 584 460 532 394 532 c 256
 339 532 300 586 250 586 c 256
 213 586 204 551 204 536 c 257
 126 605 l 257
EndSplineSet
EndChar

StartChar: adieresis.alt
Encoding: 65541 -1 345
Width: 630
VWidth: 0
Flags: HMW
LayerCount: 2
Fore
SplineSet
405 460 m 257
 577 460 l 257
 577 0 l 257
 405 0 l 257
 405 460 l 257
31 230 m 256
 31 387 138 470 247 470 c 256
 362 470 448 379 448 230 c 256
 448 81 362 -10 247 -10 c 256
 138 -10 31 73 31 230 c 256
213 230 m 256
 213 168 258 126 310 126 c 256
 356 126 404 164 404 230 c 256
 404 296 356 334 310 334 c 256
 258 334 213 292 213 230 c 256
346 620 m 256
 346 674 390 710 444 710 c 256
 498 710 542 674 542 620 c 256
 542 566 498 531 444 531 c 256
 390 531 346 566 346 620 c 256
89 620 m 256
 89 674 133 710 187 710 c 256
 241 710 285 674 285 620 c 256
 285 566 241 531 187 531 c 256
 133 531 89 566 89 620 c 256
EndSplineSet
EndChar

StartChar: aring.alt
Encoding: 65542 -1 346
Width: 630
VWidth: 0
Flags: HMW
LayerCount: 2
Fore
SplineSet
405 460 m 257
 577 460 l 257
 577 0 l 257
 405 0 l 257
 405 460 l 257
31 230 m 256
 31 387 138 470 247 470 c 256
 362 470 448 379 448 230 c 256
 448 81 362 -10 247 -10 c 256
 138 -10 31 73 31 230 c 256
213 230 m 256
 213 168 258 126 310 126 c 256
 356 126 404 164 404 230 c 256
 404 296 356 334 310 334 c 256
 258 334 213 292 213 230 c 256
184 651 m 256
 184 723 240 772 314 772 c 256
 388 772 448 723 448 651 c 256
 448 579 388 531 314 531 c 256
 240 531 184 579 184 651 c 256
270 651 m 256
 270 622 289 606 314 606 c 256
 339 606 360 622 360 651 c 256
 360 680 339 698 314 698 c 256
 289 698 270 680 270 651 c 256
EndSplineSet
EndChar

StartChar: amacron.alt
Encoding: 65543 -1 347
Width: 630
VWidth: 0
Flags: HMW
LayerCount: 2
Fore
SplineSet
405 460 m 257
 577 460 l 257
 577 0 l 257
 405 0 l 257
 405 460 l 257
31 230 m 256
 31 387 138 470 247 470 c 256
 362 470 448 379 448 230 c 256
 448 81 362 -10 247 -10 c 256
 138 -10 31 73 31 230 c 256
213 230 m 256
 213 168 258 126 310 126 c 256
 356 126 404 164 404 230 c 256
 404 296 356 334 310 334 c 256
 258 334 213 292 213 230 c 256
132 531 m 257
 132 678 l 257
 511 678 l 257
 511 531 l 257
 132 531 l 257
EndSplineSet
EndChar

StartChar: abreve.alt
Encoding: 65544 -1 348
Width: 630
VWidth: 0
Flags: HMW
LayerCount: 2
Fore
SplineSet
405 460 m 257
 577 460 l 257
 577 0 l 257
 405 0 l 257
 405 460 l 257
31 230 m 256
 31 387 138 470 247 470 c 256
 362 470 448 379 448 230 c 256
 448 81 362 -10 247 -10 c 256
 138 -10 31 73 31 230 c 256
213 230 m 256
 213 168 258 126 310 126 c 256
 356 126 404 164 404 230 c 256
 404 296 356 334 310 334 c 256
 258 334 213 292 213 230 c 256
146 679 m 257
 253 679 l 257
 253 641 282 624 312 624 c 256
 342 624 370 641 370 679 c 257
 478 679 l 257
 478 594 417 531 312 531 c 256
 207 531 146 594 146 679 c 257
EndSplineSet
EndChar

StartChar: aogonek.alt
Encoding: 65545 -1 349
Width: 630
VWidth: 0
Flags: HMW
LayerCount: 2
Fore
SplineSet
405 460 m 257
 577 460 l 257
 577 0 l 257
 405 0 l 257
 405 460 l 257
31 230 m 256
 31 387 138 470 247 470 c 256
 362 470 448 379 448 230 c 256
 448 81 362 -10 247 -10 c 256
 138 -10 31 73 31 230 c 256
213 230 m 256
 213 168 258 126 310 126 c 256
 356 126 404 164 404 230 c 256
 404 296 356 334 310 334 c 256
 258 334 213 292 213 230 c 256
542 -106 m 257
 574 -180 l 257
 559 -200 529 -220 470 -220 c 256
 410 -220 356 -187 356 -120 c 256
 356 -53 426 -11 496 25 c 257
 536 0 l 257
 484 -30 460 -63 460 -92 c 256
 460 -114 470 -126 492 -126 c 256
 510 -126 528 -119 542 -106 c 257
EndSplineSet
EndChar

StartChar: dagger
Encoding: 8224 8224 350
Width: 651
VWidth: 0
Flags: HMW
LayerCount: 2
Fore
SplineSet
90 540 m 257
 561 540 l 257
 561 400 l 257
 90 400 l 257
 90 540 l 257
245 700 m 257
 406 700 l 257
 406 -150 l 257
 245 -150 l 257
 245 700 l 257
EndSplineSet
EndChar

StartChar: daggerdbl
Encoding: 8225 8225 351
Width: 651
VWidth: 0
Flags: HMW
LayerCount: 2
Fore
SplineSet
90 168 m 257
 561 168 l 257
 561 29 l 257
 90 29 l 257
 90 168 l 257
90 540 m 257
 561 540 l 257
 561 400 l 257
 90 400 l 257
 90 540 l 257
245 700 m 257
 406 700 l 257
 406 -150 l 257
 245 -150 l 257
 245 700 l 257
EndSplineSet
EndChar

StartChar: ellipsis
Encoding: 8230 8230 352
Width: 932
VWidth: 0
Flags: HMW
LayerCount: 2
Fore
SplineSet
58 76 m 256
 58 132 102 180 164 180 c 256
 226 180 270 132 270 76 c 256
 270 20 226 -27 164 -27 c 256
 102 -27 58 20 58 76 c 256
358 76 m 256
 358 132 402 180 464 180 c 256
 526 180 570 132 570 76 c 256
 570 20 526 -27 464 -27 c 256
 402 -27 358 20 358 76 c 256
658 76 m 256
 658 132 702 180 764 180 c 256
 826 180 870 132 870 76 c 256
 870 20 826 -27 764 -27 c 256
 702 -27 658 20 658 76 c 256
EndSplineSet
EndChar

StartChar: uniFF10
Encoding: 65296 65296 353
Width: 644
VWidth: 0
Flags: HMW
LayerCount: 2
Fore
SplineSet
208 350 m 256
 208 228 254 151 322 151 c 256
 390 151 436 228 436 350 c 256
 436 472 390 549 322 549 c 256
 254 549 208 472 208 350 c 256
21 350 m 256
 21 584 144 714 322 714 c 256
 508 714 622 584 622 350 c 256
 622 116 508 -14 322 -14 c 256
 144 -14 21 116 21 350 c 256
EndSplineSet
EndChar

StartChar: uniFF11
Encoding: 65297 65297 354
Width: 644
VWidth: 0
Flags: HMW
LayerCount: 2
Fore
SplineSet
107 478 m 257
 107 644 l 257
 472 714 l 257
 472 0 l 257
 286 0 l 257
 286 520 l 257
 107 478 l 257
EndSplineSet
EndChar

StartChar: uniFF12
Encoding: 65298 65298 355
Width: 644
VWidth: 0
Flags: HMW
LayerCount: 2
Fore
SplineSet
9 0 m 257
 316 314 l 258
 375 378 410 418 410 473 c 256
 410 513 386 550 328 550 c 256
 270 550 231 502 231 436 c 257
 41 436 l 257
 41 585 140 715 334 715 c 256
 513 715 612 598 612 484 c 256
 612 408 570 349 508 299 c 258
 364 177 l 257
 632 177 l 257
 632 0 l 257
 9 0 l 257
EndSplineSet
EndChar

StartChar: uniFF13
Encoding: 65299 65299 356
Width: 644
VWidth: 0
Flags: HMW
LayerCount: 2
Fore
SplineSet
274 337 m 257
 274 420 l 257
 348 420 400 459 400 505 c 256
 400 539 376 562 328 562 c 256
 279 562 244 531 244 486 c 257
 66 486 l 257
 66 615 169 714 329 714 c 256
 497 714 591 629 591 518 c 256
 591 390 450 337 274 337 c 257
320 -18 m 256
 140 -18 36 105 36 234 c 257
 228 234 l 257
 228 164 276 135 328 135 c 256
 380 135 420 155 420 211 c 256
 420 261 380 300 274 300 c 257
 274 396 l 257
 474 396 611 336 611 193 c 256
 611 70 506 -18 320 -18 c 256
EndSplineSet
EndChar

StartChar: uniFF14
Encoding: 65300 65300 357
Width: 644
VWidth: 0
Flags: HMW
LayerCount: 2
Fore
SplineSet
10 120 m 257
 169 256 l 257
 440 256 l 256
 456 284 l 256
 628 284 l 257
 628 120 l 257
 10 120 l 257
189 184 m 257
 10 120 l 257
 382 700 l 257
 534 700 l 257
 534 0 l 257
 332 0 l 257
 332 156 l 256
 356 167 l 256
 356 438 l 257
 189 184 l 257
EndSplineSet
EndChar

StartChar: uniFF15
Encoding: 65301 65301 358
Width: 644
VWidth: 0
Flags: HMW
LayerCount: 2
Fore
SplineSet
608 222 m 256
 608 55 449 -14 314 -14 c 256
 185 -14 95 20 25 60 c 257
 89 226 l 257
 153 182 222 163 266 163 c 256
 346 163 394 186 394 246 c 256
 394 306 328 325 266 325 c 256
 215 325 135 318 64 286 c 257
 202 377 l 257
 256 435 319 449 394 449 c 256
 502 449 608 369 608 222 c 256
304 532 m 257
 244 368 l 257
 64 286 l 257
 162 700 l 257
 590 700 l 257
 590 532 l 257
 304 532 l 257
EndSplineSet
EndChar

StartChar: uniFF16
Encoding: 65302 65302 359
Width: 644
VWidth: 0
Flags: HMW
LayerCount: 2
Fore
SplineSet
216 250 m 256
 216 186 262 146 322 146 c 256
 382 146 428 186 428 250 c 256
 428 314 382 356 322 356 c 256
 262 356 216 314 216 250 c 256
307 696 m 257
 553 696 l 257
 324 454 l 257
 281 433 l 257
 322 470 349 478 401 478 c 256
 503 478 620 395 620 250 c 256
 620 70 486 -18 322 -18 c 256
 158 -18 23 70 23 250 c 256
 23 332 64 398 116 460 c 258
 307 696 l 257
EndSplineSet
EndChar

StartChar: uniFF17
Encoding: 65303 65303 360
Width: 644
VWidth: 0
Flags: HMW
LayerCount: 2
Fore
SplineSet
33 518 m 257
 33 700 l 257
 628 700 l 257
 289 0 l 257
 78 0 l 257
 344 518 l 257
 33 518 l 257
EndSplineSet
EndChar

StartChar: uniFF18
Encoding: 65304 65304 361
Width: 644
VWidth: 0
Flags: HMW
LayerCount: 2
Fore
SplineSet
89 531 m 256
 89 655 204 718 338 718 c 256
 472 718 588 655 588 531 c 256
 588 397 453 339 338 339 c 256
 223 339 89 397 89 531 c 256
271 513 m 256
 271 471 298 442 338 442 c 256
 378 442 406 471 406 513 c 256
 406 555 378 582 338 582 c 256
 298 582 271 555 271 513 c 256
64 190 m 256
 64 344 223 398 338 398 c 256
 453 398 614 344 614 190 c 256
 614 56 479 -18 338 -18 c 256
 197 -18 64 56 64 190 c 256
258 220 m 256
 258 166 292 138 338 138 c 256
 384 138 419 166 419 220 c 256
 419 264 384 298 338 298 c 256
 292 298 258 264 258 220 c 256
EndSplineSet
EndChar

StartChar: uniFF19
Encoding: 65305 65305 362
Width: 644
VWidth: 0
Flags: HMW
LayerCount: 2
Fore
SplineSet
428 450 m 256
 428 514 382 554 322 554 c 256
 262 554 216 514 216 450 c 256
 216 386 262 344 322 344 c 256
 382 344 428 386 428 450 c 256
336 4 m 257
 90 4 l 257
 318 246 l 257
 362 267 l 257
 321 230 294 222 242 222 c 256
 140 222 23 305 23 450 c 256
 23 630 158 718 322 718 c 256
 486 718 620 630 620 450 c 256
 620 368 580 302 528 240 c 258
 336 4 l 257
EndSplineSet
EndChar

StartChar: caron
Encoding: 711 711 363
Width: 480
VWidth: 0
Flags: HMW
LayerCount: 2
Fore
SplineSet
240 682 m 257
 326 766 l 257
 448 685 l 257
 240 545 l 257
 32 685 l 257
 154 766 l 257
 240 682 l 257
EndSplineSet
EndChar

StartChar: napostrophe
Encoding: 329 329 364
Width: 780
VWidth: 0
Flags: HMW
LayerCount: 2
Fore
SplineSet
419 460 m 257
 419 0 l 257
 246 0 l 257
 246 460 l 257
 419 460 l 257
545 280 m 258
 545 328 533 356 488 356 c 256
 446 356 419 330 419 280 c 257
 391 272 l 257
 391 381 440 471 560 471 c 256
 680 471 726 409 726 298 c 258
 726 0 l 257
 545 0 l 257
 545 280 l 258
106 700 m 257
 282 700 l 257
 178 438 l 257
 54 438 l 257
 106 700 l 257
EndSplineSet
EndChar

StartChar: IJ
Encoding: 306 306 365
Width: 664
VWidth: 0
Flags: HMW
LayerCount: 2
Fore
SplineSet
233 -52 m 257
 255 -68 286 -84 314 -84 c 256
 344 -84 378 -64 378 -6 c 258
 378 700 l 257
 592 700 l 257
 592 -52 l 258
 592 -194 472 -244 338 -244 c 256
 252 -244 175 -214 127 -186 c 257
 233 -52 l 257
72 700 m 257
 270 700 l 257
 270 0 l 257
 72 0 l 257
 72 700 l 257
EndSplineSet
EndChar

StartChar: ij
Encoding: 307 307 366
Width: 555
VWidth: 0
Flags: HMW
LayerCount: 2
Fore
SplineSet
317 628 m 256
 317 682 361 717 415 717 c 256
 469 717 513 682 513 628 c 256
 513 574 469 538 415 538 c 256
 361 538 317 574 317 628 c 256
238 -66 m 257
 251 -82 266 -92 284 -92 c 256
 314 -92 332 -72 332 -30 c 258
 332 460 l 257
 497 460 l 257
 497 -76 l 258
 497 -177 436 -244 312 -244 c 256
 236 -244 195 -210 172 -190 c 257
 238 -66 l 257
42 628 m 256
 42 682 86 717 140 717 c 256
 194 717 238 682 238 628 c 256
 238 574 194 538 140 538 c 256
 86 538 42 574 42 628 c 256
57 460 m 257
 224 460 l 257
 224 0 l 257
 57 0 l 257
 57 460 l 257
EndSplineSet
EndChar

StartChar: uni0237
Encoding: 567 567 367
Width: 278
VWidth: 0
Flags: HMW
LayerCount: 2
Fore
SplineSet
-38 -66 m 257
 -25 -82 -10 -92 8 -92 c 256
 38 -92 56 -72 56 -30 c 258
 56 460 l 257
 220 460 l 257
 220 -76 l 258
 220 -177 159 -244 35 -244 c 256
 -41 -244 -81 -210 -104 -190 c 257
 -38 -66 l 257
EndSplineSet
EndChar

StartChar: Sacute
Encoding: 346 346 368
Width: 648
VWidth: 0
Flags: HMW
LayerCount: 2
Fore
SplineSet
166 258 m 257
 216 178 261 142 332 142 c 256
 380 142 406 158 406 196 c 256
 406 246 348 259 268 291 c 256
 200 319 74 373 74 515 c 256
 74 637 180 718 334 718 c 256
 496 718 574 634 602 563 c 257
 456 482 l 257
 426 532 390 556 343 556 c 256
 301 556 272 537 272 509 c 256
 272 467 351 448 433 418 c 256
 537 382 612 317 612 198 c 256
 612 48 500 -26 328 -26 c 256
 197 -26 76 48 32 163 c 257
 166 258 l 257
514 928 m 257
 334 778 l 257
 236 824 l 257
 386 984 l 257
 514 928 l 257
EndSplineSet
EndChar

StartChar: sacute
Encoding: 347 347 369
Width: 471
VWidth: 0
Flags: HMW
LayerCount: 2
Fore
SplineSet
80 179 m 257
 165 118 218 107 242 107 c 256
 262 107 278 112 278 130 c 256
 278 160 204 166 150 192 c 256
 90 221 38 252 38 333 c 256
 38 425 126 470 232 470 c 256
 313 470 380 443 438 408 c 257
 387 293 l 257
 347 329 281 350 244 350 c 256
 214 350 203 344 203 328 c 256
 203 304 263 291 323 269 c 256
 388 245 450 213 450 130 c 256
 450 23 385 -22 270 -22 c 256
 169 -22 87 10 17 60 c 257
 80 179 l 257
412 681 m 257
 232 531 l 257
 134 577 l 257
 284 737 l 257
 412 681 l 257
EndSplineSet
EndChar

StartChar: Scircumflex
Encoding: 348 348 370
Width: 648
VWidth: 0
Flags: HMW
LayerCount: 2
Fore
SplineSet
166 258 m 257
 216 178 261 142 332 142 c 256
 380 142 406 158 406 196 c 256
 406 246 348 259 268 291 c 256
 200 319 74 373 74 515 c 256
 74 637 180 718 334 718 c 256
 496 718 574 634 602 563 c 257
 456 482 l 257
 426 532 390 556 343 556 c 256
 301 556 272 537 272 509 c 256
 272 467 351 448 433 418 c 256
 537 382 612 317 612 198 c 256
 612 48 500 -26 328 -26 c 256
 197 -26 76 48 32 163 c 257
 166 258 l 257
334 861 m 257
 248 778 l 257
 126 858 l 257
 334 998 l 257
 542 858 l 257
 420 778 l 257
 334 861 l 257
EndSplineSet
EndChar

StartChar: scircumflex
Encoding: 349 349 371
Width: 471
VWidth: 0
Flags: HMW
LayerCount: 2
Fore
SplineSet
80 179 m 257
 165 118 218 107 242 107 c 256
 262 107 278 112 278 130 c 256
 278 160 204 166 150 192 c 256
 90 221 38 252 38 333 c 256
 38 425 126 470 232 470 c 256
 313 470 380 443 438 408 c 257
 387 293 l 257
 347 329 281 350 244 350 c 256
 214 350 203 344 203 328 c 256
 203 304 263 291 323 269 c 256
 388 245 450 213 450 130 c 256
 450 23 385 -22 270 -22 c 256
 169 -22 87 10 17 60 c 257
 80 179 l 257
248 614 m 257
 162 531 l 257
 39 612 l 257
 248 752 l 257
 456 612 l 257
 333 531 l 257
 248 614 l 257
EndSplineSet
EndChar

StartChar: uni1E9E
Encoding: 7838 7838 372
Width: 942
VWidth: 0
Flags: HMW
LayerCount: 2
Fore
SplineSet
590 -18 m 256
 390 -18 323 125 323 234 c 257
 490 234 l 257
 490 176 528 135 590 135 c 256
 654 135 681 159 681 211 c 256
 681 273 626 300 536 300 c 257
 536 380 l 257
 728 380 874 324 874 185 c 256
 874 66 756 -18 590 -18 c 256
536 345 m 257
 536 420 l 257
 610 420 653 446 653 496 c 256
 653 538 612 564 512 564 c 256
 387 564 274 494 274 321 c 258
 274 0 l 257
 80 0 l 257
 80 354 l 258
 80 567 246 710 502 710 c 256
 731 710 854 632 854 518 c 256
 854 409 728 345 536 345 c 257
EndSplineSet
EndChar

StartChar: Zacute
Encoding: 377 377 373
Width: 642
VWidth: 0
Flags: HW
LayerCount: 2
Fore
SplineSet
64 527 m 257
 64 700 l 257
 630 700 l 257
 311 165 l 257
 590 165 l 257
 590 0 l 257
 7 0 l 257
 320 527 l 257
 64 527 l 257
522 928 m 257
 342 778 l 257
 245 824 l 257
 395 984 l 257
 522 928 l 257
EndSplineSet
EndChar

StartChar: zacute
Encoding: 378 378 374
Width: 541
VWidth: 0
Flags: HW
LayerCount: 2
Fore
SplineSet
244 304 m 257
 61 304 l 257
 61 460 l 257
 526 460 l 257
 313 156 l 257
 490 156 l 257
 490 0 l 257
 15 0 l 257
 244 304 l 257
470 684 m 257
 290 534 l 257
 192 581 l 257
 342 741 l 257
 470 684 l 257
EndSplineSet
EndChar

StartChar: Zdotaccent
Encoding: 379 379 375
Width: 642
VWidth: 0
Flags: HW
LayerCount: 2
Fore
SplineSet
64 527 m 257
 64 700 l 257
 630 700 l 257
 311 165 l 257
 590 165 l 257
 590 0 l 257
 7 0 l 257
 320 527 l 257
 64 527 l 257
248 868 m 256
 248 922 292 958 346 958 c 256
 400 958 444 922 444 868 c 256
 444 814 400 778 346 778 c 256
 292 778 248 814 248 868 c 256
EndSplineSet
EndChar

StartChar: zdotaccent
Encoding: 380 380 376
Width: 541
VWidth: 0
Flags: HW
LayerCount: 2
Fore
SplineSet
244 304 m 257
 61 304 l 257
 61 460 l 257
 526 460 l 257
 313 156 l 257
 490 156 l 257
 490 0 l 257
 15 0 l 257
 244 304 l 257
196 626 m 256
 196 680 240 716 294 716 c 256
 348 716 392 680 392 626 c 256
 392 572 348 536 294 536 c 256
 240 536 196 572 196 626 c 256
EndSplineSet
EndChar

StartChar: Tcaron
Encoding: 356 356 377
Width: 590
VWidth: 0
Flags: HW
LayerCount: 2
Fore
SplineSet
2 526 m 257
 2 700 l 257
 589 700 l 257
 589 526 l 257
 393 526 l 257
 393 0 l 257
 198 0 l 257
 198 526 l 257
 2 526 l 257
295.5 915 m 257
 381.5 999 l 257
 503.5 918 l 257
 295.5 778 l 257
 87.5 918 l 257
 209.5 999 l 257
 295.5 915 l 257
EndSplineSet
EndChar

StartChar: tcaron
Encoding: 357 357 378
Width: 541
VWidth: 0
Flags: HW
LayerCount: 2
Fore
SplineSet
5 460 m 257
 336 460 l 257
 336 320 l 257
 5 320 l 257
 5 460 l 257
88 620 m 257
 254 620 l 257
 254 0 l 257
 88 0 l 257
 88 620 l 257
404 803 m 257
 577 770 l 257
 446 520 l 257
 316 544 l 257
 404 803 l 257
EndSplineSet
EndChar

StartChar: Uring
Encoding: 366 366 379
Width: 723
VWidth: 0
Flags: HW
LayerCount: 2
Fore
SplineSet
66 700 m 257
 262 700 l 257
 262 246 l 258
 262 182 294 139 362 139 c 256
 430 139 462 182 462 246 c 258
 462 700 l 257
 656 700 l 257
 656 230 l 258
 656 42 524 -34 362 -34 c 256
 200 -34 66 42 66 230 c 258
 66 700 l 257
229 899 m 256
 229 971 285 1019 359 1019 c 256
 433 1019 493 971 493 899 c 256
 493 827 433 778 359 778 c 256
 285 778 229 827 229 899 c 256
315 899 m 256
 315 870 334 853 359 853 c 256
 384 853 405 870 405 899 c 256
 405 928 384 946 359 946 c 256
 334 946 315 928 315 899 c 256
EndSplineSet
EndChar

StartChar: uring
Encoding: 367 367 380
Width: 590
VWidth: 0
Flags: HW
LayerCount: 2
Fore
SplineSet
362 0 m 257
 362 460 l 257
 536 460 l 257
 536 0 l 257
 362 0 l 257
236 180 m 258
 236 132 249 105 294 105 c 256
 336 105 362 130 362 180 c 257
 388 188 l 257
 388 79 341 -10 221 -10 c 256
 101 -10 55 52 55 162 c 258
 55 460 l 257
 236 460 l 257
 236 180 l 258
163.5 651 m 256
 163.5 723 219.5 771 293.5 771 c 256
 367.5 771 427.5 723 427.5 651 c 256
 427.5 579 367.5 530 293.5 530 c 256
 219.5 530 163.5 579 163.5 651 c 256
249.5 651 m 256
 249.5 622 268.5 605 293.5 605 c 256
 318.5 605 339.5 622 339.5 651 c 256
 339.5 680 318.5 698 293.5 698 c 256
 268.5 698 249.5 680 249.5 651 c 256
EndSplineSet
EndChar
